P3
100 50
255
0 92 0 0 92 0 0 92 0 0 91 0 0 91 0 0 91 0 90 90 90 90 90 90 90 90 90 89 89 89 89 89 89 89 89 89 88 88 88 88 88 88 88 88 88 87 87 87 87 87 87 86 86 86 0 86 0 0 86 0 0 85 0 0 85 0 0 84 0 0 84 0 0 84 0 0 83 0 0 83 0 0 82 0 82 82 82 82 82 82 81 81 81 81 81 81 80 80 80 80 80 80 79 79 79 79 79 79 79 79 79 0 78 0 0 78 0 0 77 0 0 77 0 0 76 0 0 76 0 0 75 0 0 75 0 74 74 74 74 74 74 73 73 73 73 73 73 72 72 72 222 222 222 222 222 222 223 223 223 223 223 223 224 224 224 0 224 0 0 225 0 0 225 0 0 226 0 0 226 0 0 227 0 0 227 0 0 227 0 227 227 227 228 228 228 228 228 228 228 228 228 228 228 228 229 229 229 229 229 229 229 229 229 229 229 229 0 229 0 0 229 0 0 230 0 0 230 0 0 230 0 0 230 0 0 230 0 0 230 0 0 230 0 0 230 0 230 230 230 230 230 230 230 230 230 230 230 230 230 230 230 230 230 230 230 230 230 230 230 230 230 230 230 230 230 230 230 230 230 230 230 230 0 230 0 0 230 0 0 230 0 0 230 0 0 230 0 0 230 0 0 92 0 0 92 0 0 92 0 0 91 0 0 91 0 0 91 0 90 90 90 90 90 90 90 90 90 89 89 89 89 89 89 88 88 88 88 88 88 88 88 88 87 87 87 87 87 87 87 87 87 86 86 86 0 86 0 0 85 0 0 85 0 0 85 0 0 84 0 0 84 0 0 83 0 0 83 0 0 83 0 0 82 0 82 82 82 81 81 81 81 81 81 81 81 81 80 80 80 80 80 80 79 79 79 79 79 79 0 78 0 0 78 0 0 77 0 0 77 0 0 77 0 0 76 0 0 76 0 0 75 0 75 75 75 74 74 74 74 74 74 73 73 73 73 73 73 72 72 72 221 221 221 222 222 222 222 222 222 223 223 223 223 223 223 224 224 224 0 224 0 0 225 0 0 225 0 0 226 0 0 226 0 0 226 0 0 227 0 0 227 0 227 227 227 227 227 227 228 228 228 228 228 228 228 228 228 228 228 228 228 228 228 229 229 229 0 229 0 0 229 0 0 229 0 0 229 0 0 229 0 0 229 0 0 229 0 0 230 0 0 230 0 0 230 0 230 230 230 230 230 230 230 230 230 230 230 230 230 230 230 230 230 230 230 230 230 230 230 230 230 230 230 230 230 230 230 230 230 230 230 230 0 230 0 0 230 0 0 230 0 0 230 0 0 230 0 0 230 0 0 92 0 0 92 0 0 91 0 0 91 0 0 91 0 0 90 0 90 90 90 90 90 90 89 89 89 89 89 89 89 89 89 88 88 88 88 88 88 88 88 88 87 87 87 87 87 87 86 86 86 86 86 86 0 86 0 0 85 0 0 85 0 0 85 0 0 84 0 0 84 0 0 83 0 0 83 0 0 83 0 0 82 0 82 82 82 81 81 81 81 81 81 80 80 80 80 80 80 80 80 80 79 79 79 79 79 79 0 78 0 0 78 0 0 77 0 0 77 0 0 76 0 0 76 0 0 75 0 0 75 0 74 74 74 74 74 74 74 74 74 73 73 73 73 73 73 72 72 72 220 220 220 221 221 221 221 221 221 222 222 222 223 223 223 223 223 223 0 224 0 0 224 0 0 224 0 0 225 0 0 225 0 0 226 0 0 226 0 0 226 0 227 227 227 227 227 227 227 227 227 227 227 227 227 227 227 228 228 228 228 228 228 228 228 228 0 228 0 0 228 0 0 229 0 0 229 0 0 229 0 0 229 0 0 229 0 0 229 0 0 229 0 0 229 0 229 229 229 229 229 229 229 229 229 229 229 229 229 229 229 229 229 229 229 229 229 229 229 229 229 229 229 229 229 229 229 229 229 229 229 229 0 229 0 0 229 0 0 229 0 0 229 0 0 229 0 0 229 0 0 92 0 0 92 0 0 91 0 0 91 0 0 91 0 0 90 0 90 90 90 90 90 90 89 89 89 89 89 89 89 89 89 88 88 88 88 88 88 87 87 87 87 87 87 87 87 87 86 86 86 86 86 86 0 86 0 0 85 0 0 85 0 0 84 0 0 84 0 0 84 0 0 83 0 0 83 0 0 82 0 82 82 82 82 82 82 81 81 81 81 81 81 80 80 80 80 80 80 79 79 79 79 79 79 78 78 78 0 78 0 0 78 0 0 77 0 0 77 0 0 76 0 0 76 0 0 75 0 75 75 75 74 74 74 74 74 74 73 73 73 73 73 73 72 72 72 72 72 72 219 219 219 220 220 220 221 221 221 221 221 221 222 222 222 222 222 222 223 223 223 0 223 0 0 224 0 0 224 0 0 225 0 0 225 0 0 225 0 0 226 0 226 226 226 226 226 226 226 226 226 227 227 227 227 227 227 227 227 227 227 227 227 227 227 227 228 228 228 0 228 0 0 228 0 0 228 0 0 228 0 0 228 0 0 228 0 0 228 0 0 229 0 0 229 0 229 229 229 229 229 229 229 229 229 229 229 229 229 229 229 229 229 229 229 229 229 229 229 229 229 229 229 229 229 229 229 229 229 229 229 229 0 229 0 0 229 0 0 229 0 0 229 0 0 229 0 0 229 0 0 92 0 0 92 0 0 91 0 0 91 0 0 91 0 0 90 0 90 90 90 89 89 89 89 89 89 89 89 89 88 88 88 88 88 88 88 88 88 87 87 87 87 87 87 87 87 87 86 86 86 0 86 0 0 85 0 0 85 0 0 85 0 0 84 0 0 84 0 0 83 0 0 83 0 0 83 0 0 82 0 82 82 82 81 81 81 81 81 81 80 80 80 80 80 80 80 80 80 79 79 79 79 79 79 0 78 0 0 78 0 0 77 0 0 77 0 0 76 0 0 76 0 0 76 0 75 75 75 75 75 75 74 74 74 74 74 74 73 73 73 73 73 73 72 72 72 72 72 72 219 219 219 219 219 219 220 220 220 221 221 221 221 221 221 222 222 222 222 222 222 223 223 223 0 223 0 0 223 0 0 224 0 0 224 0 0 225 0 0 225 0 0 225 0 226 226 226 226 226 226 226 226 226 226 226 226 226 226 226 227 227 227 227 227 227 227 227 227 0 227 0 0 227 0 0 227 0 0 228 0 0 228 0 0 228 0 0 228 0 0 228 0 0 228 0 0 228 0 228 228 228 228 228 228 228 228 228 228 228 228 228 228 228 228 228 228 228 228 228 228 228 228 228 228 228 228 228 228 228 228 228 0 228 0 0 228 0 0 228 0 0 228 0 0 228 0 0 228 0 0 92 0 0 91 0 0 91 0 0 91 0 0 90 0 0 90 0 90 90 90 89 89 89 89 89 89 89 89 89 88 88 88 88 88 88 88 88 88 87 87 87 87 87 87 86 86 86 86 86 86 0 86 0 0 85 0 0 85 0 0 84 0 0 84 0 0 84 0 0 83 0 0 83 0 0 82 0 0 82 0 82 82 82 81 81 81 81 81 81 80 80 80 80 80 80 79 79 79 79 79 79 79 79 79 0 78 0 0 78 0 0 77 0 0 77 0 0 76 0 0 76 0 0 75 0 75 75 75 74 74 74 74 74 74 73 73 73 73 73 73 72 72 72 72 72 72 0 71 0 0 218 0 218 218 218 219 219 219 220 220 220 220 220 220 221 221 221 221 221 221 222 222 222 0 222 0 0 223 0 0 223 0 0 224 0 0 224 0 0 224 0 0 225 0 225 225 225 225 225 225 225 225 225 226 226 226 226 226 226 226 226 226 226 226 226 226 226 226 0 227 0 0 227 0 0 227 0 0 227 0 0 227 0 0 227 0 0 227 0 0 227 0 0 228 0 0 228 0 228 228 228 228 228 228 228 228 228 228 228 228 228 228 228 228 228 228 228 228 228 228 228 228 228 228 228 228 228 228 228 228 228 0 228 0 0 228 0 0 228 0 0 228 0 0 228 0 0 228 0 0 92 0 0 91 0 0 91 0 0 91 0 0 90 0 90 90 90 90 90 90 89 89 89 89 89 89 88 88 88 88 88 88 88 88 88 87 87 87 87 87 87 87 87 87 86 86 86 86 86 86 0 85 0 0 85 0 0 85 0 0 84 0 0 84 0 0 83 0 0 83 0 0 83 0 0 82 0 82 82 82 81 81 81 81 81 81 81 81 81 80 80 80 80 80 80 79 79 79 79 79 79 0 78 0 0 78 0 0 78 0 0 77 0 0 77 0 0 76 0 0 76 0 75 75 75 75 75 75 74 74 74 74 74 74 73 73 73 73 73 73 72 72 72 0 72 0 0 71 0 0 217 0 0 218 0 218 218 218 219 219 219 220 220 220 220 220 220 221 221 221 221 221 221 222 222 222 0 222 0 0 222 0 0 223 0 0 223 0 0 224 0 0 224 0 0 224 0 224 224 224 225 225 225 225 225 225 225 225 225 225 225 225 226 226 226 226 226 226 226 226 226 0 226 0 0 226 0 0 226 0 0 227 0 0 227 0 0 227 0 0 227 0 0 227 0 0 227 0 227 227 227 227 227 227 227 227 227 227 227 227 227 227 227 227 227 227 227 227 227 227 227 227 227 227 227 227 227 227 227 227 227 227 227 227 0 227 0 0 227 0 0 227 0 0 227 0 0 227 0 0 91 0 0 91 0 0 91 0 0 90 0 0 90 0 90 90 90 89 89 89 89 89 89 89 89 89 88 88 88 88 88 88 88 88 88 87 87 87 87 87 87 86 86 86 86 86 86 86 86 86 0 85 0 0 85 0 0 85 0 0 84 0 0 84 0 0 83 0 0 83 0 0 83 0 0 82 0 82 82 82 81 81 81 81 81 81 80 80 80 80 80 80 80 80 80 79 79 79 79 79 79 0 78 0 0 78 0 0 77 0 0 77 0 0 76 0 0 76 0 0 75 0 75 75 75 75 75 75 74 74 74 74 74 74 73 73 73 73 73 73 0 72 0 0 72 0 0 71 0 0 216 0 0 217 0 0 218 0 218 218 218 219 219 219 219 219 219 220 220 220 220 220 220 221 221 221 0 221 0 0 222 0 0 222 0 0 223 0 0 223 0 0 223 0 0 224 0 224 224 224 224 224 224 224 224 224 225 225 225 225 225 225 225 225 225 225 225 225 225 225 225 0 226 0 0 226 0 0 226 0 0 226 0 0 226 0 0 226 0 0 226 0 0 226 0 0 227 0 227 227 227 227 227 227 227 227 227 227 227 227 227 227 227 227 227 227 227 227 227 227 227 227 227 227 227 227 227 227 227 227 227 227 227 227 0 227 0 0 227 0 0 227 0 0 227 0 0 227 0 0 91 0 0 91 0 0 91 0 0 90 0 0 90 0 90 90 90 89 89 89 89 89 89 88 88 88 88 88 88 88 88 88 87 87 87 87 87 87 87 87 87 86 86 86 86 86 86 86 86 86 0 85 0 0 85 0 0 84 0 0 84 0 0 84 0 0 83 0 0 83 0 0 82 0 0 82 0 82 82 82 81 81 81 81 81 81 80 80 80 80 80 80 79 79 79 79 79 79 78 78 78 0 78 0 0 78 0 0 77 0 0 77 0 0 76 0 0 76 0 75 75 75 75 75 75 74 74 74 74 74 74 73 73 73 73 73 73 0 72 0 0 72 0 0 71 0 0 71 0 0 215 0 0 216 0 0 217 0 0 217 0 218 218 218 219 219 219 219 219 219 220 220 220 220 220 220 221 221 221 0 221 0 0 221 0 0 222 0 0 222 0 0 223 0 0 223 0 223 223 223 223 223 223 224 224 224 224 224 224 224 224 224 224 224 224 225 225 225 225 225 225 0 225 0 0 225 0 0 225 0 0 225 0 0 226 0 0 226 0 0 226 0 0 226 0 0 226 0 226 226 226 226 226 226 226 226 226 226 226 226 226 226 226 226 226 226 226 226 226 226 226 226 226 226 226 226 226 226 226 226 226 226 226 226 0 226 0 0 226 0 0 226 0 0 226 0 0 226 0 0 91 0 0 91 0 0 90 0 0 90 0 0 90 0 89 89 89 89 89 89 89 89 89 88 88 88 88 88 88 88 88 88 87 87 87 87 87 87 86 86 86 86 86 86 86 86 86 85 85 85 0 85 0 0 85 0 0 84 0 0 84 0 0 83 0 0 83 0 0 83 0 0 82 0 0 82 0 81 81 81 81 81 81 80 80 80 80 80 80 80 80 80 79 79 79 79 79 79 78 78 78 0 78 0 0 77 0 0 77 0 0 76 0 0 76 0 0 76 0 75 75 75 75 75 75 74 74 74 74 74 74 73 73 73 73 73 73 0 72 0 0 72 0 0 71 0 0 71 0 0 214 0 0 215 0 0 216 0 0 217 0 217 217 217 218 218 218 218 218 218 219 219 219 219 219 219 220 220 220 0 220 0 0 221 0 0 221 0 0 221 0 0 222 0 0 222 0 222 222 222 223 223 223 223 223 223 223 223 223 224 224 224 224 224 224 224 224 224 224 224 224 0 224 0 0 224 0 0 225 0 0 225 0 0 225 0 0 225 0 0 225 0 0 225 0 0 225 0 225 225 225 226 226 226 226 226 226 226 226 226 226 226 226 226 226 226 226 226 226 226 226 226 226 226 226 226 226 226 226 226 226 226 226 226 0 226 0 0 226 0 0 226 0 0 226 0 0 226 0 0 91 0 0 91 0 0 90 0 0 90 0 0 90 0 89 89 89 89 89 89 88 88 88 88 88 88 88 88 88 87 87 87 87 87 87 87 87 87 86 86 86 86 86 86 86 86 86 85 85 85 0 85 0 0 84 0 0 84 0 0 84 0 0 83 0 0 83 0 0 82 0 0 82 0 0 82 0 81 81 81 81 81 81 80 80 80 80 80 80 79 79 79 79 79 79 79 79 79 0 78 0 0 78 0 0 77 0 0 77 0 0 76 0 0 76 0 0 75 0 75 75 75 74 74 74 74 74 74 73 73 73 73 73 73 0 72 0 0 72 0 0 71 0 0 71 0 0 70 0 0 214 0 0 214 0 0 215 0 0 216 0 0 216 0 217 217 217 218 218 218 218 218 218 219 219 219 219 219 219 0 220 0 0 220 0 0 220 0 0 221 0 0 221 0 0 221 0 0 222 0 222 222 222 222 222 222 223 223 223 223 223 223 223 223 223 223 223 223 223 223 223 0 224 0 0 224 0 0 224 0 0 224 0 0 224 0 0 224 0 0 225 0 0 225 0 0 225 0 225 225 225 225 225 225 225 225 225 225 225 225 225 225 225 225 225 225 225 225 225 225 225 225 225 225 225 225 225 225 225 225 225 225 225 225 0 225 0 0 225 0 0 225 0 0 225 0 0 225 0 0 91 0 0 90 0 0 90 0 0 90 0 0 89 0 89 89 89 89 89 89 88 88 88 88 88 88 88 88 88 87 87 87 87 87 87 86 86 86 86 86 86 86 86 86 85 85 85 85 85 85 0 85 0 0 84 0 0 84 0 0 83 0 0 83 0 0 83 0 0 82 0 0 82 0 0 81 0 81 81 81 81 81 81 80 80 80 80 80 80 79 79 79 79 79 79 78 78 78 0 78 0 0 77 0 0 77 0 0 77 0 0 76 0 0 76 0 0 75 0 0 0 118 0 0 131 0 0 131 0 0 126 117 0 117 106 0 106 92 0 92 72 0 72 0 71 0 0 70 0 0 213 0 0 213 0 0 214 0 0 215 0 0 215 0 216 216 216 217 217 217 217 217 217 218 218 218 218 218 218 0 219 0 0 219 0 0 220 0 0 220 0 0 220 0 0 221 0 0 221 0 221 221 221 222 222 222 222 222 222 222 222 222 222 222 222 223 223 223 223 223 223 0 223 0 0 223 0 0 223 0 0 224 0 0 224 0 0 224 0 0 224 0 0 224 0 0 224 0 224 224 224 224 224 224 224 224 224 225 225 225 225 225 225 225 225 225 225 225 225 225 225 225 225 225 225 225 225 225 225 225 225 225 225 225 0 225 0 0 225 0 0 225 0 0 225 0 0 225 0 0 91 0 0 90 0 0 90 0 0 90 0 0 89 0 89 89 89 88 88 88 88 88 88 88 88 88 87 87 87 87 87 87 87 87 87 86 86 86 86 86 86 86 86 86 85 85 85 85 85 85 0 84 0 0 84 0 0 84 0 0 83 0 0 83 0 0 82 0 0 82 0 0 82 0 0 81 0 81 81 81 80 80 80 80 80 80 79 79 79 79 79 79 79 79 79 78 78 78 0 78 0 0 77 0 0 77 0 0 76 0 0 76 0 135 0 135 0 0 155 158 0 158 156 0 156 152 0 152 145 0 145 0 0 136 0 0 126 0 0 114 0 0 99 81 0 81 57 0 57 0 153 0 0 152 0 0 213 0 0 214 0 0 215 0 215 215 215 216 216 216 216 216 216 217 217 217 217 217 217 0 218 0 0 218 0 0 219 0 0 219 0 0 220 0 0 220 0 0 220 0 221 221 221 221 221 221 221 221 221 221 221 221 222 222 222 222 222 222 222 222 222 0 222 0 0 223 0 0 223 0 0 223 0 0 223 0 0 223 0 0 223 0 0 223 0 0 224 0 224 224 224 224 224 224 224 224 224 224 224 224 224 224 224 224 224 224 224 224 224 224 224 224 224 224 224 224 224 224 224 224 224 224 224 224 0 224 0 0 224 0 0 224 0 0 224 0 0 224 0 0 90 0 0 90 0 0 90 0 0 89 0 0 89 0 89 89 89 88 88 88 88 88 88 88 88 88 87 87 87 87 87 87 87 87 87 86 86 86 86 86 86 85 85 85 85 85 85 85 85 85 0 84 0 0 84 0 0 83 0 0 83 0 0 83 0 0 82 0 0 82 0 0 81 0 0 81 0 81 81 81 80 80 80 80 80 80 79 79 79 79 79 79 78 78 78 78 78 78 0 78 0 0 77 0 0 77 0 0 76 0 159 0 159 171 0 171 174 0 174 173 0 173 169 0 169 164 0 164 156 0 156 0 0 148 0 0 138 0 0 126 0 0 113 0 0 98 0 0 79 0 0 56 0 0 26 0 153 0 0 153 0 0 153 0 214 214 214 215 215 215 216 216 216 216 216 216 217 217 217 0 217 0 0 218 0 0 218 0 0 218 0 0 219 0 0 219 0 0 220 0 220 220 220 220 220 220 220 220 220 221 221 221 221 221 221 221 221 221 221 221 221 0 222 0 0 222 0 0 222 0 0 222 0 0 222 0 0 223 0 0 223 0 0 223 0 0 223 0 223 223 223 223 223 223 223 223 223 223 223 223 223 223 223 223 223 223 224 224 224 224 224 224 224 224 224 224 224 224 224 224 224 224 224 224 0 224 0 0 224 0 0 224 0 0 224 0 0 224 0 0 90 0 0 90 0 0 90 0 0 89 0 0 89 0 88 88 88 88 88 88 88 88 88 87 87 87 87 87 87 87 87 87 86 86 86 86 86 86 86 86 86 85 85 85 85 85 85 84 84 84 0 84 0 0 84 0 0 83 0 0 83 0 0 82 0 0 82 0 0 82 0 0 81 0 0 81 0 80 80 80 80 80 80 80 80 80 79 79 79 79 79 79 78 78 78 78 78 78 0 77 0 0 77 0 0 76 0 0 0 167 0 0 181 185 0 185 184 0 184 182 0 182 177 0 177 171 0 171 164 0 164 0 0 156 0 0 146 0 0 135 0 0 122 0 0 108 0 0 91 72 0 72 47 0 47 0 0 26 0 155 0 0 154 0 0 154 0 0 153 0 215 215 215 215 215 215 216 216 216 216 216 216 0 217 0 0 217 0 0 218 0 0 218 0 0 218 0 0 219 0 219 219 219 219 219 219 220 220 220 220 220 220 220 220 220 221 221 221 221 221 221 0 221 0 0 221 0 0 221 0 0 222 0 0 222 0 0 222 0 0 222 0 0 222 0 0 222 0 222 222 222 223 223 223 223 223 223 223 223 223 223 223 223 223 223 223 223 223 223 223 223 223 223 223 223 223 223 223 223 223 223 223 223 223 0 223 0 0 223 0 0 223 0 0 223 0 0 223 0 0 90 0 0 90 0 0 89 0 0 89 0 0 89 0 0 88 0 88 88 88 88 88 88 87 87 87 87 87 87 86 86 86 86 86 86 86 86 86 85 85 85 85 85 85 85 85 85 84 84 84 0 84 0 0 83 0 0 83 0 0 83 0 0 82 0 0 82 0 0 81 0 0 81 0 0 81 0 80 80 80 80 80 80 79 79 79 79 79 79 78 78 78 78 78 78 78 78 78 0 77 0 0 77 0 0 0 165 0 0 185 0 0 191 193 0 193 191 0 191 188 0 188 183 0 183 177 0 177 169 0 169 0 0 161 0 0 151 0 0 140 0 0 128 0 0 114 0 0 99 81 0 81 60 0 60 33 0 33 156 156 156 156 156 156 155 155 155 155 155 155 154 154 154 154 154 154 153 153 153 0 216 0 0 216 0 0 216 0 0 217 0 0 217 0 0 218 0 0 218 0 218 218 218 219 219 219 219 219 219 219 219 219 220 220 220 220 220 220 220 220 220 0 220 0 0 221 0 0 221 0 0 221 0 0 221 0 0 221 0 0 221 0 0 222 0 0 222 0 222 222 222 222 222 222 222 222 222 222 222 222 222 222 222 222 222 222 222 222 222 222 222 222 223 223 223 223 223 223 223 223 223 0 223 0 0 223 0 0 223 0 0 223 0 0 223 0 0 223 0 0 90 0 0 89 0 0 89 0 0 89 0 0 88 0 0 88 0 88 88 88 87 87 87 87 87 87 87 87 87 86 86 86 86 86 86 86 86 86 85 85 85 85 85 85 84 84 84 84 84 84 0 84 0 0 83 0 0 83 0 0 82 0 0 82 0 0 82 0 0 81 0 0 81 0 0 80 0 80 80 80 80 80 80 79 79 79 79 79 79 78 78 78 78 78 78 77 77 77 0 77 0 0 76 0 0 0 185 0 0 195 0 0 198 198 0 198 196 0 196 0 0 192 0 0 187 0 0 180 0 0 173 164 0 164 155 0 155 144 0 144 0 0 132 0 0 119 0 0 104 87 0 87 68 0 68 45 0 45 26 0 26 157 157 157 157 157 157 156 156 156 156 156 156 155 155 155 155 155 155 154 154 154 154 154 154 0 216 0 0 216 0 0 217 0 0 217 0 0 217 0 218 218 218 218 218 218 218 218 218 219 219 219 219 219 219 219 219 219 219 219 219 0 220 0 0 220 0 0 220 0 0 220 0 0 220 0 0 221 0 0 221 0 0 221 0 0 221 0 221 221 221 221 221 221 221 221 221 222 222 222 222 222 222 222 222 222 222 222 222 222 222 222 222 222 222 222 222 222 222 222 222 0 222 0 0 222 0 0 222 0 0 222 0 0 222 0 0 222 0 0 90 0 0 89 0 0 89 0 0 89 0 0 88 0 0 88 0 88 88 88 87 87 87 87 87 87 86 86 86 86 86 86 86 86 86 85 85 85 85 85 85 85 85 85 84 84 84 84 84 84 0 83 0 0 83 0 0 83 0 0 82 0 0 82 0 0 81 0 0 81 0 0 81 0 0 80 0 80 80 80 79 79 79 79 79 79 78 78 78 78 78 78 78 78 78 77 77 77 0 77 0 0 0 174 0 0 193 0 0 200 0 0 202 0 0 201 0 0 198 0 0 194 0 0 189 0 0 182 0 0 175 166 0 166 157 0 157 146 0 146 134 0 134 122 0 122 107 0 107 91 0 91 73 0 73 51 0 51 26 0 26 26 0 26 158 158 158 158 158 158 157 157 157 157 157 157 156 156 156 155 155 155 155 155 155 154 154 154 154 154 154 0 216 0 0 216 0 0 216 0 217 217 217 217 217 217 218 218 218 218 218 218 218 218 218 218 218 218 219 219 219 0 219 0 0 219 0 0 219 0 0 220 0 0 220 0 0 220 0 0 220 0 0 220 0 0 220 0 221 221 221 221 221 221 221 221 221 221 221 221 221 221 221 221 221 221 221 221 221 221 221 221 221 221 221 221 221 221 221 221 221 0 222 0 0 222 0 0 222 0 0 222 0 0 222 0 0 222 0 0 89 0 0 89 0 0 89 0 0 88 0 0 88 0 0 88 0 87 87 87 87 87 87 87 87 87 86 86 86 86 86 86 86 86 86 85 85 85 85 85 85 84 84 84 84 84 84 84 84 84 0 83 0 0 83 0 0 82 0 0 82 0 0 82 0 0 81 0 0 81 0 0 80 0 0 80 0 80 80 80 79 79 79 79 79 79 78 78 78 78 78 78 77 77 77 77 77 77 170 170 170 0 0 185 0 0 198 0 0 202 204 0 204 0 0 202 0 0 199 0 0 195 0 0 189 0 0 183 0 0 175 167 0 167 157 0 157 147 0 147 135 0 135 123 0 123 109 0 109 0 0 93 76 0 76 55 0 55 30 0 30 0 0 26 0 26 0 0 26 0 26 26 26 26 26 26 26 26 26 26 26 26 26 26 26 26 26 26 155 155 155 155 155 155 154 154 154 154 154 154 216 216 216 216 216 216 217 217 217 217 217 217 217 217 217 218 218 218 218 218 218 0 218 0 0 218 0 0 219 0 0 219 0 0 219 0 0 219 0 0 219 0 0 220 0 0 220 0 220 220 220 220 220 220 220 220 220 220 220 220 220 220 220 220 220 220 221 221 221 221 221 221 221 221 221 221 221 221 221 221 221 0 221 0 0 221 0 0 221 0 0 221 0 0 221 0 0 221 0 0 89 0 0 89 0 0 89 0 0 88 0 0 88 0 0 87 0 87 87 87 87 87 87 86 86 86 86 86 86 86 86 86 85 85 85 85 85 85 85 85 85 84 84 84 84 84 84 83 83 83 0 83 0 0 83 0 0 82 0 0 82 0 0 81 0 0 81 0 0 81 0 0 80 0 0 80 0 79 79 79 79 79 79 78 78 78 78 78 78 78 78 78 172 172 172 172 172 172 171 171 171 189 0 189 0 0 199 203 0 203 0 0 204 0 0 202 0 0 199 2 2 197 1 1 190 0 0 182 0 0 175 166 0 166 157 0 157 147 0 147 135 0 135 123 0 123 109 0 109 0 0 94 0 0 76 57 0 57 0 0 33 0 0 26 0 26 0 0 26 0 0 26 0 0 26 0 0 26 0 0 26 0 0 26 0 26 26 26 26 26 26 26 26 26 156 156 156 155 155 155 155 155 155 154 154 154 216 216 216 216 216 216 217 217 217 217 217 217 217 217 217 0 217 0 0 218 0 0 218 0 0 218 0 0 218 0 0 219 0 0 219 0 0 219 0 0 219 0 219 219 219 219 219 219 220 220 220 220 220 220 220 220 220 220 220 220 220 220 220 220 220 220 220 220 220 220 220 220 220 220 220 0 220 0 0 220 0 0 220 0 0 221 0 0 221 0 0 221 0 0 89 0 0 89 0 0 88 0 0 88 0 0 88 0 0 87 0 87 87 87 87 87 87 86 86 86 86 86 86 85 85 85 85 85 85 85 85 85 84 84 84 84 84 84 84 84 84 83 83 83 0 83 0 0 82 0 0 82 0 0 82 0 0 81 0 0 81 0 0 80 0 0 80 0 0 80 0 79 79 79 79 79 79 175 175 175 174 174 174 174 174 174 173 173 173 173 173 173 160 0 160 190 0 190 0 0 199 202 0 202 0 0 203 0 0 201 0 0 198 58 58 251 14 14 202 0 0 181 0 0 173 165 0 165 156 0 156 145 0 145 134 0 134 122 0 122 108 0 108 0 0 93 0 0 76 56 0 56 0 0 33 0 0 26 0 26 0 0 26 0 0 26 0 0 26 0 0 26 0 0 26 0 0 26 0 0 26 0 0 26 0 0 26 0 26 26 26 156 156 156 156 156 156 155 155 155 155 155 155 154 154 154 154 154 154 216 216 216 216 216 216 0 217 0 0 217 0 0 217 0 0 217 0 0 218 0 0 218 0 0 218 0 0 218 0 0 218 0 219 219 219 219 219 219 219 219 219 219 219 219 219 219 219 219 219 219 219 219 219 219 219 219 220 220 220 220 220 220 220 220 220 0 220 0 0 220 0 0 220 0 0 220 0 0 220 0 0 220 0 0 89 0 0 88 0 0 88 0 0 88 0 0 87 0 0 87 0 87 87 87 86 86 86 86 86 86 86 86 86 85 85 85 85 85 85 85 85 85 84 84 84 84 84 84 83 83 83 83 83 83 0 83 0 0 82 0 0 82 0 0 81 0 0 81 0 0 81 0 0 80 0 0 80 0 0 79 0 177 177 177 176 176 176 176 176 176 176 176 176 175 175 175 175 175 175 0 174 0 162 0 162 0 0 189 0 0 197 0 0 200 200 0 200 0 0 199 0 0 195 4 4 195 1 1 186 0 0 179 0 0 171 163 0 163 153 0 153 143 0 143 132 0 132 119 0 119 106 0 106 91 0 91 74 0 74 55 0 55 0 0 32 0 0 26 0 26 0 0 26 0 0 26 0 0 26 0 0 26 0 0 26 0 0 26 0 0 26 0 0 26 0 0 26 0 0 26 0 0 157 0 0 157 0 156 156 156 156 156 156 155 155 155 155 155 155 154 154 154 154 154 154 0 216 0 0 216 0 0 216 0 0 217 0 0 217 0 0 217 0 0 217 0 0 218 0 0 218 0 218 218 218 218 218 218 218 218 218 218 218 218 218 218 218 219 219 219 219 219 219 219 219 219 219 219 219 219 219 219 219 219 219 0 219 0 0 219 0 0 219 0 0 219 0 0 219 0 0 219 0 0 89 0 0 88 0 0 88 0 0 88 0 0 87 0 0 87 0 0 87 0 86 86 86 86 86 86 85 85 85 85 85 85 85 85 85 84 84 84 84 84 84 84 84 84 83 83 83 83 83 83 82 82 82 0 82 0 0 82 0 0 81 0 0 81 0 0 80 0 0 80 0 179 179 179 178 178 178 178 178 178 178 178 178 177 177 177 177 177 177 0 176 0 0 176 0 0 175 0 157 0 157 0 0 185 0 0 193 0 0 197 197 0 197 195 0 195 192 0 192 187 0 187 182 0 182 175 0 175 168 0 168 0 0 159 0 0 150 0 0 140 0 0 128 0 0 116 0 0 102 87 0 87 70 0 70 51 0 51 28 0 28 0 0 26 0 26 0 0 26 0 0 26 0 0 26 0 0 26 0 0 26 0 0 26 0 0 26 0 0 26 0 0 26 0 0 26 0 0 159 0 0 158 0 0 158 0 0 157 0 157 157 157 156 156 156 156 156 156 155 155 155 154 154 154 154 154 154 0 216 0 0 216 0 0 216 0 0 216 0 0 217 0 0 217 0 217 217 217 217 217 217 217 217 217 218 218 218 218 218 218 218 218 218 218 218 218 218 218 218 218 218 218 218 218 218 218 218 218 0 218 0 0 219 0 0 219 0 0 219 0 0 219 0 0 219 0 0 219 0 0 88 0 0 88 0 0 88 0 0 87 0 0 87 0 0 87 0 0 86 0 86 86 86 86 86 86 85 85 85 85 85 85 84 84 84 84 84 84 84 84 84 83 83 83 83 83 83 83 83 83 82 82 82 0 82 0 0 81 0 0 81 0 181 181 181 181 181 181 180 180 180 180 180 180 180 180 180 179 179 179 179 179 179 0 178 0 0 178 0 0 177 0 0 177 0 0 177 0 0 176 0 0 0 178 0 0 188 0 0 192 192 0 192 191 0 191 187 0 187 183 0 183 177 0 177 171 0 171 163 0 163 0 0 155 0 0 146 0 0 135 0 0 124 0 0 112 0 0 98 83 0 83 66 0 66 46 0 46 26 0 26 0 0 26 26 26 26 26 26 26 26 26 26 26 26 26 0 26 0 0 26 0 0 26 0 0 26 0 0 26 0 0 26 0 0 26 0 0 160 0 0 159 0 0 159 0 0 158 0 0 158 0 0 157 0 157 157 157 156 156 156 156 156 156 155 155 155 155 155 155 154 154 154 154 154 154 0 216 0 0 216 0 0 216 0 216 216 216 216 216 216 217 217 217 217 217 217 217 217 217 217 217 217 217 217 217 217 217 217 217 217 217 218 218 218 218 218 218 0 218 0 0 218 0 0 218 0 0 218 0 0 218 0 0 218 0 0 218 0 0 88 0 0 88 0 0 87 0 0 87 0 0 87 0 0 86 0 0 86 0 86 86 86 85 85 85 85 85 85 85 85 85 84 84 84 84 84 84 83 83 83 83 83 83 83 83 83 82 82 82 82 82 82 0 81 0 183 183 183 183 183 183 182 182 182 182 182 182 182 182 182 181 181 181 181 181 181 180 180 180 0 180 0 0 180 0 0 179 0 0 179 0 0 178 0 0 178 0 0 177 0 0 0 169 0 0 180 0 0 185 0 0 186 185 0 185 182 0 182 178 0 178 172 0 172 166 0 166 158 0 158 0 0 150 0 0 140 0 0 130 0 0 119 0 0 106 0 0 92 77 0 77 60 0 60 40 0 40 26 0 26 0 0 26 26 26 26 26 26 26 26 26 26 26 26 26 26 26 26 26 26 26 26 26 26 0 26 0 0 26 0 0 26 0 0 161 0 0 161 0 0 160 0 0 160 0 0 159 0 0 159 0 0 158 0 0 158 0 157 157 157 157 157 157 156 156 156 156 156 156 155 155 155 155 155 155 154 154 154 154 154 154 0 215 0 216 216 216 216 216 216 216 216 216 216 216 216 216 216 216 216 216 216 217 217 217 217 217 217 217 217 217 217 217 217 217 217 217 0 217 0 0 217 0 0 217 0 0 217 0 0 218 0 0 218 0 0 218 0 0 88 0 0 88 0 0 87 0 0 87 0 0 87 0 0 86 0 0 86 0 0 85 0 85 85 85 85 85 85 84 84 84 84 84 84 84 84 84 83 83 83 83 83 83 82 82 82 82 82 82 185 185 185 185 185 185 184 184 184 184 184 184 184 184 184 183 183 183 183 183 183 182 182 182 0 182 0 0 181 0 0 181 0 0 181 0 0 180 0 0 180 0 0 179 0 0 179 0 0 178 0 155 0 155 0 0 171 0 0 177 0 0 178 178 0 178 175 0 175 171 0 171 166 0 166 159 0 159 152 0 152 0 0 143 0 0 134 0 0 124 0 0 112 0 0 100 0 0 86 70 0 70 52 0 52 31 0 31 26 0 26 26 0 26 26 26 26 26 26 26 26 26 26 26 26 26 26 26 26 26 26 26 26 26 26 26 26 26 26 26 26 0 26 0 0 162 0 0 162 0 0 161 0 0 161 0 0 160 0 0 160 0 0 159 0 0 159 0 0 158 0 0 158 0 157 157 157 157 157 157 156 156 156 156 156 156 155 155 155 155 155 155 154 154 154 154 154 154 215 215 215 215 215 215 215 215 215 216 216 216 216 216 216 216 216 216 216 216 216 216 216 216 216 216 216 0 216 0 0 217 0 0 217 0 0 217 0 0 217 0 0 217 0 0 217 0 0 217 0 0 88 0 0 87 0 0 87 0 0 87 0 0 86 0 0 86 0 0 86 0 0 85 0 85 85 85 85 85 85 84 84 84 84 84 84 83 83 83 83 83 83 187 187 187 187 187 187 187 187 187 186 186 186 186 186 186 185 185 185 185 185 185 185 185 185 184 184 184 184 184 184 0 183 0 0 183 0 0 183 0 0 182 0 0 182 0 0 181 0 0 181 0 0 180 0 0 180 0 0 179 0 0 0 129 158 0 158 0 0 166 0 0 169 169 0 169 167 0 167 163 0 163 158 0 158 152 0 152 144 0 144 0 0 136 0 0 126 0 0 116 0 0 104 0 0 92 0 0 77 61 0 61 42 0 42 0 0 26 0 0 26 26 26 26 26 26 26 26 26 26 26 26 26 26 26 26 26 26 26 26 26 26 26 26 26 26 26 26 26 26 26 164 164 164 0 163 0 0 163 0 0 162 0 0 162 0 0 161 0 0 161 0 0 160 0 0 160 0 0 159 0 0 159 0 0 158 0 158 158 158 157 157 157 157 157 157 156 156 156 156 156 156 155 155 155 155 155 155 154 154 154 154 154 154 153 153 153 215 215 215 215 215 215 215 215 215 215 215 215 216 216 216 216 216 216 0 216 0 0 216 0 0 216 0 0 216 0 0 216 0 0 216 0 0 216 0 0 216 0 0 87 0 0 87 0 0 87 0 0 86 0 0 86 0 0 86 0 0 85 0 0 85 0 85 85 85 84 84 84 84 84 84 84 84 84 0 189 0 189 189 189 188 188 188 188 188 188 188 188 188 187 187 187 187 187 187 186 186 186 186 186 186 186 186 186 185 185 185 0 185 0 0 184 0 0 184 0 0 184 0 0 183 0 0 183 0 0 182 0 0 182 0 0 181 0 0 181 0 180 180 180 180 180 180 139 0 139 152 0 152 157 0 157 158 0 158 157 0 157 153 0 153 149 0 149 143 0 143 135 0 135 0 0 127 0 0 118 0 0 107 0 0 95 0 0 82 0 0 67 0 0 50 0 0 30 0 0 26 0 0 26 26 26 26 26 26 26 26 26 26 26 26 26 26 26 26 26 26 26 26 26 26 26 26 26 26 26 26 165 165 165 165 165 165 164 164 164 91 0 91 0 0 96 79 0 79 0 162 0 0 162 0 0 161 0 0 161 0 0 160 0 0 160 0 0 159 0 0 159 0 158 158 158 158 158 158 157 157 157 157 157 157 156 156 156 156 156 156 155 155 155 155 155 155 154 154 154 154 154 154 0 153 0 215 215 215 215 215 215 215 215 215 215 215 215 0 215 0 0 215 0 0 215 0 0 215 0 0 216 0 0 216 0 0 216 0 0 216 0 0 87 0 0 87 0 0 87 0 0 86 0 0 86 0 0 85 0 0 85 0 0 85 0 0 84 0 0 191 0 0 191 0 0 190 0 190 190 190 190 190 190 189 189 189 189 189 189 189 189 189 188 188 188 188 188 188 187 187 187 187 187 187 187 187 187 0 186 0 0 186 0 0 185 0 0 185 0 0 184 0 0 184 0 0 184 0 0 183 0 0 183 0 0 182 0 182 182 182 181 181 181 181 181 181 180 180 180 133 0 133 142 0 142 0 0 145 0 0 145 0 0 142 0 0 138 132 0 132 125 0 125 0 0 116 107 0 107 96 0 96 84 0 84 70 0 70 55 0 55 0 0 37 0 0 26 0 0 26 0 26 0 0 26 0 0 26 0 26 26 26 26 26 26 26 26 26 26 26 26 26 26 26 26 26 26 167 167 167 166 166 166 133 0 133 0 0 152 0 0 154 0 0 147 0 0 133 112 0 112 80 0 80 0 162 0 0 162 0 0 161 0 0 161 0 0 160 0 0 160 0 0 159 0 159 159 159 158 158 158 158 158 158 157 157 157 157 157 157 156 156 156 156 156 156 155 155 155 155 155 155 154 154 154 0 154 0 0 153 0 0 153 0 0 214 0 0 214 0 0 215 0 0 215 0 0 215 0 0 215 0 0 215 0 0 215 0 0 215 0 0 87 0 0 87 0 0 86 0 0 86 0 0 86 0 0 85 0 0 85 0 0 193 0 0 192 0 0 192 0 0 192 0 191 191 191 191 191 191 191 191 191 190 190 190 190 190 190 190 190 190 189 189 189 189 189 189 188 188 188 188 188 188 0 188 0 0 187 0 0 187 0 0 186 0 0 186 0 0 185 0 0 185 0 0 184 0 0 184 0 0 184 0 183 183 183 183 183 183 182 182 182 182 182 182 181 181 181 181 181 181 121 0 121 0 0 128 0 0 129 0 0 128 0 0 124 0 0 119 0 0 112 104 0 104 94 0 94 83 0 83 70 0 70 56 0 56 39 0 39 0 0 26 0 0 26 0 26 0 0 26 0 0 26 0 0 26 0 0 26 0 0 26 0 26 26 26 26 26 26 26 26 26 168 168 168 168 168 168 151 0 151 174 0 174 0 0 180 178 0 178 170 0 170 156 0 156 0 0 138 0 0 113 0 0 78 0 0 26 0 162 0 0 162 0 0 161 0 0 161 0 0 160 0 0 160 0 159 159 159 159 159 159 158 158 158 158 158 158 157 157 157 157 157 157 156 156 156 156 156 156 155 155 155 155 155 155 0 154 0 0 154 0 0 153 0 0 153 0 0 214 0 0 214 0 0 214 0 0 214 0 0 214 0 0 214 0 0 215 0 0 87 0 0 86 0 0 86 0 0 86 0 0 85 0 0 194 0 0 194 0 0 194 0 0 193 0 0 193 0 193 193 193 192 192 192 192 192 192 192 192 192 191 191 191 191 191 191 190 190 190 190 190 190 190 190 190 189 189 189 0 189 0 0 188 0 0 188 0 0 188 0 0 187 0 0 187 0 0 186 0 0 186 0 0 185 0 0 185 0 184 184 184 184 184 184 184 184 184 183 183 183 183 183 183 182 182 182 182 182 182 181 181 181 0 0 102 0 0 109 0 0 110 0 0 107 0 0 103 0 0 96 88 0 88 78 0 78 67 0 67 53 0 53 37 0 37 26 0 26 0 0 26 0 26 0 0 26 0 0 26 0 0 26 0 0 26 0 0 26 0 0 26 0 0 26 0 170 170 170 170 170 170 169 169 169 0 0 133 0 0 180 0 0 192 0 0 195 191 0 191 182 0 182 169 0 169 0 0 152 0 0 129 0 0 100 58 0 58 0 26 0 0 26 0 0 26 0 0 26 0 0 161 0 0 160 0 0 160 0 159 159 159 159 159 159 158 158 158 158 158 158 157 157 157 157 157 157 156 156 156 156 156 156 155 155 155 155 155 155 0 154 0 0 154 0 0 154 0 0 153 0 0 153 0 0 213 0 0 214 0 0 214 0 0 214 0 0 214 0 0 87 0 0 86 0 0 196 0 0 196 0 0 196 0 0 195 0 0 195 0 0 195 0 0 194 0 194 194 194 194 194 194 193 193 193 193 193 193 193 193 193 192 192 192 192 192 192 191 191 191 191 191 191 191 191 191 190 190 190 0 190 0 0 189 0 0 189 0 0 188 0 0 188 0 0 188 0 0 187 0 0 187 0 0 186 0 0 186 0 185 185 185 185 185 185 184 184 184 184 184 184 183 183 183 183 183 183 182 182 182 182 182 182 181 181 181 72 0 72 0 0 83 0 0 84 0 0 81 0 0 75 67 0 67 57 0 57 45 0 45 29 0 29 26 0 26 0 0 26 0 26 0 0 26 0 0 26 0 0 26 0 0 26 0 0 26 0 0 26 0 0 172 0 0 171 0 0 171 0 170 170 170 170 170 170 0 0 165 0 0 192 0 0 201 0 0 202 197 0 197 0 0 189 0 0 176 159 0 159 138 0 138 0 0 110 74 0 74 26 0 26 0 26 0 0 26 0 0 26 0 0 26 0 0 161 0 0 161 0 160 160 160 160 160 160 159 159 159 159 159 159 158 158 158 158 158 158 157 157 157 157 157 157 156 156 156 156 156 156 155 155 155 0 155 0 0 154 0 0 154 0 0 153 0 0 153 0 0 152 0 0 152 0 0 213 0 0 213 0 0 198 0 0 198 0 0 197 0 0 197 0 0 197 0 0 196 0 0 196 0 0 196 0 195 195 195 195 195 195 194 194 194 194 194 194 194 194 194 193 193 193 193 193 193 193 193 193 192 192 192 192 192 192 191 191 191 0 191 0 0 191 0 0 190 0 0 190 0 0 189 0 0 189 0 0 188 0 0 188 0 0 187 0 0 187 0 187 187 187 186 186 186 186 186 186 185 185 185 185 185 185 184 184 184 184 184 184 183 183 183 183 183 183 182 182 182 182 182 182 0 181 0 0 181 0 42 0 42 41 0 41 0 0 34 0 0 26 0 0 26 0 26 0 0 26 0 0 26 0 0 26 0 0 26 0 0 26 0 0 26 0 0 174 0 0 174 0 0 173 0 0 173 0 0 172 0 0 172 0 171 171 171 171 171 171 173 0 173 195 0 195 0 0 203 203 0 203 25 25 224 0 0 190 0 0 177 161 0 161 140 0 140 114 0 114 0 0 80 29 0 29 0 26 0 0 26 0 0 26 0 0 26 0 0 26 0 0 162 0 0 161 0 161 161 161 160 160 160 160 160 160 159 159 159 159 159 159 158 158 158 158 158 158 157 157 157 157 157 157 156 156 156 156 156 156 0 155 0 0 155 0 0 154 0 0 154 0 0 153 0 0 153 0 0 152 0 0 152 0 0 199 0 0 198 0 0 198 0 0 198 0 0 197 0 0 197 0 0 197 0 0 196 0 196 196 196 196 196 196 195 195 195 195 195 195 195 195 195 194 194 194 194 194 194 193 193 193 193 193 193 193 193 193 0 192 0 0 192 0 0 191 0 0 191 0 0 190 0 0 190 0 0 190 0 0 189 0 0 189 0 0 188 0 0 188 0 187 187 187 0 0 147 133 0 133 103 0 103 58 0 58 185 185 185 184 184 184 184 184 184 184 184 184 183 183 183 0 183 0 0 182 0 0 182 0 0 181 0 0 181 0 0 180 0 0 180 0 0 26 0 0 26 0 0 26 0 0 178 0 0 177 0 0 177 0 0 176 0 0 176 0 0 175 0 0 175 0 0 174 0 0 174 0 0 173 0 0 173 0 0 172 0 172 172 172 171 0 171 192 0 192 0 0 200 201 0 201 1 1 197 0 0 187 0 0 175 159 0 159 138 0 138 113 0 113 0 0 79 30 0 30 0 26 0 0 26 0 0 26 0 0 26 0 0 26 0 0 162 0 0 162 0 0 161 0 161 161 161 160 160 160 160 160 160 159 159 159 159 159 159 159 159 159 158 158 158 158 158 158 157 157 157 157 157 157 0 156 0 0 156 0 0 155 0 0 155 0 0 154 0 0 154 0 0 153 0 0 153 0 0 200 0 0 199 0 0 199 0 0 199 0 0 198 0 0 198 0 0 198 0 197 197 197 197 197 197 196 196 196 196 196 196 196 196 196 195 195 195 195 195 195 195 195 195 194 194 194 194 194 194 193 193 193 0 193 0 0 192 0 0 192 0 0 192 0 0 191 0 0 191 0 0 190 0 0 190 0 0 189 0 0 189 0 188 188 188 185 0 185 177 0 177 0 0 157 0 0 128 89 0 89 0 0 35 185 185 185 26 26 26 26 26 26 26 26 26 0 183 0 0 183 0 0 182 0 0 182 0 0 181 0 0 181 0 0 180 0 0 180 0 0 179 0 0 179 0 0 178 0 0 178 0 0 177 0 0 177 0 0 176 0 0 176 0 0 175 0 0 175 0 0 174 0 0 174 0 0 173 0 0 173 0 172 172 172 158 0 158 0 0 183 0 0 192 0 0 193 189 0 189 181 0 181 0 0 168 152 0 152 0 0 132 0 0 106 72 0 72 26 0 26 0 26 0 0 26 0 0 26 0 0 26 0 0 26 0 0 163 0 0 163 0 0 162 0 162 162 162 161 161 161 161 161 161 160 160 160 160 160 160 159 159 159 159 159 159 158 158 158 158 158 158 157 157 157 157 157 157 0 156 0 0 156 0 0 155 0 0 155 0 0 155 0 0 154 0 0 154 0 0 200 0 0 200 0 0 200 0 0 199 0 0 199 0 0 199 0 198 198 198 198 198 198 198 198 198 197 197 197 197 197 197 196 196 196 196 196 196 196 196 196 195 195 195 195 195 195 194 194 194 0 194 0 0 194 0 0 193 0 0 193 0 0 192 0 0 192 0 0 191 0 0 191 0 0 191 0 0 190 0 0 190 0 0 0 194 200 0 200 188 0 188 0 0 166 0 0 137 99 0 99 51 0 51 26 0 26 26 26 26 26 26 26 26 26 26 0 26 0 0 183 0 0 183 0 0 182 0 0 182 0 0 182 0 0 181 0 0 181 0 0 180 0 0 180 0 0 179 0 0 179 0 0 178 0 0 178 0 0 177 0 0 177 0 0 176 0 0 176 0 0 175 0 0 175 0 0 174 0 0 174 0 173 173 173 0 0 131 0 0 167 0 0 179 0 0 181 178 0 178 170 0 170 157 0 157 0 0 141 0 0 120 0 0 94 58 0 58 26 0 26 0 26 0 0 26 0 0 26 0 0 26 0 0 165 0 0 164 0 0 164 0 0 163 0 0 163 0 162 162 162 162 162 162 161 161 161 161 161 161 160 160 160 160 160 160 159 159 159 159 159 159 158 158 158 158 158 158 157 157 157 0 157 0 0 156 0 0 156 0 0 155 0 0 155 0 0 154 0 0 201 0 0 201 0 0 200 0 0 200 0 0 200 0 0 199 0 199 199 199 199 199 199 198 198 198 198 198 198 198 198 198 197 197 197 197 197 197 196 196 196 196 196 196 196 196 196 195 195 195 0 195 0 0 194 0 0 194 0 0 193 0 0 193 0 0 193 0 0 192 0 0 192 0 0 191 0 0 191 0 0 190 0 201 0 201 0 0 201 41 41 229 166 0 166 136 0 136 0 0 99 0 0 52 0 0 26 26 26 26 26 26 26 26 26 26 26 26 26 0 184 0 0 184 0 0 183 0 0 183 0 0 182 0 0 182 0 0 181 0 0 181 0 0 180 0 0 180 0 0 179 0 0 179 0 0 178 0 0 178 0 0 177 0 0 177 0 0 176 0 0 176 0 0 175 0 0 175 0 174 174 174 174 174 174 173 173 173 139 0 139 158 0 158 0 0 163 161 0 161 153 0 153 141 0 141 0 0 125 0 0 103 0 0 74 33 0 33 0 26 0 0 26 0 0 26 0 0 26 0 0 26 0 0 165 0 0 165 0 0 164 0 0 164 0 0 163 0 163 163 163 162 162 162 162 162 162 161 161 161 161 161 161 160 160 160 160 160 160 159 159 159 159 159 159 158 158 158 158 158 158 0 158 0 0 157 0 0 157 0 0 156 0 0 156 0 0 155 0 0 202 0 0 201 0 0 201 0 0 201 0 0 200 0 200 200 200 200 200 200 199 199 199 199 199 199 199 199 199 198 198 198 198 198 198 197 197 197 197 197 197 197 197 197 196 196 196 196 196 196 0 195 0 0 195 0 0 194 0 0 194 0 0 194 0 0 193 0 0 193 0 0 192 0 0 192 0 0 191 0 0 191 0 0 0 194 0 0 194 0 0 180 158 0 158 128 0 128 90 0 90 42 0 42 0 0 26 26 26 26 26 26 26 26 26 26 26 26 26 0 185 0 0 184 0 0 184 0 0 183 0 0 183 0 0 182 0 0 182 0 0 181 0 0 181 0 0 180 0 0 180 0 0 179 0 0 179 0 0 178 0 0 178 0 0 177 0 0 177 0 0 176 0 0 176 0 0 175 0 175 175 175 174 174 174 174 174 174 173 173 173 123 0 123 135 0 135 0 0 136 0 0 130 118 0 118 0 0 101 77 0 77 43 0 43 0 26 0 0 26 0 0 26 0 0 26 0 0 26 0 0 166 0 0 166 0 0 165 0 0 165 0 0 165 0 0 164 0 164 164 164 163 163 163 163 163 163 162 162 162 162 162 162 161 161 161 161 161 161 160 160 160 160 160 160 159 159 159 159 159 159 158 158 158 0 158 0 0 157 0 0 157 0 0 156 0 0 156 0 0 202 0 0 202 0 0 202 0 0 201 0 0 201 0 201 201 201 200 200 200 200 200 200 200 200 200 199 199 199 199 199 199 198 198 198 198 198 198 198 198 198 197 197 197 197 197 197 0 196 0 0 196 0 0 196 0 0 195 0 0 195 0 0 194 0 0 194 0 0 193 0 0 193 0 0 192 0 0 192 0 0 192 0 0 0 172 176 0 176 164 0 164 0 0 142 0 0 112 73 0 73 26 0 26 26 0 26 26 26 26 26 26 26 26 26 26 186 186 186 185 185 185 0 185 0 0 184 0 0 184 0 0 183 0 0 183 0 0 182 0 0 182 0 0 182 0 0 181 0 0 181 0 0 180 0 0 180 0 0 179 0 0 179 0 0 178 0 0 178 0 0 177 0 0 177 0 176 176 176 176 176 176 175 175 175 175 175 175 174 174 174 174 174 174 0 0 84 0 0 96 0 0 94 0 0 82 63 0 63 30 0 30 26 26 26 0 26 0 0 26 0 0 26 0 0 168 0 0 168 0 0 167 0 0 167 0 0 166 0 0 166 0 0 165 0 0 165 0 0 164 0 164 164 164 163 163 163 163 163 163 162 162 162 162 162 162 161 161 161 161 161 161 160 160 160 160 160 160 160 160 160 159 159 159 0 159 0 0 158 0 0 158 0 0 157 0 0 157 0 0 203 0 0 203 0 0 202 0 0 202 0 202 202 202 201 201 201 201 201 201 201 201 201 200 200 200 200 200 200 199 199 199 199 199 199 199 199 199 198 198 198 198 198 198 197 197 197 0 197 0 0 197 0 0 196 0 0 196 0 0 195 0 0 195 0 0 194 0 0 194 0 0 194 0 0 193 0 0 193 0 0 192 0 192 192 192 145 0 145 137 0 137 0 0 116 0 0 85 0 0 42 0 0 26 26 26 26 26 26 26 26 26 26 187 187 187 187 187 187 186 186 186 186 186 186 0 185 0 0 185 0 0 184 0 0 184 0 0 183 0 0 183 0 0 182 0 0 182 0 0 181 0 0 181 0 0 180 0 0 180 0 0 179 0 0 179 0 0 178 0 0 178 0 177 177 177 177 177 177 176 176 176 176 176 176 175 175 175 175 175 175 174 174 174 174 174 174 173 173 173 173 173 173 26 26 26 26 26 26 26 26 26 26 26 26 0 170 0 0 170 0 0 169 0 0 169 0 0 168 0 0 168 0 0 167 0 0 167 0 0 166 0 0 166 0 0 165 0 0 165 0 164 164 164 164 164 164 164 164 164 163 163 163 163 163 163 162 162 162 162 162 162 161 161 161 161 161 161 160 160 160 160 160 160 159 159 159 0 159 0 0 158 0 0 158 0 0 157 0 0 204 0 0 203 0 0 203 0 0 203 0 202 202 202 202 202 202 202 202 202 201 201 201 201 201 201 200 200 200 200 200 200 200 200 200 199 199 199 199 199 199 198 198 198 198 198 198 0 198 0 0 197 0 0 197 0 0 196 0 0 196 0 0 195 0 0 195 0 0 195 0 0 194 0 0 194 0 0 193 0 0 193 0 0 192 0 192 192 192 0 0 85 69 0 69 35 0 35 26 26 26 26 26 26 26 26 26 189 189 189 188 188 188 188 188 188 187 187 187 187 187 187 186 186 186 186 186 186 185 185 185 0 185 0 0 184 0 0 184 0 0 183 0 0 183 0 0 182 0 0 182 0 0 181 0 0 181 0 0 180 0 0 180 0 0 179 0 179 179 179 178 178 178 178 178 178 177 177 177 177 177 177 176 176 176 176 176 176 175 175 175 175 175 175 174 174 174 174 174 174 173 173 173 173 173 173 172 172 172 172 172 172 0 171 0 0 171 0 0 170 0 0 170 0 0 169 0 0 169 0 0 168 0 0 168 0 0 168 0 0 167 0 0 167 0 0 166 0 0 166 0 165 165 165 165 165 165 164 164 164 164 164 164 163 163 163 163 163 163 162 162 162 162 162 162 161 161 161 161 161 161 160 160 160 160 160 160 0 160 0 0 159 0 0 159 0 0 158 0 0 204 0 0 204 0 0 204 0 203 203 203 203 203 203 203 203 203 202 202 202 202 202 202 201 201 201 201 201 201 201 201 201 200 200 200 200 200 200 199 199 199 199 199 199 199 199 199 0 198 0 0 198 0 0 197 0 0 197 0 0 196 0 0 196 0 0 196 0 0 195 0 0 195 0 0 194 0 0 194 0 0 193 0 0 193 0 192 192 192 192 192 192 191 191 191 191 191 191 190 190 190 190 190 190 190 190 190 189 189 189 189 189 189 188 188 188 188 188 188 187 187 187 187 187 187 186 186 186 186 186 186 185 185 185 185 185 185 184 184 184 0 184 0 0 183 0 0 183 0 0 182 0 0 182 0 0 181 0 181 181 181 180 180 180 180 180 180 179 179 179 179 179 179 178 178 178 178 178 178 177 177 177 177 177 177 176 176 176 176 176 176 175 175 175 175 175 175 174 174 174 174 174 174 173 173 173 173 173 173 173 173 173 0 172 0 0 172 0 0 171 0 0 171 0 0 170 0 0 170 0 0 169 0 0 169 0 0 168 0 0 168 0 0 167 0 0 167 0 0 166 0 166 166 166 165 165 165 165 165 165 164 164 164 164 164 164 163 163 163 163 163 163 163 163 163 162 162 162 162 162 162 161 161 161 161 161 161 160 160 160 0 160 0 0 159 0 0 159 0 0 205 0 0 205 0 0 204 0 204 204 204 203 203 203 203 203 203 203 203 203 202 202 202 202 202 202 201 201 201 201 201 201 201 201 201 200 200 200 200 200 200 199 199 199 199 199 199 0 199 0 0 198 0 0 198 0 0 197 0 0 197 0 0 196 0 0 196 0 0 196 0 0 195 0 0 195 0 0 194 0 0 194 0 0 193 0 193 193 193 192 192 192 192 192 192 191 191 191 191 191 191 191 191 191 190 190 190 190 190 190 189 189 189 189 189 189 188 188 188 188 188 188 187 187 187 187 187 187 186 186 186 186 186 186 185 185 185 185 185 185 184 184 184 184 184 184 183 183 183 183 183 183 182 182 182 182 182 182 181 181 181 181 181 181 180 180 180 180 180 180 179 179 179 179 179 179 178 178 178 178 178 178 177 177 177 177 177 177 177 177 177 176 176 176 176 176 176 175 175 175 175 175 175 174 174 174 174 174 174 173 173 173 0 173 0 0 172 0 0 172 0 0 171 0 0 171 0 0 170 0 0 170 0 0 169 0 0 169 0 0 168 0 0 168 0 0 167 0 0 167 0 166 166 166 166 166 166 165 165 165 165 165 165 165 165 165 164 164 164 164 164 164 163 163 163 163 163 163 162 162 162 162 162 162 161 161 161 161 161 161 0 160 0 0 160 0 0 160 0 0 205 0 0 205 0 0 205 0 204 204 204 204 204 204 204 204 204 203 203 203 203 203 203 202 202 202 202 202 202 202 202 202 201 201 201 201 201 201 200 200 200 200 200 200 200 200 200 0 199 0 0 199 0 0 198 0 0 198 0 0 197 0 0 197 0 0 197 0 0 196 0 0 196 0 0 195 0 0 195 0 0 194 0 0 194 0 0 193 0 193 193 193 192 192 192 192 192 192 192 192 192 191 191 191 191 191 191 190 190 190 190 190 190 189 189 189 189 189 189 188 188 188 188 188 188 187 187 187 187 187 187 186 186 186 186 186 186 185 185 185 185 185 185 184 184 184 184 184 184 183 183 183 183 183 183 182 182 182 182 182 182 181 181 181 181 181 181 180 180 180 180 180 180 180 180 180 179 179 179 179 179 179 178 178 178 178 178 178 177 177 177 177 177 177 176 176 176 176 176 176 175 175 175 175 175 175 174 174 174 0 174 0 0 173 0 0 173 0 0 172 0 0 172 0 0 171 0 0 171 0 0 170 0 0 170 0 0 169 0 0 169 0 0 168 0 0 168 0 0 168 0 167 167 167 167 167 167 166 166 166 166 166 166 165 165 165 165 165 165 164 164 164 164 164 164 163 163 163 163 163 163 162 162 162 162 162 162 162 162 162 0 161 0 0 161 0 0 160 0 0 206 0 0 206 0 205 205 205 205 205 205 204 204 204 204 204 204 204 204 204 203 203 203 203 203 203 202 202 202 202 202 202 202 202 202 201 201 201 201 201 201 200 200 200 200 200 200 0 200 0 0 199 0 0 199 0 0 198 0 0 198 0 0 197 0 0 197 0 0 197 0 0 196 0 0 196 0 0 195 0 0 195 0 0 194 0 0 194 0 0 193 0 193 193 193 192 192 192 192 192 192 192 192 192 191 191 191 191 191 191 190 190 190 190 190 190 189 189 189 189 189 189 188 188 188 188 188 188 187 187 187 187 187 187 186 186 186 186 186 186 185 185 185 185 185 185 184 184 184 184 184 184 183 183 183 183 183 183 182 182 182 182 182 182 181 181 181 181 181 181 181 181 181 180 180 180 180 180 180 179 179 179 179 179 179 178 178 178 178 178 178 177 177 177 177 177 177 176 176 176 176 176 176 175 175 175 0 175 0 0 174 0 0 174 0 0 173 0 0 173 0 0 172 0 0 172 0 0 171 0 0 171 0 0 170 0 0 170 0 0 170 0 0 169 0 0 169 0 0 168 0 168 168 168 167 167 167 167 167 167 166 166 166 166 166 166 165 165 165 165 165 165 164 164 164 164 164 164 164 164 164 163 163 163 163 163 163 162 162 162 162 162 162 0 161 0 0 161 0 0 206 0 0 206 0 206 206 206 205 205 205 205 205 205 205 205 205 204 204 204 204 204 204 203 203 203 203 203 203 203 203 203 202 202 202 202 202 202 201 201 201 201 201 201 200 200 200 0 200 0 0 200 0 0 199 0 0 199 0 0 198 0 0 198 0 0 197 0 0 197 0 0 197 0 0 196 0 0 196 0 0 195 0 0 195 0 0 194 0 0 194 0 193 193 193 193 193 193 192 192 192 192 192 192 192 192 192 191 191 191 191 191 191 190 190 190 190 190 190 189 189 189 189 189 189 188 188 188 188 188 188 187 187 187 187 187 187 186 186 186 186 186 186 185 185 185 185 185 185 184 184 184 184 184 184 183 183 183 183 183 183 182 182 182 182 182 182 182 182 182 181 181 181 181 181 181 180 180 180 180 180 180 179 179 179 179 179 179 178 178 178 178 178 178 177 177 177 177 177 177 176 176 176 176 176 176 0 175 0 0 175 0 0 174 0 0 174 0 0 173 0 0 173 0 0 172 0 0 172 0 0 172 0 0 171 0 0 171 0 0 170 0 0 170 0 0 169 0 0 169 0 168 168 168 168 168 168 167 167 167 167 167 167 166 166 166 166 166 166 165 165 165 165 165 165 165 165 165 164 164 164 164 164 164 163 163 163 163 163 163 162 162 162 0 162 0 0 161 0 0 207 0 0 206 0 206 206 206 206 206 206 205 205 205 205 205 205 205 205 205 204 204 204 204 204 204 203 203 203 203 203 203 203 203 203 202 202 202 202 202 202 201 201 201 201 201 201 0 200 0 0 200 0 0 200 0 0 199 0 0 199 0 0 198 0 0 198 0 0 197 0 0 197 0 0 197 0 0 196 0 0 196 0 0 195 0 0 195 0 0 194 0 0 194 0 193 193 193 193 193 193 192 192 192 192 192 192 192 192 192 191 191 191 191 191 191 190 190 190 190 190 190 189 189 189 189 189 189 188 188 188 188 188 188 187 187 187 187 187 187 186 186 186 186 186 186 185 185 185 185 185 185 184 184 184 184 184 184 183 183 183 183 183 183 183 183 183 182 182 182 182 182 182 181 181 181 181 181 181 180 180 180 180 180 180 179 179 179 179 179 179 178 178 178 178 178 178 177 177 177 177 177 177 0 176 0 0 176 0 0 175 0 0 175 0 0 174 0 0 174 0 0 173 0 0 173 0 0 173 0 0 172 0 0 172 0 0 171 0 0 171 0 0 170 0 0 170 0 0 169 0 169 169 169 168 168 168 168 168 168 167 167 167 167 167 167 167 167 167 166 166 166 166 166 166 165 165 165 165 165 165 164 164 164 164 164 164 163 163 163 163 163 163 0 163 0 0 162 0 0 207 0 0 207 0 207 207 207 206 206 206 206 206 206 205 205 205 205 205 205 205 205 205 204 204 204 204 204 204 203 203 203 203 203 203 203 203 203 202 202 202 202 202 202 201 201 201 0 201 0 0 200 0 0 200 0 0 200 0 0 199 0 0 199 0 0 198 0 0 198 0 0 197 0 0 197 0 0 197 0 0 196 0 0 196 0 0 195 0 0 195 0 0 194 0 0 194 0 0 193 0 193 193 193 192 192 192 192 192 192 191 191 191 191 191 191 191 191 191 190 190 190 190 190 190 189 189 189 189 189 189 188 188 188 188 188 188 187 187 187 187 187 187 186 186 186 186 186 186 185 185 185 185 185 185 184 184 184 184 184 184 183 183 183 183 183 183 183 183 183 182 182 182 182 182 182 181 181 181 181 181 181 180 180 180 180 180 180 179 179 179 179 179 179 178 178 178 0 178 0 0 177 0 0 177 0 0 176 0 0 176 0 0 175 0 0 175 0 0 174 0 0 174 0 0 174 0 0 173 0 0 173 0 0 172 0 0 172 0 0 171 0 0 171 0 0 170 0 0 170 0 169 169 169 169 169 169 168 168 168 168 168 168 168 168 168 167 167 167 167 167 167 166 166 166 166 166 166 165 165 165 165 165 165 164 164 164 164 164 164 164 164 164 0 163 0 0 163 0 0 208 0 207 207 207 207 207 207 207 207 207 206 206 206 206 206 206 205 205 205 205 205 205 205 205 205 204 204 204 204 204 204 203 203 203 203 203 203 203 203 203 202 202 202 202 202 202 201 201 201 0 201 0 0 200 0 0 200 0 0 200 0 0 199 0 0 199 0 0 198 0 0 198 0 0 197 0 0 197 0 0 196 0 0 196 0 0 196 0 0 195 0 0 195 0 0 194 0 0 194 0 0 193 0 193 193 193 192 192 192 192 192 192 191 191 191 191 191 191 191 191 191 190 190 190 190 190 190 189 189 189 189 189 189 188 188 188 188 188 188 187 187 187 187 187 187 186 186 186 186 186 186 185 185 185 185 185 185 184 184 184 184 184 184 183 183 183 183 183 183 183 183 183 182 182 182 182 182 182 181 181 181 181 181 181 180 180 180 180 180 180 179 179 179 0 179 0 0 178 0 0 178 0 0 177 0 0 177 0 0 176 0 0 176 0 0 175 0 0 175 0 0 175 0 0 174 0 0 174 0 0 173 0 0 173 0 0 172 0 0 172 0 0 171 0 0 171 0 170 170 170 170 170 170 169 169 169 169 169 169 169 169 169 168 168 168 168 168 168 167 167 167 167 167 167 166 166 166 166 166 166 165 165 165 165 165 165 165 165 165 164 164 164 164 164 164 0 163 0 0 208 0 208 208 208 207 207 207 207 207 207 207 207 207 206 206 206 206 206 206 205 205 205 205 205 205 205 205 205 204 204 204 204 204 204 203 203 203 203 203 203 203 203 203 202 202 202 202 202 202 0 201 0 0 201 0 0 200 0 0 200 0 0 200 0 0 199 0 0 199 0 0 198 0 0 198 0 0 197 0 0 197 0 0 196 0 0 196 0 0 196 0 0 195 0 0 195 0 0 194 0 0 194 0 0 193 0 0 193 0 192 192 192 192 192 192 191 191 191 191 191 191 190 190 190 190 190 190 190 190 190 189 189 189 189 189 189 188 188 188 188 188 188 187 187 187 187 187 187 186 186 186 186 186 186 185 185 185 185 185 185 184 184 184 184 184 184 183 183 183 183 183 183 182 182 182 182 182 182 182 182 182 181 181 181 181 181 181 0 180 0 0 180 0 0 179 0 0 179 0 0 178 0 0 178 0 0 177 0 0 177 0 0 176 0 0 176 0 0 175 0 0 175 0 0 175 0 0 174 0 0 174 0 0 173 0 0 173 0 0 172 0 0 172 0 0 171 0 171 171 171 170 170 170 170 170 170 170 170 170 169 169 169 169 169 169 168 168 168 168 168 168 167 167 167 167 167 167 166 166 166 166 166 166 166 166 166 165 165 165 165 165 165 164 164 164 0 164 0 
