P3
100 50
255
0 105 0 0 105 0 0 104 0 0 104 0 0 104 0 0 103 0 103 103 103 102 102 102 102 102 102 101 101 101 101 101 101 100 100 100 100 100 100 100 100 100 99 99 99 99 99 99 98 98 98 98 98 98 0 97 0 0 97 0 0 96 0 0 96 0 0 95 0 0 95 0 0 94 0 0 94 0 0 93 0 0 93 0 92 92 92 91 91 91 91 91 91 90 90 90 90 90 90 89 89 89 89 89 89 88 88 88 88 88 88 0 87 0 0 86 0 0 86 0 0 85 0 0 85 0 0 84 0 0 83 0 0 83 0 82 82 82 82 82 82 81 81 81 80 80 80 80 80 80 209 209 209 210 210 210 211 211 211 211 211 211 212 212 212 0 213 0 0 213 0 0 214 0 0 214 0 0 215 0 0 215 0 0 216 0 0 216 0 216 216 216 217 217 217 217 217 217 217 217 217 218 218 218 218 218 218 218 218 218 218 218 218 219 219 219 0 219 0 0 219 0 0 219 0 0 219 0 0 220 0 0 220 0 0 220 0 0 220 0 0 220 0 0 220 0 220 220 220 220 220 220 220 220 220 220 220 220 220 220 220 220 220 220 220 220 220 220 220 220 220 220 220 220 220 220 220 220 220 220 220 220 0 220 0 0 220 0 0 220 0 0 220 0 0 220 0 0 220 0 0 105 0 0 105 0 0 104 0 0 104 0 0 103 0 0 103 0 102 102 102 102 102 102 102 102 102 101 101 101 101 101 101 100 100 100 100 100 100 99 99 99 99 99 99 98 98 98 98 98 98 97 97 97 0 97 0 0 96 0 0 96 0 0 95 0 0 95 0 0 94 0 0 94 0 0 93 0 0 93 0 0 92 0 92 92 92 91 91 91 91 91 91 90 90 90 90 90 90 89 89 89 88 88 88 88 88 88 0 87 0 0 87 0 0 86 0 0 86 0 0 85 0 0 84 0 0 84 0 0 83 0 83 83 83 82 82 82 81 81 81 81 81 81 80 80 80 79 79 79 208 208 208 209 209 209 210 210 210 210 210 210 211 211 211 212 212 212 0 212 0 0 213 0 0 213 0 0 214 0 0 214 0 0 215 0 0 215 0 0 216 0 216 216 216 216 216 216 217 217 217 217 217 217 217 217 217 218 218 218 218 218 218 218 218 218 0 218 0 0 218 0 0 219 0 0 219 0 0 219 0 0 219 0 0 219 0 0 219 0 0 219 0 0 219 0 219 219 219 219 219 219 220 220 220 220 220 220 220 220 220 220 220 220 220 220 220 220 220 220 220 220 220 220 220 220 220 220 220 220 220 220 0 220 0 0 220 0 0 220 0 0 220 0 0 219 0 0 219 0 0 105 0 0 104 0 0 104 0 0 103 0 0 103 0 0 103 0 102 102 102 102 102 102 101 101 101 101 101 101 100 100 100 100 100 100 99 99 99 99 99 99 99 99 99 98 98 98 98 98 98 97 97 97 0 97 0 0 96 0 0 96 0 0 95 0 0 95 0 0 94 0 0 94 0 0 93 0 0 93 0 0 92 0 91 91 91 91 91 91 90 90 90 90 90 90 89 89 89 89 89 89 88 88 88 88 88 88 0 87 0 0 86 0 0 86 0 0 85 0 0 85 0 0 84 0 0 83 0 0 83 0 82 82 82 82 82 82 81 81 81 80 80 80 80 80 80 79 79 79 207 207 207 208 208 208 209 209 209 210 210 210 210 210 210 211 211 211 0 211 0 0 212 0 0 213 0 0 213 0 0 214 0 0 214 0 0 214 0 0 215 0 215 215 215 216 216 216 216 216 216 216 216 216 216 216 216 217 217 217 217 217 217 217 217 217 0 217 0 0 218 0 0 218 0 0 218 0 0 218 0 0 218 0 0 218 0 0 218 0 0 219 0 0 219 0 219 219 219 219 219 219 219 219 219 219 219 219 219 219 219 219 219 219 219 219 219 219 219 219 219 219 219 219 219 219 219 219 219 219 219 219 0 219 0 0 219 0 0 219 0 0 219 0 0 219 0 0 219 0 0 104 0 0 104 0 0 104 0 0 103 0 0 103 0 0 102 0 102 102 102 101 101 101 101 101 101 101 101 101 100 100 100 100 100 100 99 99 99 99 99 99 98 98 98 98 98 98 97 97 97 97 97 97 0 96 0 0 96 0 0 95 0 0 95 0 0 94 0 0 94 0 0 93 0 0 93 0 0 92 0 92 92 92 91 91 91 91 91 91 90 90 90 90 90 90 89 89 89 88 88 88 88 88 88 87 87 87 0 87 0 0 86 0 0 86 0 0 85 0 0 84 0 0 84 0 0 83 0 83 83 83 82 82 82 81 81 81 81 81 81 80 80 80 79 79 79 79 79 79 206 206 206 207 207 207 208 208 208 209 209 209 209 209 209 210 210 210 211 211 211 0 211 0 0 212 0 0 212 0 0 213 0 0 213 0 0 214 0 0 214 0 214 214 214 215 215 215 215 215 215 215 215 215 216 216 216 216 216 216 216 216 216 216 216 216 217 217 217 0 217 0 0 217 0 0 217 0 0 217 0 0 218 0 0 218 0 0 218 0 0 218 0 0 218 0 218 218 218 218 218 218 218 218 218 218 218 218 218 218 218 218 218 218 218 218 218 218 218 218 218 218 218 218 218 218 218 218 218 218 218 218 0 218 0 0 218 0 0 218 0 0 218 0 0 218 0 0 218 0 0 104 0 0 104 0 0 103 0 0 103 0 0 102 0 0 102 0 102 102 102 101 101 101 101 101 101 100 100 100 100 100 100 99 99 99 99 99 99 98 98 98 98 98 98 97 97 97 97 97 97 0 97 0 0 96 0 0 96 0 0 95 0 0 95 0 0 94 0 0 94 0 0 93 0 0 92 0 0 92 0 91 91 91 91 91 91 90 90 90 90 90 90 89 89 89 89 89 89 88 88 88 88 88 88 0 87 0 0 86 0 0 86 0 0 85 0 0 85 0 0 84 0 0 84 0 83 83 83 82 82 82 82 82 82 81 81 81 80 80 80 80 80 80 79 79 79 79 79 79 205 205 205 206 206 206 207 207 207 208 208 208 208 208 208 209 209 209 210 210 210 210 210 210 0 211 0 0 211 0 0 212 0 0 212 0 0 213 0 0 213 0 0 214 0 214 214 214 214 214 214 215 215 215 215 215 215 215 215 215 215 215 215 216 216 216 216 216 216 0 216 0 0 216 0 0 216 0 0 217 0 0 217 0 0 217 0 0 217 0 0 217 0 0 217 0 0 217 0 217 217 217 217 217 217 218 218 218 218 218 218 218 218 218 218 218 218 218 218 218 218 218 218 218 218 218 218 218 218 218 218 218 0 218 0 0 218 0 0 218 0 0 218 0 0 218 0 0 218 0 0 104 0 0 103 0 0 103 0 0 103 0 0 102 0 0 102 0 101 101 101 101 101 101 100 100 100 100 100 100 99 99 99 99 99 99 99 99 99 98 98 98 98 98 98 97 97 97 97 97 97 0 96 0 0 96 0 0 95 0 0 95 0 0 94 0 0 94 0 0 93 0 0 93 0 0 92 0 0 92 0 91 91 91 91 91 91 90 90 90 90 90 90 89 89 89 88 88 88 88 88 88 87 87 87 0 87 0 0 86 0 0 86 0 0 85 0 0 84 0 0 84 0 0 83 0 83 83 83 82 82 82 81 81 81 81 81 81 80 80 80 80 80 80 79 79 79 0 78 0 0 204 0 205 205 205 206 206 206 207 207 207 207 207 207 208 208 208 209 209 209 209 209 209 0 210 0 0 210 0 0 211 0 0 211 0 0 212 0 0 212 0 0 213 0 213 213 213 213 213 213 214 214 214 214 214 214 214 214 214 215 215 215 215 215 215 215 215 215 0 215 0 0 216 0 0 216 0 0 216 0 0 216 0 0 216 0 0 216 0 0 216 0 0 217 0 0 217 0 217 217 217 217 217 217 217 217 217 217 217 217 217 217 217 217 217 217 217 217 217 217 217 217 217 217 217 217 217 217 217 217 217 0 217 0 0 217 0 0 217 0 0 217 0 0 217 0 0 217 0 0 103 0 0 103 0 0 103 0 0 102 0 0 102 0 101 101 101 101 101 101 100 100 100 100 100 100 100 100 100 99 99 99 99 99 99 98 98 98 98 98 98 97 97 97 97 97 97 96 96 96 0 96 0 0 95 0 0 95 0 0 94 0 0 94 0 0 93 0 0 93 0 0 92 0 0 92 0 91 91 91 91 91 91 90 90 90 90 90 90 89 89 89 89 89 89 88 88 88 88 88 88 0 87 0 0 86 0 0 86 0 0 85 0 0 85 0 0 84 0 0 84 0 83 83 83 82 82 82 82 82 82 81 81 81 81 81 81 80 80 80 79 79 79 0 79 0 0 78 0 0 203 0 0 204 0 205 205 205 206 206 206 206 206 206 207 207 207 208 208 208 208 208 208 209 209 209 0 210 0 0 210 0 0 211 0 0 211 0 0 211 0 0 212 0 0 212 0 213 213 213 213 213 213 213 213 213 214 214 214 214 214 214 214 214 214 214 214 214 215 215 215 0 215 0 0 215 0 0 215 0 0 215 0 0 215 0 0 216 0 0 216 0 0 216 0 0 216 0 216 216 216 216 216 216 216 216 216 216 216 216 216 216 216 216 216 216 216 216 216 216 216 216 216 216 216 216 216 216 216 216 216 216 216 216 0 216 0 0 216 0 0 216 0 0 216 0 0 216 0 0 103 0 0 103 0 0 102 0 0 102 0 0 101 0 101 101 101 101 101 101 100 100 100 100 100 100 99 99 99 99 99 99 98 98 98 98 98 98 97 97 97 97 97 97 97 97 97 96 96 96 0 96 0 0 95 0 0 95 0 0 94 0 0 94 0 0 93 0 0 93 0 0 92 0 0 92 0 91 91 91 91 91 91 90 90 90 89 89 89 89 89 89 88 88 88 88 88 88 87 87 87 0 87 0 0 86 0 0 86 0 0 85 0 0 84 0 0 84 0 0 83 0 83 83 83 82 82 82 81 81 81 81 81 81 80 80 80 80 80 80 0 79 0 0 78 0 0 78 0 0 202 0 0 203 0 0 204 0 205 205 205 206 206 206 206 206 206 207 207 207 208 208 208 208 208 208 0 209 0 0 209 0 0 210 0 0 210 0 0 211 0 0 211 0 0 211 0 212 212 212 212 212 212 212 212 212 213 213 213 213 213 213 213 213 213 214 214 214 214 214 214 0 214 0 0 214 0 0 214 0 0 215 0 0 215 0 0 215 0 0 215 0 0 215 0 0 215 0 215 215 215 215 215 215 215 215 215 216 216 216 216 216 216 216 216 216 216 216 216 216 216 216 216 216 216 216 216 216 216 216 216 216 216 216 0 216 0 0 216 0 0 216 0 0 216 0 0 216 0 0 103 0 0 102 0 0 102 0 0 102 0 0 101 0 101 101 101 100 100 100 100 100 100 99 99 99 99 99 99 99 99 99 98 98 98 98 98 98 97 97 97 97 97 97 96 96 96 96 96 96 0 95 0 0 95 0 0 94 0 0 94 0 0 93 0 0 93 0 0 92 0 0 92 0 0 91 0 91 91 91 90 90 90 90 90 90 89 89 89 89 89 89 88 88 88 88 88 88 87 87 87 0 86 0 0 86 0 0 85 0 0 85 0 0 84 0 0 84 0 83 83 83 82 82 82 82 82 82 81 81 81 81 81 81 80 80 80 0 79 0 0 79 0 0 78 0 0 77 0 0 201 0 0 202 0 0 203 0 0 204 0 205 205 205 205 205 205 206 206 206 207 207 207 207 207 207 208 208 208 0 208 0 0 209 0 0 209 0 0 210 0 0 210 0 0 211 0 211 211 211 211 211 211 212 212 212 212 212 212 212 212 212 213 213 213 213 213 213 213 213 213 0 213 0 0 213 0 0 214 0 0 214 0 0 214 0 0 214 0 0 214 0 0 214 0 0 214 0 215 215 215 215 215 215 215 215 215 215 215 215 215 215 215 215 215 215 215 215 215 215 215 215 215 215 215 215 215 215 215 215 215 215 215 215 0 215 0 0 215 0 0 215 0 0 215 0 0 215 0 0 102 0 0 102 0 0 102 0 0 101 0 0 101 0 100 100 100 100 100 100 100 100 100 99 99 99 99 99 99 98 98 98 98 98 98 97 97 97 97 97 97 96 96 96 96 96 96 95 95 95 0 95 0 0 94 0 0 94 0 0 94 0 0 93 0 0 93 0 0 92 0 0 91 0 0 91 0 90 90 90 90 90 90 89 89 89 89 89 89 88 88 88 88 88 88 87 87 87 87 87 87 0 86 0 0 86 0 0 85 0 0 84 0 0 84 0 0 83 0 83 83 83 82 82 82 81 81 81 81 81 81 80 80 80 80 80 80 0 79 0 0 78 0 0 78 0 0 77 0 0 200 0 0 201 0 0 202 0 0 203 0 204 204 204 204 204 204 205 205 205 206 206 206 206 206 206 207 207 207 0 207 0 0 208 0 0 208 0 0 209 0 0 209 0 0 210 0 210 210 210 210 210 210 211 211 211 211 211 211 211 211 211 212 212 212 212 212 212 212 212 212 0 212 0 0 213 0 0 213 0 0 213 0 0 213 0 0 213 0 0 213 0 0 214 0 0 214 0 214 214 214 214 214 214 214 214 214 214 214 214 214 214 214 214 214 214 214 214 214 214 214 214 214 214 214 214 214 214 214 214 214 214 214 214 0 214 0 0 215 0 0 215 0 0 215 0 0 215 0 0 102 0 0 102 0 0 101 0 0 101 0 0 101 0 100 100 100 100 100 100 99 99 99 99 99 99 98 98 98 98 98 98 97 97 97 97 97 97 97 97 97 96 96 96 96 96 96 95 95 95 0 95 0 0 94 0 0 94 0 0 93 0 0 93 0 0 92 0 0 92 0 0 91 0 0 91 0 90 90 90 90 90 90 89 89 89 89 89 89 88 88 88 87 87 87 87 87 87 0 86 0 0 86 0 0 85 0 0 85 0 0 84 0 0 83 0 0 83 0 82 82 82 82 82 82 81 81 81 81 81 81 80 80 80 0 79 0 0 79 0 0 78 0 0 77 0 0 77 0 0 199 0 0 200 0 0 201 0 0 202 0 0 203 0 203 203 203 204 204 204 205 205 205 205 205 205 206 206 206 0 206 0 0 207 0 0 207 0 0 208 0 0 208 0 0 209 0 0 209 0 210 210 210 210 210 210 210 210 210 211 211 211 211 211 211 211 211 211 211 211 211 0 212 0 0 212 0 0 212 0 0 212 0 0 212 0 0 213 0 0 213 0 0 213 0 0 213 0 213 213 213 213 213 213 213 213 213 213 213 213 213 213 213 214 214 214 214 214 214 214 214 214 214 214 214 214 214 214 214 214 214 214 214 214 0 214 0 0 214 0 0 214 0 0 214 0 0 214 0 0 102 0 0 101 0 0 101 0 0 101 0 0 100 0 100 100 100 99 99 99 99 99 99 98 98 98 98 98 98 98 98 98 97 97 97 97 97 97 96 96 96 96 96 96 95 95 95 95 95 95 0 94 0 0 94 0 0 93 0 0 93 0 0 92 0 0 92 0 0 91 0 0 91 0 0 90 0 90 90 90 89 89 89 89 89 89 88 88 88 88 88 88 87 87 87 87 87 87 0 86 0 0 85 0 0 85 0 0 84 0 0 84 0 0 83 0 0 83 0 0 0 134 0 0 148 0 0 149 0 0 145 138 0 138 127 0 127 114 0 114 95 0 95 0 77 0 0 76 0 0 198 0 0 199 0 0 200 0 0 201 0 0 201 0 202 202 202 203 203 203 204 204 204 204 204 204 205 205 205 0 205 0 0 206 0 0 207 0 0 207 0 0 207 0 0 208 0 0 208 0 209 209 209 209 209 209 209 209 209 210 210 210 210 210 210 210 210 210 211 211 211 0 211 0 0 211 0 0 211 0 0 211 0 0 212 0 0 212 0 0 212 0 0 212 0 0 212 0 212 212 212 212 212 212 213 213 213 213 213 213 213 213 213 213 213 213 213 213 213 213 213 213 213 213 213 213 213 213 213 213 213 213 213 213 0 213 0 0 213 0 0 213 0 0 213 0 0 213 0 0 101 0 0 101 0 0 101 0 0 100 0 0 100 0 99 99 99 99 99 99 99 99 99 98 98 98 98 98 98 97 97 97 97 97 97 96 96 96 96 96 96 95 95 95 95 95 95 94 94 94 0 94 0 0 94 0 0 93 0 0 93 0 0 92 0 0 92 0 0 91 0 0 91 0 0 90 0 89 89 89 89 89 89 88 88 88 88 88 88 87 87 87 87 87 87 86 86 86 0 86 0 0 85 0 0 85 0 0 84 0 0 83 0 146 0 146 0 0 168 172 0 172 172 0 172 168 0 168 163 0 163 0 0 155 0 0 146 0 0 134 0 0 120 103 0 103 80 0 80 0 171 0 0 170 0 0 199 0 0 200 0 0 200 0 201 201 201 202 202 202 203 203 203 203 203 203 204 204 204 0 204 0 0 205 0 0 206 0 0 206 0 0 207 0 0 207 0 0 207 0 208 208 208 208 208 208 209 209 209 209 209 209 209 209 209 209 209 209 210 210 210 0 210 0 0 210 0 0 210 0 0 211 0 0 211 0 0 211 0 0 211 0 0 211 0 0 211 0 212 212 212 212 212 212 212 212 212 212 212 212 212 212 212 212 212 212 212 212 212 212 212 212 212 212 212 212 212 212 212 212 212 212 212 212 0 212 0 0 213 0 0 213 0 0 213 0 0 213 0 0 101 0 0 101 0 0 100 0 0 100 0 0 100 0 99 99 99 99 99 99 98 98 98 98 98 98 97 97 97 97 97 97 96 96 96 96 96 96 96 96 96 95 95 95 95 95 95 94 94 94 0 94 0 0 93 0 0 93 0 0 92 0 0 92 0 0 91 0 0 91 0 0 90 0 0 90 0 89 89 89 89 89 89 88 88 88 88 88 88 87 87 87 86 86 86 86 86 86 0 85 0 0 85 0 0 84 0 0 84 0 167 0 167 181 0 181 185 0 185 185 0 185 183 0 183 178 0 178 172 0 172 0 0 165 0 0 156 0 0 145 0 0 132 0 0 118 0 0 100 0 0 78 0 0 41 0 172 0 0 171 0 0 170 0 200 200 200 201 201 201 202 202 202 202 202 202 203 203 203 0 204 0 0 204 0 0 205 0 0 205 0 0 206 0 0 206 0 0 206 0 207 207 207 207 207 207 208 208 208 208 208 208 208 208 208 209 209 209 209 209 209 0 209 0 0 209 0 0 210 0 0 210 0 0 210 0 0 210 0 0 210 0 0 211 0 0 211 0 211 211 211 211 211 211 211 211 211 211 211 211 211 211 211 211 211 211 211 211 211 212 212 212 212 212 212 212 212 212 212 212 212 212 212 212 0 212 0 0 212 0 0 212 0 0 212 0 0 212 0 0 101 0 0 100 0 0 100 0 0 100 0 0 99 0 99 99 99 98 98 98 98 98 98 97 97 97 97 97 97 97 97 97 96 96 96 96 96 96 95 95 95 95 95 95 94 94 94 94 94 94 0 93 0 0 93 0 0 92 0 0 92 0 0 91 0 0 91 0 0 90 0 0 90 0 0 89 0 89 89 89 88 88 88 88 88 88 87 87 87 87 87 87 86 86 86 86 86 86 0 85 0 0 84 0 0 84 0 0 0 172 0 0 188 193 0 193 194 0 194 193 0 193 189 0 189 185 0 185 178 0 178 0 0 171 0 0 162 0 0 151 0 0 140 0 0 126 0 0 111 92 0 92 68 0 68 0 0 30 0 173 0 0 172 0 0 172 0 0 171 0 201 201 201 201 201 201 202 202 202 203 203 203 0 203 0 0 204 0 0 204 0 0 205 0 0 205 0 0 206 0 206 206 206 206 206 206 207 207 207 207 207 207 207 207 207 208 208 208 208 208 208 0 208 0 0 209 0 0 209 0 0 209 0 0 209 0 0 209 0 0 210 0 0 210 0 0 210 0 210 210 210 210 210 210 210 210 210 210 210 210 211 211 211 211 211 211 211 211 211 211 211 211 211 211 211 211 211 211 211 211 211 211 211 211 0 211 0 0 211 0 0 211 0 0 211 0 0 211 0 0 100 0 0 100 0 0 100 0 0 99 0 0 99 0 0 98 0 98 98 98 98 98 98 97 97 97 97 97 97 96 96 96 96 96 96 95 95 95 95 95 95 94 94 94 94 94 94 93 93 93 0 93 0 0 93 0 0 92 0 0 92 0 0 91 0 0 91 0 0 90 0 0 90 0 0 89 0 88 88 88 88 88 88 87 87 87 87 87 87 86 86 86 86 86 86 85 85 85 0 85 0 0 84 0 0 0 166 0 0 189 0 0 197 199 0 199 199 0 199 197 0 197 193 0 193 188 0 188 182 0 182 0 0 174 0 0 165 0 0 155 0 0 144 0 0 131 0 0 117 100 0 100 79 0 79 53 0 53 175 175 175 174 174 174 174 174 174 173 173 173 173 173 173 172 172 172 171 171 171 0 202 0 0 202 0 0 203 0 0 203 0 0 204 0 0 204 0 0 205 0 205 205 205 205 205 205 206 206 206 206 206 206 207 207 207 207 207 207 207 207 207 0 207 0 0 208 0 0 208 0 0 208 0 0 208 0 0 209 0 0 209 0 0 209 0 0 209 0 209 209 209 209 209 209 210 210 210 210 210 210 210 210 210 210 210 210 210 210 210 210 210 210 210 210 210 210 210 210 210 210 210 0 210 0 0 210 0 0 210 0 0 210 0 0 211 0 0 211 0 0 100 0 0 100 0 0 99 0 0 99 0 0 98 0 0 98 0 98 98 98 97 97 97 97 97 97 96 96 96 96 96 96 95 95 95 95 95 95 95 95 95 94 94 94 94 94 94 93 93 93 0 93 0 0 92 0 0 92 0 0 91 0 0 91 0 0 90 0 0 90 0 0 89 0 0 89 0 88 88 88 88 88 88 87 87 87 87 87 87 86 86 86 85 85 85 85 85 85 0 84 0 0 84 0 0 0 185 0 0 197 0 0 201 203 0 203 202 0 202 0 0 199 0 0 195 0 0 190 0 0 183 175 0 175 167 0 167 157 0 157 0 0 146 0 0 134 0 0 120 104 0 104 85 0 85 63 0 63 31 0 31 176 176 176 176 176 176 175 175 175 174 174 174 174 174 174 173 173 173 173 173 173 172 172 172 0 202 0 0 202 0 0 203 0 0 203 0 0 204 0 204 204 204 205 205 205 205 205 205 205 205 205 206 206 206 206 206 206 206 206 206 0 207 0 0 207 0 0 207 0 0 207 0 0 208 0 0 208 0 0 208 0 0 208 0 0 208 0 208 208 208 209 209 209 209 209 209 209 209 209 209 209 209 209 209 209 209 209 209 209 209 209 209 209 209 209 209 209 210 210 210 0 210 0 0 210 0 0 210 0 0 210 0 0 210 0 0 210 0 0 100 0 0 99 0 0 99 0 0 99 0 0 98 0 0 98 0 97 97 97 97 97 97 96 96 96 96 96 96 96 96 96 95 95 95 95 95 95 94 94 94 94 94 94 93 93 93 93 93 93 0 92 0 0 92 0 0 91 0 0 91 0 0 90 0 0 90 0 0 89 0 0 89 0 0 88 0 88 88 88 87 87 87 87 87 87 86 86 86 86 86 86 85 85 85 85 85 85 0 84 0 0 0 170 0 0 192 0 0 200 0 0 203 0 0 204 0 0 202 0 0 199 0 0 195 0 0 190 0 0 183 175 0 175 167 0 167 157 0 157 146 0 146 134 0 134 121 0 121 106 0 106 88 0 88 68 0 68 41 0 41 26 0 26 177 177 177 177 177 177 176 176 176 176 176 176 175 175 175 174 174 174 174 174 174 173 173 173 173 173 173 0 202 0 0 202 0 0 203 0 203 203 203 204 204 204 204 204 204 204 204 204 205 205 205 205 205 205 205 205 205 0 206 0 0 206 0 0 206 0 0 206 0 0 207 0 0 207 0 0 207 0 0 207 0 0 208 0 208 208 208 208 208 208 208 208 208 208 208 208 208 208 208 208 208 208 208 208 208 209 209 209 209 209 209 209 209 209 209 209 209 0 209 0 0 209 0 0 209 0 0 209 0 0 209 0 0 209 0 0 99 0 0 99 0 0 99 0 0 98 0 0 98 0 0 97 0 97 97 97 96 96 96 96 96 96 96 96 96 95 95 95 95 95 95 94 94 94 94 94 94 93 93 93 93 93 93 92 92 92 0 92 0 0 91 0 0 91 0 0 90 0 0 90 0 0 89 0 0 89 0 0 88 0 0 88 0 87 87 87 87 87 87 86 86 86 86 86 86 85 85 85 85 85 85 84 84 84 190 190 190 0 0 180 0 0 194 0 0 201 203 0 203 0 0 203 0 0 202 0 0 198 1 1 195 0 0 188 0 0 182 174 0 174 166 0 166 156 0 156 146 0 146 134 0 134 121 0 121 0 0 106 89 0 89 69 0 69 45 0 45 0 0 26 0 179 0 0 178 0 178 178 178 177 177 177 177 177 177 176 176 176 175 175 175 175 175 175 174 174 174 174 174 174 173 173 173 172 172 172 202 202 202 203 203 203 203 203 203 203 203 203 204 204 204 204 204 204 204 204 204 0 205 0 0 205 0 0 205 0 0 206 0 0 206 0 0 206 0 0 206 0 0 207 0 0 207 0 207 207 207 207 207 207 207 207 207 207 207 207 207 207 207 208 208 208 208 208 208 208 208 208 208 208 208 208 208 208 208 208 208 0 208 0 0 208 0 0 208 0 0 208 0 0 208 0 0 208 0 0 99 0 0 99 0 0 98 0 0 98 0 0 97 0 0 97 0 97 97 97 96 96 96 96 96 96 95 95 95 95 95 95 94 94 94 94 94 94 93 93 93 93 93 93 93 93 93 92 92 92 0 92 0 0 91 0 0 91 0 0 90 0 0 90 0 0 89 0 0 89 0 0 88 0 0 88 0 87 87 87 87 87 87 86 86 86 86 86 86 85 85 85 193 193 193 192 192 192 192 192 192 182 0 182 0 0 194 200 0 200 0 0 202 0 0 201 0 0 199 9 9 205 56 56 247 1 1 186 0 0 179 172 0 172 163 0 163 154 0 154 143 0 143 132 0 132 119 0 119 0 0 104 0 0 88 69 0 69 0 0 46 0 0 26 0 26 0 0 26 0 0 26 0 0 179 0 0 178 0 0 178 0 0 177 0 176 176 176 176 176 176 175 175 175 175 175 175 174 174 174 173 173 173 173 173 173 202 202 202 202 202 202 203 203 203 203 203 203 204 204 204 0 204 0 0 204 0 0 204 0 0 205 0 0 205 0 0 205 0 0 205 0 0 206 0 0 206 0 206 206 206 206 206 206 206 206 206 207 207 207 207 207 207 207 207 207 207 207 207 207 207 207 207 207 207 207 207 207 207 207 207 0 207 0 0 208 0 0 208 0 0 208 0 0 208 0 0 208 0 0 99 0 0 98 0 0 98 0 0 97 0 0 97 0 0 97 0 96 96 96 96 96 96 95 95 95 95 95 95 94 94 94 94 94 94 94 94 94 93 93 93 93 93 93 92 92 92 92 92 92 0 91 0 0 91 0 0 90 0 0 90 0 0 89 0 0 89 0 0 88 0 0 88 0 0 87 0 87 87 87 86 86 86 196 196 196 195 195 195 195 195 195 195 195 195 194 194 194 148 0 148 181 0 181 0 0 192 197 0 197 0 0 198 0 0 198 0 0 196 3 3 195 9 9 198 0 0 183 0 0 176 168 0 168 160 0 160 151 0 151 140 0 140 129 0 129 116 0 116 0 0 102 0 0 86 67 0 67 0 0 45 0 0 26 0 26 0 0 26 0 0 26 0 0 26 0 0 26 0 0 26 0 0 178 0 0 178 0 0 177 0 0 177 0 176 176 176 175 175 175 175 175 175 174 174 174 174 174 174 173 173 173 172 172 172 202 202 202 203 203 203 0 203 0 0 203 0 0 204 0 0 204 0 0 204 0 0 204 0 0 205 0 0 205 0 0 205 0 205 205 205 205 205 205 206 206 206 206 206 206 206 206 206 206 206 206 206 206 206 206 206 206 206 206 206 207 207 207 207 207 207 0 207 0 0 207 0 0 207 0 0 207 0 0 207 0 0 207 0 0 98 0 0 98 0 0 97 0 0 97 0 0 97 0 0 96 0 96 96 96 95 95 95 95 95 95 95 95 95 94 94 94 94 94 94 93 93 93 93 93 93 92 92 92 92 92 92 91 91 91 0 91 0 0 90 0 0 90 0 0 89 0 0 89 0 0 88 0 0 88 0 0 87 0 0 87 0 198 198 198 198 198 198 197 197 197 197 197 197 197 197 197 196 196 196 0 196 0 149 0 149 0 0 177 0 0 188 0 0 192 194 0 194 0 0 194 0 0 192 0 0 188 0 0 184 0 0 178 0 0 172 164 0 164 156 0 156 146 0 146 136 0 136 125 0 125 112 0 112 98 0 98 82 0 82 63 0 63 0 0 41 0 0 26 0 26 0 0 26 0 0 26 0 0 26 0 0 26 0 0 26 0 0 26 0 0 179 0 0 179 0 0 178 0 0 177 0 0 177 0 0 176 0 176 176 176 175 175 175 174 174 174 174 174 174 173 173 173 172 172 172 0 202 0 0 202 0 0 203 0 0 203 0 0 203 0 0 203 0 0 204 0 0 204 0 0 204 0 204 204 204 205 205 205 205 205 205 205 205 205 205 205 205 205 205 205 205 205 205 206 206 206 206 206 206 206 206 206 206 206 206 0 206 0 0 206 0 0 206 0 0 206 0 0 206 0 0 206 0 0 98 0 0 97 0 0 97 0 0 97 0 0 96 0 0 96 0 0 95 0 95 95 95 95 95 95 94 94 94 94 94 94 93 93 93 93 93 93 92 92 92 92 92 92 91 91 91 91 91 91 90 90 90 0 90 0 0 90 0 0 89 0 0 89 0 0 88 0 0 88 0 200 200 200 200 200 200 200 200 200 199 199 199 199 199 199 198 198 198 0 198 0 0 198 0 0 197 0 141 0 141 0 0 171 0 0 182 0 0 187 188 0 188 188 0 188 186 0 186 183 0 183 178 0 178 173 0 173 166 0 166 0 0 159 0 0 150 0 0 141 0 0 131 0 0 119 0 0 107 92 0 92 76 0 76 58 0 58 36 0 36 0 0 26 0 26 0 0 26 0 0 26 0 0 26 0 0 26 0 0 26 0 0 26 0 0 26 0 0 180 0 0 179 0 0 179 0 0 178 0 0 178 0 0 177 0 0 176 0 176 176 176 175 175 175 174 174 174 174 174 174 173 173 173 173 173 173 0 202 0 0 202 0 0 202 0 0 203 0 0 203 0 0 203 0 203 203 203 204 204 204 204 204 204 204 204 204 204 204 204 204 204 204 204 204 204 205 205 205 205 205 205 205 205 205 205 205 205 0 205 0 0 205 0 0 205 0 0 205 0 0 205 0 0 206 0 0 206 0 0 98 0 0 97 0 0 97 0 0 96 0 0 96 0 0 95 0 0 95 0 95 95 95 94 94 94 94 94 94 93 93 93 93 93 93 92 92 92 92 92 92 92 92 92 91 91 91 91 91 91 90 90 90 0 90 0 0 89 0 0 89 0 203 203 203 203 203 203 202 202 202 202 202 202 202 202 202 201 201 201 201 201 201 0 200 0 0 200 0 0 200 0 0 199 0 0 199 0 0 198 0 0 0 163 0 0 174 0 0 179 181 0 181 181 0 181 179 0 179 176 0 176 172 0 172 166 0 166 160 0 160 0 0 153 0 0 144 0 0 135 0 0 124 0 0 113 0 0 100 86 0 86 70 0 70 51 0 51 29 0 29 0 0 26 26 26 26 26 26 26 26 26 26 26 26 26 0 26 0 0 26 0 0 26 0 0 26 0 0 181 0 0 181 0 0 180 0 0 180 0 0 179 0 0 178 0 0 178 0 0 177 0 0 176 0 176 176 176 175 175 175 175 175 175 174 174 174 173 173 173 173 173 173 172 172 172 0 202 0 0 202 0 0 202 0 202 202 202 203 203 203 203 203 203 203 203 203 203 203 203 203 203 203 204 204 204 204 204 204 204 204 204 204 204 204 204 204 204 0 204 0 0 204 0 0 205 0 0 205 0 0 205 0 0 205 0 0 205 0 0 97 0 0 97 0 0 96 0 0 96 0 0 95 0 0 95 0 0 95 0 94 94 94 94 94 94 93 93 93 93 93 93 92 92 92 92 92 92 92 92 92 91 91 91 91 91 91 90 90 90 90 90 90 0 89 0 205 205 205 205 205 205 204 204 204 204 204 204 204 204 204 203 203 203 203 203 203 203 203 203 0 202 0 0 202 0 0 201 0 0 201 0 0 200 0 0 200 0 0 200 0 0 0 151 0 0 164 0 0 171 0 0 173 173 0 173 172 0 172 169 0 169 164 0 164 159 0 159 153 0 153 0 0 145 0 0 137 0 0 128 0 0 117 0 0 106 0 0 93 78 0 78 62 0 62 43 0 43 26 0 26 0 0 26 26 26 26 26 26 26 26 26 26 26 26 26 26 26 26 26 26 26 26 26 26 0 26 0 0 183 0 0 182 0 0 182 0 0 181 0 0 180 0 0 180 0 0 179 0 0 178 0 0 178 0 0 177 0 176 176 176 176 176 176 175 175 175 175 175 175 174 174 174 173 173 173 173 173 173 172 172 172 0 201 0 202 202 202 202 202 202 202 202 202 202 202 202 202 202 202 203 203 203 203 203 203 203 203 203 203 203 203 203 203 203 203 203 203 0 204 0 0 204 0 0 204 0 0 204 0 0 204 0 0 204 0 0 204 0 0 97 0 0 96 0 0 96 0 0 96 0 0 95 0 0 95 0 0 94 0 0 94 0 93 93 93 93 93 93 93 93 93 92 92 92 92 92 92 91 91 91 91 91 91 90 90 90 90 90 90 207 207 207 207 207 207 206 206 206 206 206 206 206 206 206 205 205 205 205 205 205 205 205 205 0 204 0 0 204 0 0 203 0 0 203 0 0 203 0 0 202 0 0 202 0 0 201 0 0 201 0 135 0 135 0 0 152 0 0 160 0 0 163 164 0 164 163 0 163 160 0 160 156 0 156 150 0 150 144 0 144 0 0 137 0 0 129 0 0 119 0 0 109 0 0 97 0 0 84 69 0 69 52 0 52 32 0 32 26 0 26 26 0 26 26 26 26 26 26 26 26 26 26 26 26 26 26 26 26 26 26 26 26 26 26 26 26 26 184 184 184 0 183 0 0 183 0 0 182 0 0 181 0 0 181 0 0 180 0 0 180 0 0 179 0 0 178 0 0 178 0 0 177 0 176 176 176 176 176 176 175 175 175 175 175 175 174 174 174 173 173 173 173 173 173 172 172 172 201 201 201 201 201 201 201 201 201 202 202 202 202 202 202 202 202 202 202 202 202 202 202 202 202 202 202 0 203 0 0 203 0 0 203 0 0 203 0 0 203 0 0 203 0 0 203 0 0 203 0 0 96 0 0 96 0 0 96 0 0 95 0 0 95 0 0 94 0 0 94 0 0 93 0 93 93 93 93 93 93 92 92 92 92 92 92 91 91 91 91 91 91 209 209 209 209 209 209 209 209 209 208 208 208 208 208 208 208 208 208 207 207 207 207 207 207 207 207 207 206 206 206 0 206 0 0 206 0 0 205 0 0 205 0 0 204 0 0 204 0 0 203 0 0 203 0 0 203 0 0 202 0 0 0 106 137 0 137 0 0 147 0 0 152 153 0 153 152 0 152 150 0 150 146 0 146 141 0 141 135 0 135 0 0 127 0 0 119 0 0 109 0 0 99 0 0 87 0 0 74 58 0 58 41 0 41 0 0 26 0 0 26 26 26 26 26 26 26 26 26 26 26 26 26 26 26 26 26 26 26 26 26 26 26 26 26 26 26 26 185 185 185 185 185 185 0 184 0 0 183 0 0 183 0 0 182 0 0 181 0 0 181 0 0 180 0 0 180 0 0 179 0 0 178 0 0 178 0 177 177 177 176 176 176 176 176 176 175 175 175 175 175 175 174 174 174 173 173 173 173 173 173 172 172 172 171 171 171 201 201 201 201 201 201 201 201 201 201 201 201 202 202 202 202 202 202 0 202 0 0 202 0 0 202 0 0 202 0 0 202 0 0 202 0 0 203 0 0 203 0 0 96 0 0 96 0 0 95 0 0 95 0 0 94 0 0 94 0 0 93 0 0 93 0 93 93 93 92 92 92 92 92 92 91 91 91 0 211 0 211 211 211 211 211 211 210 210 210 210 210 210 210 210 210 209 209 209 209 209 209 209 209 209 208 208 208 208 208 208 0 208 0 0 207 0 0 207 0 0 206 0 0 206 0 0 206 0 0 205 0 0 205 0 0 204 0 0 204 0 203 203 203 203 203 203 115 0 115 131 0 131 138 0 138 140 0 140 140 0 140 138 0 138 135 0 135 130 0 130 124 0 124 0 0 116 0 0 108 0 0 98 0 0 88 0 0 75 0 0 62 0 0 46 0 0 27 0 0 26 0 0 26 26 26 26 26 26 26 26 26 26 26 26 26 26 26 26 26 26 26 26 26 26 26 26 26 187 187 187 186 186 186 186 186 186 185 185 185 109 0 109 0 0 116 100 0 100 0 183 0 0 182 0 0 181 0 0 181 0 0 180 0 0 179 0 0 179 0 0 178 0 178 178 178 177 177 177 176 176 176 176 176 176 175 175 175 174 174 174 174 174 174 173 173 173 173 173 173 172 172 172 0 171 0 200 200 200 200 200 200 201 201 201 201 201 201 0 201 0 0 201 0 0 201 0 0 201 0 0 202 0 0 202 0 0 202 0 0 202 0 0 96 0 0 95 0 0 95 0 0 94 0 0 94 0 0 94 0 0 93 0 0 93 0 0 92 0 0 213 0 0 213 0 0 213 0 212 212 212 212 212 212 212 212 212 212 212 212 211 211 211 211 211 211 211 211 211 210 210 210 210 210 210 210 210 210 0 209 0 0 209 0 0 208 0 0 208 0 0 208 0 0 207 0 0 207 0 0 206 0 0 206 0 0 205 0 205 205 205 204 204 204 204 204 204 203 203 203 109 0 109 120 0 120 0 0 125 0 0 126 0 0 124 0 0 121 117 0 117 111 0 111 0 0 104 95 0 95 86 0 86 74 0 74 62 0 62 47 0 47 0 0 30 0 0 26 0 0 26 0 26 0 0 26 0 0 26 0 26 26 26 26 26 26 26 26 26 26 26 26 26 26 26 26 26 26 188 188 188 187 187 187 145 0 145 0 0 166 0 0 169 0 0 163 0 0 151 131 0 131 101 0 101 0 182 0 0 182 0 0 181 0 0 181 0 0 180 0 0 179 0 0 179 0 178 178 178 177 177 177 177 177 177 176 176 176 176 176 176 175 175 175 174 174 174 174 174 174 173 173 173 173 173 173 0 172 0 0 171 0 0 171 0 0 200 0 0 200 0 0 200 0 0 201 0 0 201 0 0 201 0 0 201 0 0 201 0 0 201 0 0 95 0 0 95 0 0 94 0 0 94 0 0 94 0 0 93 0 0 93 0 0 215 0 0 215 0 0 214 0 0 214 0 214 214 214 214 214 214 213 213 213 213 213 213 213 213 213 212 212 212 212 212 212 212 212 212 211 211 211 211 211 211 0 211 0 0 210 0 0 210 0 0 209 0 0 209 0 0 209 0 0 208 0 0 208 0 0 207 0 0 207 0 206 206 206 206 206 206 205 205 205 205 205 205 204 204 204 204 204 204 96 0 96 0 0 105 0 0 108 0 0 108 0 0 106 0 0 102 0 0 96 89 0 89 80 0 80 70 0 70 59 0 59 45 0 45 30 0 30 0 0 26 0 0 26 0 26 0 0 26 0 0 26 0 0 26 0 0 26 0 0 26 0 26 26 26 26 26 26 26 26 26 190 190 190 189 189 189 158 0 158 182 0 182 0 0 190 189 0 189 182 0 182 170 0 170 0 0 153 0 0 129 0 0 96 0 0 26 0 182 0 0 182 0 0 181 0 0 180 0 0 180 0 0 179 0 179 179 179 178 178 178 177 177 177 177 177 177 176 176 176 175 175 175 175 175 175 174 174 174 174 174 174 173 173 173 0 172 0 0 172 0 0 171 0 0 171 0 0 200 0 0 200 0 0 200 0 0 200 0 0 200 0 0 200 0 0 200 0 0 95 0 0 94 0 0 94 0 0 94 0 0 93 0 0 217 0 0 216 0 0 216 0 0 216 0 0 216 0 215 215 215 215 215 215 215 215 215 214 214 214 214 214 214 214 214 214 214 214 214 213 213 213 213 213 213 212 212 212 0 212 0 0 212 0 0 211 0 0 211 0 0 211 0 0 210 0 0 210 0 0 209 0 0 209 0 0 208 0 208 208 208 207 207 207 207 207 207 206 206 206 206 206 206 205 205 205 205 205 205 204 204 204 0 0 77 0 0 85 0 0 88 0 0 87 0 0 83 0 0 78 71 0 71 62 0 62 52 0 52 40 0 40 26 0 26 26 0 26 0 0 26 0 26 0 0 26 0 0 26 0 0 26 0 0 26 0 0 26 0 0 26 0 0 26 0 192 192 192 191 191 191 191 191 191 0 0 134 0 0 182 0 0 197 0 0 201 198 0 198 191 0 191 179 0 179 0 0 163 0 0 142 0 0 114 73 0 73 0 183 0 0 183 0 0 182 0 0 181 0 0 181 0 0 180 0 0 180 0 179 179 179 178 178 178 178 178 178 177 177 177 177 177 177 176 176 176 175 175 175 175 175 175 174 174 174 173 173 173 0 173 0 0 172 0 0 172 0 0 171 0 0 170 0 0 199 0 0 199 0 0 199 0 0 199 0 0 200 0 0 94 0 0 94 0 0 218 0 0 218 0 0 218 0 0 218 0 0 217 0 0 217 0 0 217 0 217 217 217 216 216 216 216 216 216 216 216 216 216 216 216 215 215 215 215 215 215 215 215 215 214 214 214 214 214 214 213 213 213 0 213 0 0 213 0 0 212 0 0 212 0 0 212 0 0 211 0 0 211 0 0 210 0 0 210 0 0 209 0 209 209 209 208 208 208 208 208 208 207 207 207 207 207 207 206 206 206 206 206 206 205 205 205 205 205 205 46 0 46 0 0 58 0 0 61 0 0 59 0 0 55 48 0 48 39 0 39 28 0 28 26 0 26 26 0 26 0 0 26 0 26 0 0 26 0 0 26 0 0 26 0 0 26 0 0 26 0 0 26 0 0 26 0 0 194 0 0 193 0 192 192 192 192 192 192 0 0 162 0 0 191 0 0 201 0 0 204 201 0 201 0 0 194 0 0 182 167 0 167 147 0 147 0 0 121 86 0 86 26 0 26 0 26 0 0 183 0 0 182 0 0 182 0 0 181 0 0 181 0 180 180 180 179 179 179 179 179 179 178 178 178 178 178 178 177 177 177 176 176 176 176 176 176 175 175 175 175 175 175 174 174 174 0 173 0 0 173 0 0 172 0 0 171 0 0 171 0 0 170 0 0 170 0 0 199 0 0 199 0 0 220 0 0 220 0 0 219 0 0 219 0 0 219 0 0 219 0 0 218 0 0 218 0 218 218 218 218 218 218 217 217 217 217 217 217 217 217 217 217 217 217 216 216 216 216 216 216 216 216 216 215 215 215 215 215 215 0 214 0 0 214 0 0 214 0 0 213 0 0 213 0 0 212 0 0 212 0 0 212 0 0 211 0 0 211 0 210 210 210 210 210 210 209 209 209 209 209 209 208 208 208 208 208 208 207 207 207 207 207 207 206 206 206 206 206 206 205 205 205 0 205 0 0 26 0 26 0 26 26 0 26 0 0 26 0 0 26 0 0 26 0 26 0 0 26 0 0 26 0 0 26 0 0 26 0 0 26 0 0 26 0 0 26 0 0 26 0 0 196 0 0 195 0 0 194 0 0 194 0 193 193 193 193 193 193 167 0 167 190 0 190 0 0 200 202 0 202 67 67 255 0 0 192 0 0 180 165 0 165 146 0 146 121 0 121 0 0 89 39 0 39 0 26 0 0 26 0 0 26 0 0 183 0 0 182 0 0 182 0 0 181 0 180 180 180 180 180 180 179 179 179 179 179 179 178 178 178 177 177 177 177 177 177 176 176 176 176 176 176 175 175 175 174 174 174 0 174 0 0 173 0 0 173 0 0 172 0 0 171 0 0 171 0 0 170 0 0 170 0 0 221 0 0 221 0 0 220 0 0 220 0 0 220 0 0 220 0 0 220 0 0 219 0 219 219 219 219 219 219 218 218 218 218 218 218 218 218 218 218 218 218 217 217 217 217 217 217 216 216 216 216 216 216 0 216 0 0 215 0 0 215 0 0 215 0 0 214 0 0 214 0 0 213 0 0 213 0 0 212 0 0 212 0 0 212 0 211 211 211 0 0 165 155 0 155 129 0 129 86 0 86 209 209 209 208 208 208 208 208 208 207 207 207 207 207 207 0 206 0 0 206 0 0 205 0 0 205 0 0 26 0 0 26 0 0 26 0 0 26 0 0 26 0 0 26 0 0 26 0 0 26 0 0 26 0 0 26 0 0 198 0 0 198 0 0 197 0 0 197 0 0 196 0 0 195 0 0 195 0 0 194 0 194 194 194 160 0 160 184 0 184 0 0 193 195 0 195 0 0 192 0 0 185 0 0 174 159 0 159 140 0 140 116 0 116 0 0 84 37 0 37 0 26 0 0 26 0 0 26 0 0 184 0 0 183 0 0 183 0 0 182 0 0 181 0 181 181 181 180 180 180 180 180 180 179 179 179 178 178 178 178 178 178 177 177 177 176 176 176 176 176 176 175 175 175 0 175 0 0 174 0 0 174 0 0 173 0 0 172 0 0 172 0 0 171 0 0 171 0 0 222 0 0 222 0 0 221 0 0 221 0 0 221 0 0 221 0 0 220 0 220 220 220 220 220 220 220 220 220 219 219 219 219 219 219 219 219 219 218 218 218 218 218 218 218 218 218 217 217 217 217 217 217 0 217 0 0 216 0 0 216 0 0 215 0 0 215 0 0 215 0 0 214 0 0 214 0 0 213 0 0 213 0 212 212 212 194 0 194 191 0 191 0 0 175 0 0 150 114 0 114 0 0 62 209 209 209 209 209 209 208 208 208 207 207 207 0 207 0 0 206 0 0 206 0 0 205 0 0 205 0 0 204 0 0 204 0 0 203 0 0 203 0 0 202 0 0 201 0 0 201 0 0 200 0 0 200 0 0 199 0 0 199 0 0 198 0 0 197 0 0 197 0 0 196 0 0 196 0 0 195 0 194 194 194 144 0 144 0 0 171 0 0 182 0 0 184 182 0 182 175 0 175 0 0 164 149 0 149 0 0 130 0 0 106 74 0 74 26 0 26 0 26 0 0 26 0 0 26 0 0 26 0 0 184 0 0 183 0 0 183 0 0 182 0 182 182 182 181 181 181 180 180 180 180 180 180 179 179 179 179 179 179 178 178 178 177 177 177 177 177 177 176 176 176 176 176 176 0 175 0 0 174 0 0 174 0 0 173 0 0 173 0 0 172 0 0 172 0 0 223 0 0 223 0 0 222 0 0 222 0 0 222 0 0 222 0 221 221 221 221 221 221 221 221 221 221 221 221 220 220 220 220 220 220 220 220 220 219 219 219 219 219 219 219 219 219 218 218 218 0 218 0 0 217 0 0 217 0 0 217 0 0 216 0 0 216 0 0 215 0 0 215 0 0 215 0 0 214 0 0 214 0 0 0 192 204 0 204 196 0 196 0 0 179 0 0 153 119 0 119 73 0 73 26 0 26 26 26 26 26 26 26 208 208 208 0 208 0 0 207 0 0 207 0 0 206 0 0 206 0 0 205 0 0 205 0 0 204 0 0 203 0 0 203 0 0 202 0 0 202 0 0 201 0 0 201 0 0 200 0 0 199 0 0 199 0 0 198 0 0 198 0 0 197 0 0 196 0 0 196 0 195 195 195 0 0 113 0 0 151 0 0 164 0 0 168 167 0 167 160 0 160 149 0 149 0 0 135 0 0 115 0 0 90 56 0 56 26 0 26 0 26 0 0 26 0 0 26 0 0 26 0 0 185 0 0 184 0 0 184 0 0 183 0 0 183 0 182 182 182 181 181 181 181 181 181 180 180 180 180 180 180 179 179 179 178 178 178 178 178 178 177 177 177 177 177 177 176 176 176 0 175 0 0 175 0 0 174 0 0 174 0 0 173 0 0 172 0 0 224 0 0 223 0 0 223 0 0 223 0 0 223 0 0 223 0 222 222 222 222 222 222 222 222 222 221 221 221 221 221 221 221 221 221 220 220 220 220 220 220 220 220 220 219 219 219 219 219 219 0 219 0 0 218 0 0 218 0 0 217 0 0 217 0 0 217 0 0 216 0 0 216 0 0 215 0 0 215 0 0 214 0 194 0 194 0 0 200 13 13 204 173 0 173 147 0 147 0 0 113 0 0 68 0 0 26 26 26 26 26 26 26 26 26 26 209 209 209 0 208 0 0 207 0 0 207 0 0 206 0 0 206 0 0 205 0 0 205 0 0 204 0 0 204 0 0 203 0 0 202 0 0 202 0 0 201 0 0 201 0 0 200 0 0 200 0 0 199 0 0 198 0 0 198 0 0 197 0 197 197 197 196 196 196 195 195 195 119 0 119 139 0 139 0 0 146 146 0 146 140 0 140 130 0 130 0 0 115 0 0 95 0 0 67 27 0 27 0 26 0 0 26 0 0 26 0 0 26 0 0 186 0 0 186 0 0 185 0 0 185 0 0 184 0 0 183 0 183 183 183 182 182 182 182 182 182 181 181 181 180 180 180 180 180 180 179 179 179 179 179 179 178 178 178 177 177 177 177 177 177 0 176 0 0 176 0 0 175 0 0 175 0 0 174 0 0 173 0 0 225 0 0 224 0 0 224 0 0 224 0 0 224 0 223 223 223 223 223 223 223 223 223 222 222 222 222 222 222 222 222 222 222 222 222 221 221 221 221 221 221 221 221 221 220 220 220 220 220 220 0 219 0 0 219 0 0 219 0 0 218 0 0 218 0 0 217 0 0 217 0 0 217 0 0 216 0 0 216 0 0 215 0 0 0 181 0 0 186 0 0 177 159 0 159 133 0 133 98 0 98 53 0 53 0 0 26 26 26 26 26 26 26 26 26 26 209 209 209 0 209 0 0 208 0 0 208 0 0 207 0 0 207 0 0 206 0 0 205 0 0 205 0 0 204 0 0 204 0 0 203 0 0 203 0 0 202 0 0 201 0 0 201 0 0 200 0 0 200 0 0 199 0 0 199 0 0 198 0 197 197 197 197 197 197 196 196 196 196 196 196 101 0 101 115 0 115 0 0 118 0 0 113 103 0 103 0 0 87 65 0 65 32 0 32 0 26 0 0 26 0 0 26 0 0 26 0 0 26 0 0 187 0 0 187 0 0 186 0 0 185 0 0 185 0 0 184 0 184 184 184 183 183 183 182 182 182 182 182 182 181 181 181 181 181 181 180 180 180 180 180 180 179 179 179 178 178 178 178 178 178 177 177 177 0 177 0 0 176 0 0 175 0 0 175 0 0 174 0 0 225 0 0 225 0 0 225 0 0 225 0 0 224 0 224 224 224 224 224 224 224 224 224 223 223 223 223 223 223 223 223 223 222 222 222 222 222 222 222 222 222 221 221 221 221 221 221 0 221 0 0 220 0 0 220 0 0 219 0 0 219 0 0 219 0 0 218 0 0 218 0 0 217 0 0 217 0 0 216 0 0 216 0 0 0 152 162 0 162 154 0 154 0 0 136 0 0 110 74 0 74 26 0 26 26 0 26 26 26 26 26 26 26 26 26 26 210 210 210 209 209 209 0 209 0 0 208 0 0 208 0 0 207 0 0 207 0 0 206 0 0 206 0 0 205 0 0 204 0 0 204 0 0 203 0 0 203 0 0 202 0 0 202 0 0 201 0 0 200 0 0 200 0 0 199 0 199 199 199 198 198 198 198 198 198 197 197 197 196 196 196 196 196 196 0 0 61 0 0 74 0 0 73 0 0 64 46 0 46 26 0 26 26 26 26 0 26 0 0 26 0 0 26 0 0 26 0 0 189 0 0 188 0 0 187 0 0 187 0 0 186 0 0 186 0 0 185 0 0 184 0 184 184 184 183 183 183 183 183 183 182 182 182 182 182 182 181 181 181 180 180 180 180 180 180 179 179 179 179 179 179 178 178 178 0 177 0 0 177 0 0 176 0 0 176 0 0 175 0 0 226 0 0 226 0 0 226 0 0 225 0 225 225 225 225 225 225 225 225 225 224 224 224 224 224 224 224 224 224 223 223 223 223 223 223 223 223 223 222 222 222 222 222 222 222 222 222 0 221 0 0 221 0 0 220 0 0 220 0 0 220 0 0 219 0 0 219 0 0 218 0 0 218 0 0 217 0 0 217 0 0 217 0 216 216 216 124 0 124 120 0 120 0 0 103 0 0 76 0 0 37 0 0 26 26 26 26 26 26 26 26 26 26 211 211 211 211 211 211 210 210 210 210 210 210 0 209 0 0 208 0 0 208 0 0 207 0 0 207 0 0 206 0 0 206 0 0 205 0 0 205 0 0 204 0 0 203 0 0 203 0 0 202 0 0 202 0 0 201 0 0 201 0 200 200 200 199 199 199 199 199 199 198 198 198 198 198 198 197 197 197 196 196 196 196 196 196 195 195 195 26 26 26 26 26 26 26 26 26 26 26 26 26 26 26 0 26 0 0 26 0 0 191 0 0 190 0 0 189 0 0 189 0 0 188 0 0 188 0 0 187 0 0 186 0 0 186 0 0 185 0 185 185 185 184 184 184 184 184 184 183 183 183 182 182 182 182 182 182 181 181 181 181 181 181 180 180 180 179 179 179 179 179 179 178 178 178 0 178 0 0 177 0 0 177 0 0 176 0 0 227 0 0 227 0 0 226 0 0 226 0 226 226 226 226 226 226 225 225 225 225 225 225 225 225 225 224 224 224 224 224 224 224 224 224 223 223 223 223 223 223 223 223 223 222 222 222 0 222 0 0 221 0 0 221 0 0 221 0 0 220 0 0 220 0 0 219 0 0 219 0 0 219 0 0 218 0 0 218 0 0 217 0 0 217 0 216 216 216 0 0 60 49 0 49 26 0 26 26 26 26 26 26 26 26 26 26 213 213 213 212 212 212 212 212 212 211 211 211 211 211 211 210 210 210 210 210 210 209 209 209 0 209 0 0 208 0 0 207 0 0 207 0 0 206 0 0 206 0 0 205 0 0 205 0 0 204 0 0 204 0 0 203 0 0 202 0 202 202 202 201 201 201 201 201 201 200 200 200 200 200 200 199 199 199 198 198 198 198 198 198 197 197 197 197 197 197 196 196 196 195 195 195 195 195 195 194 194 194 194 194 194 0 193 0 0 192 0 0 192 0 0 191 0 0 191 0 0 190 0 0 190 0 0 189 0 0 188 0 0 188 0 0 187 0 0 187 0 0 186 0 185 185 185 185 185 185 184 184 184 184 184 184 183 183 183 183 183 183 182 182 182 181 181 181 181 181 181 180 180 180 180 180 180 179 179 179 0 179 0 0 178 0 0 177 0 0 177 0 0 228 0 0 227 0 0 227 0 227 227 227 227 227 227 226 226 226 226 226 226 226 226 226 225 225 225 225 225 225 225 225 225 224 224 224 224 224 224 224 224 224 223 223 223 223 223 223 0 222 0 0 222 0 0 222 0 0 221 0 0 221 0 0 220 0 0 220 0 0 220 0 0 219 0 0 219 0 0 218 0 0 218 0 0 217 0 217 217 217 216 216 216 216 216 216 215 215 215 215 215 215 214 214 214 214 214 214 213 213 213 213 213 213 212 212 212 212 212 212 211 211 211 211 211 211 210 210 210 210 210 210 209 209 209 209 209 209 208 208 208 0 208 0 0 207 0 0 206 0 0 206 0 0 205 0 0 205 0 204 204 204 204 204 204 203 203 203 202 202 202 202 202 202 201 201 201 201 201 201 200 200 200 200 200 200 199 199 199 198 198 198 198 198 198 197 197 197 197 197 197 196 196 196 196 196 196 195 195 195 194 194 194 0 194 0 0 193 0 0 193 0 0 192 0 0 191 0 0 191 0 0 190 0 0 190 0 0 189 0 0 189 0 0 188 0 0 187 0 0 187 0 186 186 186 186 186 186 185 185 185 184 184 184 184 184 184 183 183 183 183 183 183 182 182 182 182 182 182 181 181 181 180 180 180 180 180 180 179 179 179 0 179 0 0 178 0 0 178 0 0 228 0 0 228 0 0 228 0 227 227 227 227 227 227 227 227 227 227 227 227 226 226 226 226 226 226 226 226 226 225 225 225 225 225 225 225 225 225 224 224 224 224 224 224 223 223 223 0 223 0 0 223 0 0 222 0 0 222 0 0 221 0 0 221 0 0 221 0 0 220 0 0 220 0 0 219 0 0 219 0 0 218 0 0 218 0 217 217 217 217 217 217 216 216 216 216 216 216 215 215 215 215 215 215 214 214 214 214 214 214 213 213 213 213 213 213 212 212 212 212 212 212 211 211 211 211 211 211 210 210 210 210 210 210 209 209 209 209 209 209 208 208 208 208 208 208 207 207 207 206 206 206 206 206 206 205 205 205 205 205 205 204 204 204 204 204 204 203 203 203 203 203 203 202 202 202 201 201 201 201 201 201 200 200 200 200 200 200 199 199 199 199 199 199 198 198 198 197 197 197 197 197 197 196 196 196 196 196 196 195 195 195 0 194 0 0 194 0 0 193 0 0 193 0 0 192 0 0 192 0 0 191 0 0 190 0 0 190 0 0 189 0 0 189 0 0 188 0 0 187 0 187 187 187 186 186 186 186 186 186 185 185 185 185 185 185 184 184 184 183 183 183 183 183 183 182 182 182 182 182 182 181 181 181 181 181 181 180 180 180 0 180 0 0 179 0 0 178 0 0 229 0 0 229 0 0 228 0 228 228 228 228 228 228 227 227 227 227 227 227 227 227 227 226 226 226 226 226 226 226 226 226 225 225 225 225 225 225 225 225 225 224 224 224 224 224 224 0 224 0 0 223 0 0 223 0 0 222 0 0 222 0 0 222 0 0 221 0 0 221 0 0 220 0 0 220 0 0 219 0 0 219 0 0 218 0 0 218 0 217 217 217 217 217 217 216 216 216 216 216 216 216 216 216 215 215 215 215 215 215 214 214 214 213 213 213 213 213 213 212 212 212 212 212 212 211 211 211 211 211 211 210 210 210 210 210 210 209 209 209 209 209 209 208 208 208 208 208 208 207 207 207 206 206 206 206 206 206 205 205 205 205 205 205 204 204 204 204 204 204 203 203 203 203 203 203 202 202 202 201 201 201 201 201 201 200 200 200 200 200 200 199 199 199 199 199 199 198 198 198 197 197 197 197 197 197 196 196 196 0 196 0 0 195 0 0 195 0 0 194 0 0 193 0 0 193 0 0 192 0 0 192 0 0 191 0 0 190 0 0 190 0 0 189 0 0 189 0 0 188 0 188 188 188 187 187 187 186 186 186 186 186 186 185 185 185 185 185 185 184 184 184 184 184 184 183 183 183 183 183 183 182 182 182 181 181 181 181 181 181 0 180 0 0 180 0 0 179 0 0 229 0 0 229 0 229 229 229 229 229 229 228 228 228 228 228 228 228 228 228 227 227 227 227 227 227 227 227 227 226 226 226 226 226 226 226 226 226 225 225 225 225 225 225 225 225 225 0 224 0 0 224 0 0 223 0 0 223 0 0 222 0 0 222 0 0 222 0 0 221 0 0 221 0 0 220 0 0 220 0 0 219 0 0 219 0 0 218 0 0 218 0 217 217 217 217 217 217 217 217 217 216 216 216 216 216 216 215 215 215 215 215 215 214 214 214 213 213 213 213 213 213 212 212 212 212 212 212 211 211 211 211 211 211 210 210 210 210 210 210 209 209 209 209 209 209 208 208 208 208 208 208 207 207 207 206 206 206 206 206 206 205 205 205 205 205 205 204 204 204 204 204 204 203 203 203 203 203 203 202 202 202 201 201 201 201 201 201 200 200 200 200 200 200 199 199 199 199 199 199 198 198 198 197 197 197 0 197 0 0 196 0 0 196 0 0 195 0 0 195 0 0 194 0 0 193 0 0 193 0 0 192 0 0 192 0 0 191 0 0 191 0 0 190 0 0 189 0 0 189 0 188 188 188 188 188 188 187 187 187 187 187 187 186 186 186 185 185 185 185 185 185 184 184 184 184 184 184 183 183 183 183 183 183 182 182 182 182 182 182 181 181 181 0 180 0 0 180 0 0 230 0 0 230 0 229 229 229 229 229 229 229 229 229 229 229 229 228 228 228 228 228 228 228 228 228 227 227 227 227 227 227 227 227 227 226 226 226 226 226 226 225 225 225 225 225 225 0 225 0 0 224 0 0 224 0 0 223 0 0 223 0 0 223 0 0 222 0 0 222 0 0 221 0 0 221 0 0 220 0 0 220 0 0 219 0 0 219 0 0 218 0 218 218 218 218 218 218 217 217 217 217 217 217 216 216 216 216 216 216 215 215 215 215 215 215 214 214 214 213 213 213 213 213 213 212 212 212 212 212 212 211 211 211 211 211 211 210 210 210 210 210 210 209 209 209 209 209 209 208 208 208 208 208 208 207 207 207 206 206 206 206 206 206 205 205 205 205 205 205 204 204 204 204 204 204 203 203 203 203 203 203 202 202 202 201 201 201 201 201 201 200 200 200 200 200 200 199 199 199 199 199 199 198 198 198 0 197 0 0 197 0 0 196 0 0 196 0 0 195 0 0 195 0 0 194 0 0 193 0 0 193 0 0 192 0 0 192 0 0 191 0 0 191 0 0 190 0 0 190 0 189 189 189 188 188 188 188 188 188 187 187 187 187 187 187 186 186 186 186 186 186 185 185 185 184 184 184 184 184 184 183 183 183 183 183 183 182 182 182 182 182 182 0 181 0 0 181 0 0 231 0 0 230 0 230 230 230 230 230 230 229 229 229 229 229 229 229 229 229 228 228 228 228 228 228 228 228 228 227 227 227 227 227 227 227 227 227 226 226 226 226 226 226 225 225 225 0 225 0 0 225 0 0 224 0 0 224 0 0 223 0 0 223 0 0 223 0 0 222 0 0 222 0 0 221 0 0 221 0 0 220 0 0 220 0 0 219 0 0 219 0 0 218 0 218 218 218 217 217 217 217 217 217 216 216 216 216 216 216 215 215 215 215 215 215 214 214 214 214 214 214 213 213 213 213 213 213 212 212 212 212 212 212 211 211 211 211 211 211 210 210 210 210 210 210 209 209 209 209 209 209 208 208 208 208 208 208 207 207 207 206 206 206 206 206 206 205 205 205 205 205 205 204 204 204 204 204 204 203 203 203 203 203 203 202 202 202 201 201 201 201 201 201 200 200 200 200 200 200 199 199 199 0 199 0 0 198 0 0 197 0 0 197 0 0 196 0 0 196 0 0 195 0 0 195 0 0 194 0 0 194 0 0 193 0 0 192 0 0 192 0 0 191 0 0 191 0 0 190 0 190 190 190 189 189 189 188 188 188 188 188 188 187 187 187 187 187 187 186 186 186 186 186 186 185 185 185 185 185 185 184 184 184 183 183 183 183 183 183 182 182 182 0 182 0 0 181 0 0 231 0 0 231 0 230 230 230 230 230 230 230 230 230 230 230 230 229 229 229 229 229 229 229 229 229 228 228 228 228 228 228 227 227 227 227 227 227 227 227 227 226 226 226 226 226 226 0 226 0 0 225 0 0 225 0 0 224 0 0 224 0 0 223 0 0 223 0 0 223 0 0 222 0 0 222 0 0 221 0 0 221 0 0 220 0 0 220 0 0 219 0 0 219 0 0 218 0 0 218 0 217 217 217 217 217 217 216 216 216 216 216 216 215 215 215 215 215 215 214 214 214 214 214 214 213 213 213 213 213 213 212 212 212 212 212 212 211 211 211 211 211 211 210 210 210 210 210 210 209 209 209 209 209 209 208 208 208 208 208 208 207 207 207 206 206 206 206 206 206 205 205 205 205 205 205 204 204 204 204 204 204 203 203 203 203 203 203 202 202 202 201 201 201 201 201 201 0 200 0 0 200 0 0 199 0 0 199 0 0 198 0 0 197 0 0 197 0 0 196 0 0 196 0 0 195 0 0 195 0 0 194 0 0 194 0 0 193 0 0 192 0 0 192 0 0 191 0 0 191 0 190 190 190 190 190 190 189 189 189 189 189 189 188 188 188 187 187 187 187 187 187 186 186 186 186 186 186 185 185 185 185 185 185 184 184 184 184 184 184 183 183 183 0 183 0 0 182 0 0 231 0 231 231 231 231 231 231 231 231 231 230 230 230 230 230 230 230 230 230 229 229 229 229 229 229 229 229 229 228 228 228 228 228 228 228 228 228 227 227 227 227 227 227 226 226 226 226 226 226 0 226 0 0 225 0 0 225 0 0 224 0 0 224 0 0 223 0 0 223 0 0 223 0 0 222 0 0 222 0 0 221 0 0 221 0 0 220 0 0 220 0 0 219 0 0 219 0 0 218 0 0 218 0 217 217 217 217 217 217 216 216 216 216 216 216 215 215 215 215 215 215 214 214 214 214 214 214 213 213 213 213 213 213 212 212 212 212 212 212 211 211 211 211 211 211 210 210 210 210 210 210 209 209 209 209 209 209 208 208 208 207 207 207 207 207 207 206 206 206 206 206 206 205 205 205 205 205 205 204 204 204 204 204 204 203 203 203 202 202 202 202 202 202 0 201 0 0 201 0 0 200 0 0 200 0 0 199 0 0 199 0 0 198 0 0 197 0 0 197 0 0 196 0 0 196 0 0 195 0 0 195 0 0 194 0 0 194 0 0 193 0 0 192 0 0 192 0 191 191 191 191 191 191 190 190 190 190 190 190 189 189 189 189 189 189 188 188 188 188 188 188 187 187 187 186 186 186 186 186 186 185 185 185 185 185 185 184 184 184 184 184 184 183 183 183 0 183 0 0 232 0 232 232 232 231 231 231 231 231 231 231 231 231 230 230 230 230 230 230 230 230 230 229 229 229 229 229 229 229 229 229 228 228 228 228 228 228 228 228 228 227 227 227 227 227 227 226 226 226 0 226 0 0 226 0 0 225 0 0 225 0 0 224 0 0 224 0 0 223 0 0 223 0 0 223 0 0 222 0 0 222 0 0 221 0 0 221 0 0 220 0 0 220 0 0 219 0 0 219 0 0 218 0 0 218 0 0 217 0 217 217 217 216 216 216 216 216 216 215 215 215 215 215 215 214 214 214 214 214 214 213 213 213 213 213 213 212 212 212 212 212 212 211 211 211 211 211 211 210 210 210 210 210 210 209 209 209 208 208 208 208 208 208 207 207 207 207 207 207 206 206 206 206 206 206 205 205 205 205 205 205 204 204 204 204 204 204 0 203 0 0 202 0 0 202 0 0 201 0 0 201 0 0 200 0 0 200 0 0 199 0 0 199 0 0 198 0 0 197 0 0 197 0 0 196 0 0 196 0 0 195 0 0 195 0 0 194 0 0 194 0 0 193 0 0 192 0 192 192 192 191 191 191 191 191 191 190 190 190 190 190 190 189 189 189 189 189 189 188 188 188 188 188 188 187 187 187 186 186 186 186 186 186 185 185 185 185 185 185 184 184 184 184 184 184 0 183 0 
