P3
100 50
255
0 95 0 0 95 0 0 94 0 0 94 0 0 94 0 0 94 0 93 93 93 93 93 93 93 93 93 92 92 92 92 92 92 92 92 92 91 91 91 91 91 91 91 91 91 90 90 90 90 90 90 90 90 90 0 89 0 0 89 0 0 88 0 0 88 0 0 88 0 0 87 0 0 87 0 0 87 0 0 86 0 0 86 0 85 85 85 85 85 85 85 85 85 84 84 84 84 84 84 83 83 83 83 83 83 82 82 82 82 82 82 0 82 0 0 81 0 0 81 0 0 80 0 0 80 0 0 79 0 0 79 0 0 78 0 78 78 78 77 77 77 77 77 77 76 76 76 76 76 76 196 196 196 196 196 196 197 197 197 197 197 197 198 198 198 0 199 0 0 199 0 0 200 0 0 200 0 0 200 0 0 201 0 0 201 0 0 202 0 202 202 202 202 202 202 203 203 203 203 203 203 203 203 203 203 203 203 204 204 204 204 204 204 204 204 204 0 204 0 0 204 0 0 205 0 0 205 0 0 205 0 0 205 0 0 205 0 0 205 0 0 205 0 0 205 0 206 206 206 206 206 206 206 206 206 206 206 206 206 206 206 206 206 206 206 206 206 206 206 206 206 206 206 206 206 206 206 206 206 206 206 206 0 206 0 0 206 0 0 206 0 0 206 0 0 206 0 0 206 0 0 95 0 0 94 0 0 94 0 0 94 0 0 94 0 0 93 0 93 93 93 93 93 93 92 92 92 92 92 92 92 92 92 91 91 91 91 91 91 91 91 91 90 90 90 90 90 90 90 90 90 89 89 89 0 89 0 0 89 0 0 88 0 0 88 0 0 87 0 0 87 0 0 87 0 0 86 0 0 86 0 0 86 0 85 85 85 85 85 85 84 84 84 84 84 84 83 83 83 83 83 83 83 83 83 82 82 82 0 82 0 0 81 0 0 81 0 0 80 0 0 80 0 0 79 0 0 79 0 0 78 0 78 78 78 77 77 77 77 77 77 76 76 76 76 76 76 75 75 75 195 195 195 195 195 195 196 196 196 197 197 197 197 197 197 198 198 198 0 198 0 0 199 0 0 199 0 0 200 0 0 200 0 0 200 0 0 201 0 0 201 0 202 202 202 202 202 202 202 202 202 202 202 202 203 203 203 203 203 203 203 203 203 203 203 203 0 204 0 0 204 0 0 204 0 0 204 0 0 204 0 0 204 0 0 204 0 0 205 0 0 205 0 0 205 0 205 205 205 205 205 205 205 205 205 205 205 205 205 205 205 205 205 205 205 205 205 205 205 205 205 205 205 205 205 205 205 205 205 205 205 205 0 205 0 0 205 0 0 205 0 0 205 0 0 205 0 0 205 0 0 94 0 0 94 0 0 94 0 0 94 0 0 93 0 0 93 0 93 93 93 92 92 92 92 92 92 92 92 92 91 91 91 91 91 91 91 91 91 90 90 90 90 90 90 90 90 90 89 89 89 89 89 89 0 89 0 0 88 0 0 88 0 0 88 0 0 87 0 0 87 0 0 86 0 0 86 0 0 86 0 0 85 0 85 85 85 84 84 84 84 84 84 84 84 84 83 83 83 83 83 83 82 82 82 82 82 82 0 81 0 0 81 0 0 81 0 0 80 0 0 80 0 0 79 0 0 79 0 0 78 0 78 78 78 77 77 77 77 77 77 76 76 76 76 76 76 75 75 75 194 194 194 194 194 194 195 195 195 196 196 196 196 196 196 197 197 197 0 197 0 0 198 0 0 198 0 0 199 0 0 199 0 0 200 0 0 200 0 0 200 0 201 201 201 201 201 201 201 201 201 202 202 202 202 202 202 202 202 202 202 202 202 203 203 203 0 203 0 0 203 0 0 203 0 0 203 0 0 203 0 0 204 0 0 204 0 0 204 0 0 204 0 0 204 0 204 204 204 204 204 204 204 204 204 204 204 204 204 204 204 204 204 204 205 205 205 205 205 205 205 205 205 205 205 205 205 205 205 205 205 205 0 205 0 0 205 0 0 205 0 0 205 0 0 205 0 0 205 0 0 94 0 0 94 0 0 94 0 0 93 0 0 93 0 0 93 0 92 92 92 92 92 92 92 92 92 91 91 91 91 91 91 91 91 91 90 90 90 90 90 90 90 90 90 89 89 89 89 89 89 89 89 89 0 88 0 0 88 0 0 88 0 0 87 0 0 87 0 0 87 0 0 86 0 0 86 0 0 85 0 85 85 85 85 85 85 84 84 84 84 84 84 83 83 83 83 83 83 82 82 82 82 82 82 82 82 82 0 81 0 0 81 0 0 80 0 0 80 0 0 79 0 0 79 0 0 78 0 78 78 78 77 77 77 77 77 77 76 76 76 76 76 76 75 75 75 75 75 75 193 193 193 194 194 194 194 194 194 195 195 195 195 195 195 196 196 196 197 197 197 0 197 0 0 198 0 0 198 0 0 198 0 0 199 0 0 199 0 0 200 0 200 200 200 200 200 200 201 201 201 201 201 201 201 201 201 201 201 201 202 202 202 202 202 202 202 202 202 0 202 0 0 202 0 0 203 0 0 203 0 0 203 0 0 203 0 0 203 0 0 203 0 0 203 0 203 203 203 204 204 204 204 204 204 204 204 204 204 204 204 204 204 204 204 204 204 204 204 204 204 204 204 204 204 204 204 204 204 204 204 204 0 204 0 0 204 0 0 204 0 0 204 0 0 204 0 0 204 0 0 94 0 0 94 0 0 93 0 0 93 0 0 93 0 0 92 0 92 92 92 92 92 92 92 92 92 91 91 91 91 91 91 91 91 91 90 90 90 90 90 90 90 90 90 89 89 89 89 89 89 0 88 0 0 88 0 0 88 0 0 87 0 0 87 0 0 87 0 0 86 0 0 86 0 0 86 0 0 85 0 85 85 85 84 84 84 84 84 84 83 83 83 83 83 83 83 83 83 82 82 82 82 82 82 0 81 0 0 81 0 0 80 0 0 80 0 0 80 0 0 79 0 0 79 0 78 78 78 78 78 78 77 77 77 77 77 77 76 76 76 76 76 76 75 75 75 75 75 75 192 192 192 193 193 193 193 193 193 194 194 194 195 195 195 195 195 195 196 196 196 196 196 196 0 197 0 0 197 0 0 198 0 0 198 0 0 198 0 0 199 0 0 199 0 199 199 199 200 200 200 200 200 200 200 200 200 201 201 201 201 201 201 201 201 201 201 201 201 0 202 0 0 202 0 0 202 0 0 202 0 0 202 0 0 202 0 0 202 0 0 203 0 0 203 0 0 203 0 203 203 203 203 203 203 203 203 203 203 203 203 203 203 203 203 203 203 203 203 203 203 203 203 203 203 203 203 203 203 203 203 203 0 203 0 0 203 0 0 203 0 0 204 0 0 204 0 0 204 0 0 94 0 0 93 0 0 93 0 0 93 0 0 92 0 0 92 0 92 92 92 92 92 92 91 91 91 91 91 91 91 91 91 90 90 90 90 90 90 90 90 90 89 89 89 89 89 89 89 89 89 0 88 0 0 88 0 0 87 0 0 87 0 0 87 0 0 86 0 0 86 0 0 86 0 0 85 0 0 85 0 84 84 84 84 84 84 84 84 84 83 83 83 83 83 83 82 82 82 82 82 82 81 81 81 0 81 0 0 81 0 0 80 0 0 80 0 0 79 0 0 79 0 0 78 0 78 78 78 77 77 77 77 77 77 76 76 76 76 76 76 75 75 75 75 75 75 0 74 0 0 191 0 192 192 192 192 192 192 193 193 193 194 194 194 194 194 194 195 195 195 195 195 195 0 196 0 0 196 0 0 197 0 0 197 0 0 198 0 0 198 0 0 198 0 199 199 199 199 199 199 199 199 199 200 200 200 200 200 200 200 200 200 200 200 200 201 201 201 0 201 0 0 201 0 0 201 0 0 201 0 0 201 0 0 202 0 0 202 0 0 202 0 0 202 0 0 202 0 202 202 202 202 202 202 202 202 202 202 202 202 203 203 203 203 203 203 203 203 203 203 203 203 203 203 203 203 203 203 203 203 203 0 203 0 0 203 0 0 203 0 0 203 0 0 203 0 0 203 0 0 93 0 0 93 0 0 93 0 0 92 0 0 92 0 92 92 92 92 92 92 91 91 91 91 91 91 91 91 91 90 90 90 90 90 90 90 90 90 89 89 89 89 89 89 89 89 89 88 88 88 0 88 0 0 88 0 0 87 0 0 87 0 0 86 0 0 86 0 0 86 0 0 85 0 0 85 0 85 85 85 84 84 84 84 84 84 83 83 83 83 83 83 83 83 83 82 82 82 82 82 82 0 81 0 0 81 0 0 80 0 0 80 0 0 79 0 0 79 0 0 78 0 78 78 78 78 78 78 77 77 77 77 77 77 76 76 76 76 76 76 75 75 75 0 75 0 0 74 0 0 190 0 0 191 0 191 191 191 192 192 192 193 193 193 193 193 193 194 194 194 194 194 194 195 195 195 0 195 0 0 196 0 0 196 0 0 197 0 0 197 0 0 197 0 0 198 0 198 198 198 198 198 198 199 199 199 199 199 199 199 199 199 200 200 200 200 200 200 200 200 200 0 200 0 0 200 0 0 201 0 0 201 0 0 201 0 0 201 0 0 201 0 0 201 0 0 201 0 202 202 202 202 202 202 202 202 202 202 202 202 202 202 202 202 202 202 202 202 202 202 202 202 202 202 202 202 202 202 202 202 202 202 202 202 0 202 0 0 202 0 0 202 0 0 202 0 0 202 0 0 93 0 0 93 0 0 92 0 0 92 0 0 92 0 92 92 92 91 91 91 91 91 91 91 91 91 90 90 90 90 90 90 90 90 90 89 89 89 89 89 89 89 89 89 88 88 88 88 88 88 0 88 0 0 87 0 0 87 0 0 87 0 0 86 0 0 86 0 0 85 0 0 85 0 0 85 0 84 84 84 84 84 84 83 83 83 83 83 83 83 83 83 82 82 82 82 82 82 81 81 81 0 81 0 0 80 0 0 80 0 0 80 0 0 79 0 0 79 0 0 78 0 78 78 78 77 77 77 77 77 77 76 76 76 76 76 76 75 75 75 0 75 0 0 74 0 0 74 0 0 189 0 0 190 0 0 190 0 191 191 191 192 192 192 192 192 192 193 193 193 193 193 193 194 194 194 0 195 0 0 195 0 0 195 0 0 196 0 0 196 0 0 197 0 0 197 0 197 197 197 198 198 198 198 198 198 198 198 198 199 199 199 199 199 199 199 199 199 199 199 199 0 199 0 0 200 0 0 200 0 0 200 0 0 200 0 0 200 0 0 200 0 0 201 0 0 201 0 201 201 201 201 201 201 201 201 201 201 201 201 201 201 201 201 201 201 201 201 201 201 201 201 201 201 201 201 201 201 202 202 202 202 202 202 0 202 0 0 202 0 0 202 0 0 202 0 0 202 0 0 93 0 0 92 0 0 92 0 0 92 0 0 92 0 91 91 91 91 91 91 91 91 91 90 90 90 90 90 90 90 90 90 89 89 89 89 89 89 89 89 89 88 88 88 88 88 88 88 88 88 0 87 0 0 87 0 0 87 0 0 86 0 0 86 0 0 86 0 0 85 0 0 85 0 0 84 0 84 84 84 84 84 84 83 83 83 83 83 83 82 82 82 82 82 82 82 82 82 81 81 81 0 81 0 0 80 0 0 80 0 0 79 0 0 79 0 0 78 0 78 78 78 77 77 77 77 77 77 76 76 76 76 76 76 75 75 75 0 75 0 0 74 0 0 74 0 0 73 0 0 188 0 0 189 0 0 189 0 0 190 0 191 191 191 191 191 191 192 192 192 193 193 193 193 193 193 194 194 194 0 194 0 0 195 0 0 195 0 0 195 0 0 196 0 0 196 0 197 197 197 197 197 197 197 197 197 197 197 197 198 198 198 198 198 198 198 198 198 198 198 198 0 199 0 0 199 0 0 199 0 0 199 0 0 199 0 0 200 0 0 200 0 0 200 0 0 200 0 200 200 200 200 200 200 200 200 200 200 200 200 201 201 201 201 201 201 201 201 201 201 201 201 201 201 201 201 201 201 201 201 201 201 201 201 0 201 0 0 201 0 0 201 0 0 201 0 0 201 0 0 92 0 0 92 0 0 92 0 0 92 0 0 91 0 91 91 91 91 91 91 90 90 90 90 90 90 90 90 90 89 89 89 89 89 89 89 89 89 88 88 88 88 88 88 88 88 88 87 87 87 0 87 0 0 87 0 0 86 0 0 86 0 0 86 0 0 85 0 0 85 0 0 84 0 0 84 0 84 84 84 83 83 83 83 83 83 82 82 82 82 82 82 82 82 82 81 81 81 81 81 81 0 80 0 0 80 0 0 79 0 0 79 0 0 79 0 0 78 0 78 78 78 77 77 77 77 77 77 76 76 76 76 76 76 75 75 75 0 75 0 0 74 0 0 74 0 0 73 0 0 187 0 0 188 0 0 188 0 0 189 0 190 190 190 190 190 190 191 191 191 192 192 192 192 192 192 193 193 193 0 193 0 0 194 0 0 194 0 0 195 0 0 195 0 0 195 0 196 196 196 196 196 196 196 196 196 197 197 197 197 197 197 197 197 197 197 197 197 198 198 198 0 198 0 0 198 0 0 198 0 0 199 0 0 199 0 0 199 0 0 199 0 0 199 0 0 199 0 199 199 199 200 200 200 200 200 200 200 200 200 200 200 200 200 200 200 200 200 200 200 200 200 200 200 200 200 200 200 200 200 200 200 200 200 0 200 0 0 200 0 0 200 0 0 200 0 0 200 0 0 92 0 0 92 0 0 92 0 0 91 0 0 91 0 91 91 91 90 90 90 90 90 90 90 90 90 89 89 89 89 89 89 89 89 89 89 89 89 88 88 88 88 88 88 87 87 87 87 87 87 0 87 0 0 86 0 0 86 0 0 86 0 0 85 0 0 85 0 0 85 0 0 84 0 0 84 0 83 83 83 83 83 83 83 83 83 82 82 82 82 82 82 81 81 81 81 81 81 0 80 0 0 80 0 0 80 0 0 79 0 0 79 0 0 78 0 0 78 0 77 77 77 77 77 77 76 76 76 76 76 76 75 75 75 0 75 0 0 74 0 0 74 0 0 73 0 0 73 0 0 186 0 0 187 0 0 187 0 0 188 0 0 189 0 190 190 190 190 190 190 191 191 191 191 191 191 192 192 192 0 192 0 0 193 0 0 193 0 0 194 0 0 194 0 0 194 0 0 195 0 195 195 195 196 196 196 196 196 196 196 196 196 196 196 196 197 197 197 197 197 197 0 197 0 0 197 0 0 198 0 0 198 0 0 198 0 0 198 0 0 198 0 0 198 0 0 199 0 199 199 199 199 199 199 199 199 199 199 199 199 199 199 199 199 199 199 199 199 199 199 199 199 199 199 199 200 200 200 200 200 200 200 200 200 0 200 0 0 200 0 0 200 0 0 200 0 0 200 0 0 92 0 0 92 0 0 91 0 0 91 0 0 91 0 90 90 90 90 90 90 90 90 90 90 90 90 89 89 89 89 89 89 89 89 89 88 88 88 88 88 88 88 88 88 87 87 87 87 87 87 0 86 0 0 86 0 0 86 0 0 85 0 0 85 0 0 85 0 0 84 0 0 84 0 0 84 0 83 83 83 83 83 83 82 82 82 82 82 82 81 81 81 81 81 81 81 81 81 0 80 0 0 80 0 0 79 0 0 79 0 0 78 0 0 78 0 0 77 0 0 0 146 0 0 161 0 0 162 0 0 159 152 0 152 143 0 143 130 0 130 112 0 112 0 73 0 0 73 0 0 185 0 0 186 0 0 186 0 0 187 0 0 188 0 189 189 189 189 189 189 190 190 190 190 190 190 191 191 191 0 191 0 0 192 0 0 192 0 0 193 0 0 193 0 0 194 0 0 194 0 194 194 194 195 195 195 195 195 195 195 195 195 196 196 196 196 196 196 196 196 196 0 196 0 0 197 0 0 197 0 0 197 0 0 197 0 0 197 0 0 198 0 0 198 0 0 198 0 198 198 198 198 198 198 198 198 198 198 198 198 198 198 198 199 199 199 199 199 199 199 199 199 199 199 199 199 199 199 199 199 199 199 199 199 0 199 0 0 199 0 0 199 0 0 199 0 0 199 0 0 92 0 0 91 0 0 91 0 0 91 0 0 90 0 90 90 90 90 90 90 90 90 90 89 89 89 89 89 89 89 89 89 88 88 88 88 88 88 88 88 88 87 87 87 87 87 87 87 87 87 0 86 0 0 86 0 0 85 0 0 85 0 0 85 0 0 84 0 0 84 0 0 84 0 0 83 0 83 83 83 82 82 82 82 82 82 82 82 82 81 81 81 81 81 81 80 80 80 0 80 0 0 79 0 0 79 0 0 79 0 0 78 0 155 0 155 0 0 177 182 0 182 182 0 182 179 0 179 174 0 174 0 0 168 0 0 159 0 0 149 0 0 136 120 0 120 98 0 98 0 186 0 0 186 0 0 185 0 0 186 0 0 187 0 188 188 188 188 188 188 189 189 189 189 189 189 190 190 190 0 190 0 0 191 0 0 191 0 0 192 0 0 192 0 0 193 0 0 193 0 193 193 193 194 194 194 194 194 194 194 194 194 195 195 195 195 195 195 195 195 195 0 196 0 0 196 0 0 196 0 0 196 0 0 196 0 0 197 0 0 197 0 0 197 0 0 197 0 197 197 197 197 197 197 197 197 197 198 198 198 198 198 198 198 198 198 198 198 198 198 198 198 198 198 198 198 198 198 198 198 198 198 198 198 0 198 0 0 198 0 0 198 0 0 199 0 0 199 0 0 91 0 0 91 0 0 91 0 0 90 0 0 90 0 90 90 90 90 90 90 89 89 89 89 89 89 89 89 89 88 88 88 88 88 88 88 88 88 87 87 87 87 87 87 87 87 87 86 86 86 0 86 0 0 86 0 0 85 0 0 85 0 0 84 0 0 84 0 0 84 0 0 83 0 0 83 0 83 83 83 82 82 82 82 82 82 81 81 81 81 81 81 80 80 80 80 80 80 0 80 0 0 79 0 0 79 0 0 78 0 173 0 173 187 0 187 192 0 192 193 0 193 191 0 191 188 0 188 182 0 182 0 0 176 0 0 167 0 0 158 0 0 146 0 0 132 0 0 116 0 0 95 0 0 59 0 187 0 0 186 0 0 186 0 187 187 187 187 187 187 188 188 188 188 188 188 189 189 189 0 190 0 0 190 0 0 191 0 0 191 0 0 191 0 0 192 0 0 192 0 193 193 193 193 193 193 193 193 193 194 194 194 194 194 194 194 194 194 194 194 194 0 195 0 0 195 0 0 195 0 0 195 0 0 196 0 0 196 0 0 196 0 0 196 0 0 196 0 196 196 196 197 197 197 197 197 197 197 197 197 197 197 197 197 197 197 197 197 197 197 197 197 197 197 197 197 197 197 198 198 198 198 198 198 0 198 0 0 198 0 0 198 0 0 198 0 0 198 0 0 91 0 0 91 0 0 90 0 0 90 0 0 90 0 90 90 90 89 89 89 89 89 89 89 89 89 88 88 88 88 88 88 88 88 88 87 87 87 87 87 87 87 87 87 86 86 86 86 86 86 0 86 0 0 85 0 0 85 0 0 85 0 0 84 0 0 84 0 0 83 0 0 83 0 0 83 0 82 82 82 82 82 82 81 81 81 81 81 81 81 81 81 80 80 80 80 80 80 0 79 0 0 79 0 0 78 0 0 0 176 0 0 192 197 0 197 199 0 199 199 0 199 196 0 196 192 0 192 186 0 186 0 0 180 0 0 172 0 0 162 0 0 151 0 0 139 0 0 124 107 0 107 84 0 84 0 0 47 0 188 0 0 188 0 0 187 0 0 187 0 187 187 187 187 187 187 188 188 188 189 189 189 0 189 0 0 190 0 0 190 0 0 191 0 0 191 0 0 191 0 192 192 192 192 192 192 192 192 192 193 193 193 193 193 193 193 193 193 194 194 194 0 194 0 0 194 0 0 194 0 0 195 0 0 195 0 0 195 0 0 195 0 0 195 0 0 196 0 196 196 196 196 196 196 196 196 196 196 196 196 196 196 196 196 196 196 197 197 197 197 197 197 197 197 197 197 197 197 197 197 197 197 197 197 0 197 0 0 197 0 0 197 0 0 197 0 0 197 0 0 91 0 0 90 0 0 90 0 0 90 0 0 90 0 0 89 0 89 89 89 89 89 89 88 88 88 88 88 88 88 88 88 87 87 87 87 87 87 87 87 87 86 86 86 86 86 86 86 86 86 0 85 0 0 85 0 0 85 0 0 84 0 0 84 0 0 83 0 0 83 0 0 83 0 0 82 0 82 82 82 81 81 81 81 81 81 81 81 81 80 80 80 80 80 80 79 79 79 0 79 0 0 79 0 0 0 168 0 0 191 0 0 199 202 0 202 203 0 203 201 0 201 198 0 198 194 0 194 188 0 188 0 0 181 0 0 173 0 0 164 0 0 154 0 0 142 0 0 129 113 0 113 94 0 94 68 0 68 190 190 190 190 190 190 189 189 189 189 189 189 188 188 188 187 187 187 187 187 187 0 188 0 0 188 0 0 189 0 0 189 0 0 190 0 0 190 0 0 190 0 191 191 191 191 191 191 192 192 192 192 192 192 192 192 192 193 193 193 193 193 193 0 193 0 0 193 0 0 194 0 0 194 0 0 194 0 0 194 0 0 194 0 0 195 0 0 195 0 195 195 195 195 195 195 195 195 195 195 195 195 196 196 196 196 196 196 196 196 196 196 196 196 196 196 196 196 196 196 196 196 196 0 196 0 0 196 0 0 196 0 0 197 0 0 197 0 0 197 0 0 90 0 0 90 0 0 90 0 0 90 0 0 89 0 0 89 0 89 89 89 88 88 88 88 88 88 88 88 88 87 87 87 87 87 87 87 87 87 86 86 86 86 86 86 86 86 86 85 85 85 0 85 0 0 85 0 0 84 0 0 84 0 0 84 0 0 83 0 0 83 0 0 82 0 0 82 0 82 82 82 81 81 81 81 81 81 80 80 80 80 80 80 80 80 80 79 79 79 0 79 0 0 78 0 0 0 184 0 0 196 0 0 202 204 0 204 204 0 204 0 0 202 0 0 198 0 0 194 0 0 188 181 0 181 174 0 174 165 0 165 0 0 155 0 0 143 0 0 130 115 0 115 98 0 98 76 0 76 46 0 46 191 191 191 191 191 191 190 190 190 190 190 190 189 189 189 189 189 189 188 188 188 187 187 187 0 188 0 0 188 0 0 189 0 0 189 0 0 190 0 190 190 190 190 190 190 191 191 191 191 191 191 191 191 191 192 192 192 192 192 192 0 192 0 0 193 0 0 193 0 0 193 0 0 193 0 0 193 0 0 194 0 0 194 0 0 194 0 194 194 194 194 194 194 195 195 195 195 195 195 195 195 195 195 195 195 195 195 195 195 195 195 195 195 195 195 195 195 196 196 196 0 196 0 0 196 0 0 196 0 0 196 0 0 196 0 0 196 0 0 90 0 0 90 0 0 90 0 0 89 0 0 89 0 0 89 0 88 88 88 88 88 88 88 88 88 87 87 87 87 87 87 87 87 87 86 86 86 86 86 86 86 86 86 85 85 85 85 85 85 0 85 0 0 84 0 0 84 0 0 84 0 0 83 0 0 83 0 0 82 0 0 82 0 0 82 0 81 81 81 81 81 81 80 80 80 80 80 80 80 80 80 79 79 79 79 79 79 0 78 0 0 0 168 0 0 190 0 0 198 0 0 202 0 0 203 0 0 203 0 0 200 0 0 197 0 0 192 0 0 187 180 0 180 172 0 172 163 0 163 154 0 154 143 0 143 130 0 130 116 0 116 99 0 99 80 0 80 54 0 54 26 0 26 192 192 192 192 192 192 191 191 191 191 191 191 190 190 190 190 190 190 189 189 189 188 188 188 188 188 188 0 188 0 0 188 0 0 189 0 189 189 189 189 189 189 190 190 190 190 190 190 191 191 191 191 191 191 191 191 191 0 191 0 0 192 0 0 192 0 0 192 0 0 192 0 0 193 0 0 193 0 0 193 0 0 193 0 193 193 193 194 194 194 194 194 194 194 194 194 194 194 194 194 194 194 194 194 194 195 195 195 195 195 195 195 195 195 195 195 195 0 195 0 0 195 0 0 195 0 0 195 0 0 195 0 0 195 0 0 90 0 0 89 0 0 89 0 0 89 0 0 89 0 0 88 0 88 88 88 88 88 88 87 87 87 87 87 87 87 87 87 86 86 86 86 86 86 86 86 86 85 85 85 85 85 85 85 85 85 0 84 0 0 84 0 0 84 0 0 83 0 0 83 0 0 83 0 0 82 0 0 82 0 0 81 0 81 81 81 81 81 81 80 80 80 80 80 80 79 79 79 79 79 79 78 78 78 204 204 204 0 0 176 0 0 190 0 0 197 201 0 201 0 0 201 0 0 200 0 0 198 17 17 212 2 2 192 0 0 184 177 0 177 170 0 170 161 0 161 151 0 151 140 0 140 128 0 128 0 0 114 99 0 99 80 0 80 57 0 57 0 0 26 0 194 0 0 193 0 193 193 193 192 192 192 192 192 192 191 191 191 191 191 191 190 190 190 189 189 189 189 189 189 188 188 188 188 188 188 188 188 188 189 189 189 189 189 189 189 189 189 190 190 190 190 190 190 190 190 190 0 191 0 0 191 0 0 191 0 0 191 0 0 192 0 0 192 0 0 192 0 0 192 0 0 193 0 193 193 193 193 193 193 193 193 193 193 193 193 193 193 193 194 194 194 194 194 194 194 194 194 194 194 194 194 194 194 194 194 194 0 194 0 0 194 0 0 194 0 0 194 0 0 195 0 0 195 0 0 89 0 0 89 0 0 89 0 0 89 0 0 88 0 0 88 0 88 88 88 87 87 87 87 87 87 87 87 87 86 86 86 86 86 86 86 86 86 85 85 85 85 85 85 85 85 85 84 84 84 0 84 0 0 84 0 0 83 0 0 83 0 0 83 0 0 82 0 0 82 0 0 81 0 0 81 0 81 81 81 80 80 80 80 80 80 79 79 79 79 79 79 206 206 206 206 206 206 206 206 206 176 0 176 0 0 189 195 0 195 0 0 198 0 0 198 0 0 197 2 2 196 55 55 246 3 3 189 0 0 180 174 0 174 166 0 166 157 0 157 148 0 148 137 0 137 125 0 125 0 0 112 0 0 96 78 0 78 0 0 56 0 0 26 0 195 0 0 195 0 0 194 0 0 194 0 0 193 0 0 193 0 0 192 0 191 191 191 191 191 191 190 190 190 190 190 190 189 189 189 189 189 189 188 188 188 188 188 188 188 188 188 189 189 189 189 189 189 189 189 189 0 190 0 0 190 0 0 190 0 0 191 0 0 191 0 0 191 0 0 191 0 0 192 0 0 192 0 192 192 192 192 192 192 192 192 192 192 192 192 193 193 193 193 193 193 193 193 193 193 193 193 193 193 193 193 193 193 193 193 193 0 194 0 0 194 0 0 194 0 0 194 0 0 194 0 0 194 0 0 89 0 0 89 0 0 89 0 0 88 0 0 88 0 0 88 0 87 87 87 87 87 87 87 87 87 86 86 86 86 86 86 86 86 86 85 85 85 85 85 85 85 85 85 84 84 84 84 84 84 0 84 0 0 83 0 0 83 0 0 83 0 0 82 0 0 82 0 0 81 0 0 81 0 0 81 0 80 80 80 80 80 80 209 209 209 208 208 208 208 208 208 208 208 208 207 207 207 141 0 141 174 0 174 0 0 185 191 0 191 0 0 193 0 0 193 0 0 192 0 0 190 0 0 186 0 0 181 0 0 175 169 0 169 161 0 161 153 0 153 143 0 143 133 0 133 121 0 121 0 0 108 0 0 92 75 0 75 0 0 53 0 0 26 0 197 0 0 196 0 0 196 0 0 195 0 0 195 0 0 194 0 0 193 0 0 193 0 0 192 0 0 192 0 191 191 191 191 191 191 190 190 190 189 189 189 189 189 189 188 188 188 188 188 188 188 188 188 189 189 189 0 189 0 0 189 0 0 189 0 0 190 0 0 190 0 0 190 0 0 191 0 0 191 0 0 191 0 191 191 191 191 191 191 192 192 192 192 192 192 192 192 192 192 192 192 192 192 192 192 192 192 192 192 192 193 193 193 193 193 193 0 193 0 0 193 0 0 193 0 0 193 0 0 193 0 0 193 0 0 89 0 0 89 0 0 88 0 0 88 0 0 88 0 0 87 0 87 87 87 87 87 87 86 86 86 86 86 86 86 86 86 85 85 85 85 85 85 85 85 85 84 84 84 84 84 84 84 84 84 0 83 0 0 83 0 0 83 0 0 82 0 0 82 0 0 82 0 0 81 0 0 81 0 0 80 0 211 211 211 211 211 211 210 210 210 210 210 210 209 209 209 209 209 209 0 209 0 140 0 140 0 0 169 0 0 180 0 0 185 187 0 187 0 0 188 0 0 186 0 0 184 0 0 180 0 0 175 0 0 170 163 0 163 156 0 156 147 0 147 138 0 138 127 0 127 115 0 115 102 0 102 87 0 87 70 0 70 0 0 49 0 0 26 0 26 0 0 26 0 0 26 0 0 196 0 0 196 0 0 195 0 0 195 0 0 194 0 0 194 0 0 193 0 0 192 0 0 192 0 0 191 0 191 191 191 190 190 190 190 190 190 189 189 189 188 188 188 188 188 188 0 188 0 0 188 0 0 189 0 0 189 0 0 189 0 0 189 0 0 190 0 0 190 0 0 190 0 190 190 190 191 191 191 191 191 191 191 191 191 191 191 191 191 191 191 191 191 191 192 192 192 192 192 192 192 192 192 192 192 192 0 192 0 0 192 0 0 192 0 0 192 0 0 193 0 0 193 0 0 89 0 0 88 0 0 88 0 0 88 0 0 87 0 0 87 0 0 87 0 86 86 86 86 86 86 86 86 86 85 85 85 85 85 85 85 85 85 84 84 84 84 84 84 84 84 84 83 83 83 83 83 83 0 83 0 0 82 0 0 82 0 0 82 0 0 81 0 0 81 0 213 213 213 213 213 213 212 212 212 212 212 212 212 212 212 211 211 211 0 211 0 0 210 0 0 210 0 132 0 132 0 0 161 0 0 172 0 0 178 180 0 180 181 0 181 180 0 180 177 0 177 174 0 174 169 0 169 163 0 163 0 0 157 0 0 149 0 0 141 0 0 131 0 0 121 0 0 109 96 0 96 81 0 81 63 0 63 42 0 42 0 0 26 0 26 0 0 26 0 0 26 0 0 26 0 0 26 0 0 197 0 0 196 0 0 195 0 0 195 0 0 194 0 0 194 0 0 193 0 0 193 0 0 192 0 0 191 0 191 191 191 190 190 190 190 190 190 189 189 189 189 189 189 188 188 188 0 188 0 0 188 0 0 188 0 0 189 0 0 189 0 0 189 0 189 189 189 190 190 190 190 190 190 190 190 190 190 190 190 190 190 190 191 191 191 191 191 191 191 191 191 191 191 191 191 191 191 0 191 0 0 191 0 0 192 0 0 192 0 0 192 0 0 192 0 0 192 0 0 88 0 0 88 0 0 88 0 0 87 0 0 87 0 0 87 0 0 86 0 86 86 86 86 86 86 85 85 85 85 85 85 85 85 85 84 84 84 84 84 84 84 84 84 83 83 83 83 83 83 83 83 83 0 82 0 0 82 0 0 82 0 215 215 215 215 215 215 214 214 214 214 214 214 214 214 214 213 213 213 213 213 213 0 213 0 0 212 0 0 212 0 0 212 0 0 211 0 0 211 0 0 0 152 0 0 164 0 0 170 172 0 172 173 0 173 172 0 172 169 0 169 166 0 166 161 0 161 156 0 156 0 0 149 0 0 142 0 0 133 0 0 124 0 0 113 0 0 101 88 0 88 73 0 73 55 0 55 34 0 34 0 0 26 26 26 26 26 26 26 26 26 26 26 26 26 0 26 0 0 26 0 0 197 0 0 197 0 0 196 0 0 196 0 0 195 0 0 194 0 0 194 0 0 193 0 0 193 0 0 192 0 0 192 0 191 191 191 190 190 190 190 190 190 189 189 189 189 189 189 188 188 188 187 187 187 0 188 0 0 188 0 0 188 0 189 189 189 189 189 189 189 189 189 189 189 189 189 189 189 190 190 190 190 190 190 190 190 190 190 190 190 190 190 190 190 190 190 0 191 0 0 191 0 0 191 0 0 191 0 0 191 0 0 191 0 0 191 0 0 88 0 0 88 0 0 87 0 0 87 0 0 87 0 0 86 0 0 86 0 86 86 86 85 85 85 85 85 85 85 85 85 84 84 84 84 84 84 84 84 84 83 83 83 83 83 83 83 83 83 82 82 82 0 82 0 217 217 217 216 216 216 216 216 216 216 216 216 216 216 216 215 215 215 215 215 215 215 215 215 0 214 0 0 214 0 0 214 0 0 213 0 0 213 0 0 212 0 0 212 0 0 0 139 0 0 153 0 0 160 0 0 163 164 0 164 163 0 163 161 0 161 157 0 157 153 0 153 147 0 147 0 0 141 0 0 133 0 0 125 0 0 115 0 0 105 0 0 93 79 0 79 64 0 64 46 0 46 26 0 26 0 0 26 26 26 26 26 26 26 26 26 26 26 26 26 26 26 26 26 26 26 198 198 198 0 198 0 0 197 0 0 197 0 0 196 0 0 196 0 0 195 0 0 194 0 0 194 0 0 193 0 0 193 0 0 192 0 192 192 192 191 191 191 190 190 190 190 190 190 189 189 189 189 189 189 188 188 188 187 187 187 0 187 0 188 188 188 188 188 188 188 188 188 188 188 188 189 189 189 189 189 189 189 189 189 189 189 189 189 189 189 190 190 190 190 190 190 0 190 0 0 190 0 0 190 0 0 190 0 0 190 0 0 190 0 0 191 0 0 88 0 0 87 0 0 87 0 0 87 0 0 86 0 0 86 0 0 86 0 0 85 0 85 85 85 85 85 85 84 84 84 84 84 84 84 84 84 83 83 83 83 83 83 83 83 83 82 82 82 218 218 218 218 218 218 218 218 218 218 218 218 217 217 217 217 217 217 217 217 217 216 216 216 0 216 0 0 216 0 0 215 0 0 215 0 0 215 0 0 214 0 0 214 0 0 214 0 0 213 0 122 0 122 0 0 140 0 0 148 0 0 152 153 0 153 153 0 153 151 0 151 147 0 147 143 0 143 138 0 138 0 0 131 0 0 124 0 0 115 0 0 106 0 0 95 0 0 83 69 0 69 53 0 53 34 0 34 26 0 26 26 0 26 26 26 26 26 26 26 26 26 26 26 26 26 26 26 26 26 26 26 26 26 26 199 199 199 198 198 198 0 198 0 0 197 0 0 197 0 0 196 0 0 196 0 0 195 0 0 194 0 0 194 0 0 193 0 0 193 0 0 192 0 192 192 192 191 191 191 190 190 190 190 190 190 189 189 189 189 189 189 188 188 188 187 187 187 187 187 187 187 187 187 188 188 188 188 188 188 188 188 188 188 188 188 188 188 188 189 189 189 189 189 189 0 189 0 0 189 0 0 189 0 0 189 0 0 189 0 0 190 0 0 190 0 0 190 0 0 87 0 0 87 0 0 87 0 0 86 0 0 86 0 0 86 0 0 85 0 0 85 0 85 85 85 84 84 84 84 84 84 84 84 84 83 83 83 83 83 83 220 220 220 220 220 220 220 220 220 220 220 220 219 219 219 219 219 219 219 219 219 218 218 218 218 218 218 218 218 218 0 218 0 0 217 0 0 217 0 0 216 0 0 216 0 0 216 0 0 215 0 0 215 0 0 215 0 0 214 0 0 0 92 123 0 123 0 0 134 0 0 139 141 0 141 141 0 141 140 0 140 137 0 137 132 0 132 127 0 127 0 0 120 0 0 113 0 0 104 0 0 95 0 0 84 0 0 71 57 0 57 40 0 40 0 0 26 0 0 26 26 26 26 26 26 26 26 26 26 26 26 26 26 26 26 26 26 26 26 26 26 26 26 26 200 200 200 199 199 199 199 199 199 0 198 0 0 198 0 0 197 0 0 197 0 0 196 0 0 196 0 0 195 0 0 194 0 0 194 0 0 193 0 0 193 0 192 192 192 192 192 192 191 191 191 190 190 190 190 190 190 189 189 189 189 189 189 188 188 188 187 187 187 187 187 187 187 187 187 187 187 187 187 187 187 188 188 188 188 188 188 188 188 188 0 188 0 0 188 0 0 188 0 0 189 0 0 189 0 0 189 0 0 189 0 0 189 0 0 87 0 0 87 0 0 86 0 0 86 0 0 86 0 0 85 0 0 85 0 0 85 0 84 84 84 84 84 84 84 84 84 83 83 83 0 222 0 222 222 222 221 221 221 221 221 221 221 221 221 221 221 221 220 220 220 220 220 220 220 220 220 219 219 219 219 219 219 0 219 0 0 219 0 0 218 0 0 218 0 0 217 0 0 217 0 0 217 0 0 216 0 0 216 0 0 216 0 215 215 215 215 215 215 101 0 101 117 0 117 124 0 124 127 0 127 128 0 128 127 0 127 124 0 124 120 0 120 115 0 115 0 0 108 0 0 101 0 0 92 0 0 82 0 0 71 0 0 58 0 0 43 0 0 26 0 0 26 0 0 26 26 26 26 26 26 26 26 26 26 26 26 26 26 26 26 26 26 26 26 26 26 202 202 202 201 201 201 201 201 201 200 200 200 199 199 199 121 0 121 0 0 129 115 0 115 0 197 0 0 197 0 0 196 0 0 195 0 0 195 0 0 194 0 0 194 0 0 193 0 193 193 193 192 192 192 191 191 191 191 191 191 190 190 190 190 190 190 189 189 189 189 189 189 188 188 188 187 187 187 0 187 0 187 187 187 187 187 187 187 187 187 187 187 187 0 187 0 0 188 0 0 188 0 0 188 0 0 188 0 0 188 0 0 188 0 0 188 0 0 87 0 0 86 0 0 86 0 0 86 0 0 85 0 0 85 0 0 85 0 0 84 0 0 84 0 0 223 0 0 223 0 0 223 0 223 223 223 223 223 223 222 222 222 222 222 222 222 222 222 222 222 222 221 221 221 221 221 221 221 221 221 220 220 220 0 220 0 0 220 0 0 219 0 0 219 0 0 219 0 0 218 0 0 218 0 0 218 0 0 217 0 0 217 0 217 217 217 216 216 216 216 216 216 215 215 215 94 0 94 106 0 106 0 0 111 0 0 113 0 0 112 0 0 110 106 0 106 101 0 101 0 0 95 87 0 87 78 0 78 68 0 68 56 0 56 43 0 43 0 0 26 0 0 26 0 0 26 0 26 0 0 26 0 0 26 0 26 26 26 26 26 26 26 26 26 26 26 26 26 26 26 203 203 203 202 202 202 201 201 201 151 0 151 0 0 173 0 0 178 0 0 174 0 0 163 145 0 145 116 0 116 0 197 0 0 196 0 0 196 0 0 195 0 0 195 0 0 194 0 0 194 0 193 193 193 192 192 192 192 192 192 191 191 191 191 191 191 190 190 190 190 190 190 189 189 189 188 188 188 188 188 188 0 187 0 0 187 0 0 186 0 0 186 0 0 187 0 0 187 0 0 187 0 0 187 0 0 187 0 0 187 0 0 188 0 0 188 0 0 86 0 0 86 0 0 86 0 0 85 0 0 85 0 0 85 0 0 84 0 0 225 0 0 225 0 0 224 0 0 224 0 224 224 224 224 224 224 224 224 224 223 223 223 223 223 223 223 223 223 223 223 223 222 222 222 222 222 222 222 222 222 0 221 0 0 221 0 0 221 0 0 220 0 0 220 0 0 220 0 0 219 0 0 219 0 0 219 0 0 218 0 218 218 218 217 217 217 217 217 217 217 217 217 216 216 216 216 216 216 81 0 81 0 0 90 0 0 94 0 0 95 0 0 93 0 0 90 0 0 85 79 0 79 71 0 71 62 0 62 51 0 51 39 0 39 26 0 26 0 0 26 0 0 26 0 26 0 0 26 0 0 26 0 0 26 0 0 26 0 0 26 0 26 26 26 26 26 26 204 204 204 204 204 204 203 203 203 159 0 159 185 0 185 0 0 194 195 0 195 190 0 190 180 0 180 0 0 164 0 0 142 0 0 111 0 0 43 0 197 0 0 196 0 0 196 0 0 195 0 0 195 0 0 194 0 193 193 193 193 193 193 192 192 192 192 192 192 191 191 191 191 191 191 190 190 190 189 189 189 189 189 189 188 188 188 0 188 0 0 187 0 0 187 0 0 186 0 0 186 0 0 186 0 0 186 0 0 187 0 0 187 0 0 187 0 0 187 0 0 86 0 0 86 0 0 85 0 0 85 0 0 85 0 0 226 0 0 226 0 0 226 0 0 226 0 0 225 0 225 225 225 225 225 225 225 225 225 225 225 225 224 224 224 224 224 224 224 224 224 223 223 223 223 223 223 223 223 223 0 223 0 0 222 0 0 222 0 0 222 0 0 221 0 0 221 0 0 221 0 0 220 0 0 220 0 0 219 0 219 219 219 219 219 219 218 218 218 218 218 218 217 217 217 217 217 217 217 217 217 216 216 216 0 0 61 0 0 70 0 0 73 0 0 73 0 0 71 0 0 66 60 0 60 52 0 52 43 0 43 31 0 31 26 0 26 26 0 26 0 0 26 0 26 0 0 26 0 0 26 0 0 26 0 0 26 0 0 26 0 0 26 0 0 26 0 205 205 205 205 205 205 204 204 204 0 0 132 0 0 181 0 0 197 0 0 202 202 0 202 196 0 196 186 0 186 0 0 172 0 0 153 0 0 126 87 0 87 0 198 0 0 197 0 0 197 0 0 196 0 0 196 0 0 195 0 0 194 0 194 194 194 193 193 193 193 193 193 192 192 192 192 192 192 191 191 191 190 190 190 190 190 190 189 189 189 189 189 189 0 188 0 0 188 0 0 187 0 0 186 0 0 186 0 0 186 0 0 186 0 0 186 0 0 186 0 0 186 0 0 86 0 0 85 0 0 228 0 0 227 0 0 227 0 0 227 0 0 227 0 0 227 0 0 227 0 226 226 226 226 226 226 226 226 226 226 226 226 225 225 225 225 225 225 225 225 225 225 225 225 224 224 224 224 224 224 224 224 224 0 223 0 0 223 0 0 223 0 0 222 0 0 222 0 0 222 0 0 221 0 0 221 0 0 221 0 0 220 0 220 220 220 220 220 220 219 219 219 219 219 219 218 218 218 218 218 218 217 217 217 217 217 217 217 217 217 30 0 30 0 0 43 0 0 46 0 0 45 0 0 42 36 0 36 28 0 28 26 0 26 26 0 26 26 0 26 0 0 26 0 26 0 0 26 0 0 26 0 0 26 0 0 26 0 0 26 0 0 26 0 0 26 0 0 207 0 0 206 0 206 206 206 205 205 205 0 0 157 0 0 187 0 0 199 0 0 203 202 0 202 0 0 197 0 0 187 173 0 173 155 0 155 0 0 131 98 0 98 40 0 40 0 198 0 0 198 0 0 197 0 0 196 0 0 196 0 0 195 0 195 195 195 194 194 194 194 194 194 193 193 193 193 193 193 192 192 192 191 191 191 191 191 191 190 190 190 190 190 190 189 189 189 0 189 0 0 188 0 0 187 0 0 187 0 0 186 0 0 186 0 0 185 0 0 185 0 0 186 0 0 229 0 0 229 0 0 228 0 0 228 0 0 228 0 0 228 0 0 228 0 0 228 0 227 227 227 227 227 227 227 227 227 227 227 227 226 226 226 226 226 226 226 226 226 226 226 226 225 225 225 225 225 225 225 225 225 0 225 0 0 224 0 0 224 0 0 224 0 0 223 0 0 223 0 0 223 0 0 222 0 0 222 0 0 221 0 221 221 221 221 221 221 220 220 220 220 220 220 219 219 219 219 219 219 219 219 219 218 218 218 218 218 218 217 217 217 217 217 217 0 26 0 0 26 0 26 0 26 26 0 26 0 0 26 0 0 26 0 0 26 0 26 0 0 26 0 0 26 0 0 26 0 0 26 0 0 26 0 0 26 0 0 26 0 0 26 0 0 209 0 0 208 0 0 208 0 0 207 0 207 207 207 206 206 206 159 0 159 184 0 184 0 0 195 199 0 199 12 12 210 0 0 192 0 0 183 169 0 169 152 0 152 129 0 129 0 0 98 50 0 50 0 26 0 0 198 0 0 198 0 0 197 0 0 197 0 0 196 0 0 196 0 195 195 195 195 195 195 194 194 194 193 193 193 193 193 193 192 192 192 192 192 192 191 191 191 191 191 191 190 190 190 190 190 190 0 189 0 0 188 0 0 188 0 0 187 0 0 187 0 0 186 0 0 186 0 0 185 0 0 230 0 0 229 0 0 229 0 0 229 0 0 229 0 0 229 0 0 229 0 0 228 0 228 228 228 228 228 228 228 228 228 227 227 227 227 227 227 227 227 227 227 227 227 226 226 226 226 226 226 226 226 226 0 226 0 0 225 0 0 225 0 0 225 0 0 224 0 0 224 0 0 224 0 0 223 0 0 223 0 0 223 0 0 222 0 222 222 222 0 0 173 165 0 165 141 0 141 101 0 101 220 220 220 219 219 219 219 219 219 219 219 219 218 218 218 0 218 0 0 217 0 0 217 0 0 26 0 0 26 0 0 26 0 0 26 0 0 26 0 0 26 0 0 26 0 0 26 0 0 26 0 0 26 0 0 26 0 0 26 0 0 210 0 0 210 0 0 209 0 0 209 0 0 208 0 0 208 0 0 207 0 207 207 207 151 0 151 176 0 176 0 0 187 190 0 190 0 0 189 0 0 184 0 0 174 161 0 161 144 0 144 121 0 121 0 0 91 46 0 46 0 26 0 0 26 0 0 199 0 0 198 0 0 198 0 0 197 0 0 197 0 0 196 0 195 195 195 195 195 195 194 194 194 194 194 194 193 193 193 193 193 193 192 192 192 192 192 192 191 191 191 190 190 190 0 190 0 0 189 0 0 189 0 0 188 0 0 188 0 0 187 0 0 187 0 0 186 0 0 230 0 0 230 0 0 230 0 0 230 0 0 230 0 0 230 0 0 229 0 229 229 229 229 229 229 229 229 229 228 228 228 228 228 228 228 228 228 228 228 228 227 227 227 227 227 227 227 227 227 227 227 227 0 226 0 0 226 0 0 226 0 0 225 0 0 225 0 0 225 0 0 224 0 0 224 0 0 224 0 0 223 0 223 223 223 197 0 197 196 0 196 0 0 183 0 0 159 125 0 125 0 0 76 220 220 220 220 220 220 219 219 219 219 219 219 0 218 0 0 218 0 0 217 0 0 217 0 0 217 0 0 216 0 0 216 0 0 26 0 0 26 0 0 26 0 0 214 0 0 213 0 0 213 0 0 212 0 0 212 0 0 211 0 0 211 0 0 210 0 0 210 0 0 209 0 0 209 0 0 208 0 208 208 208 132 0 132 0 0 161 0 0 173 0 0 177 176 0 176 171 0 171 0 0 162 149 0 149 0 0 132 0 0 109 79 0 79 31 0 31 0 26 0 0 26 0 0 26 0 0 199 0 0 198 0 0 198 0 0 197 0 0 197 0 196 196 196 196 196 196 195 195 195 195 195 195 194 194 194 194 194 194 193 193 193 192 192 192 192 192 192 191 191 191 191 191 191 0 190 0 0 190 0 0 189 0 0 189 0 0 188 0 0 187 0 0 187 0 0 231 0 0 231 0 0 231 0 0 231 0 0 230 0 0 230 0 230 230 230 230 230 230 230 230 230 229 229 229 229 229 229 229 229 229 229 229 229 228 228 228 228 228 228 228 228 228 228 228 228 0 227 0 0 227 0 0 227 0 0 226 0 0 226 0 0 226 0 0 225 0 0 225 0 0 225 0 0 224 0 0 224 0 0 0 190 204 0 204 199 0 199 0 0 183 0 0 160 127 0 127 83 0 83 26 0 26 26 26 26 220 220 220 219 219 219 0 219 0 0 219 0 0 218 0 0 218 0 0 217 0 0 217 0 0 216 0 0 216 0 0 215 0 0 215 0 0 214 0 0 214 0 0 213 0 0 213 0 0 212 0 0 212 0 0 211 0 0 211 0 0 210 0 0 210 0 0 209 0 0 209 0 208 208 208 0 0 99 0 0 138 0 0 153 0 0 159 159 0 159 154 0 154 145 0 145 0 0 132 0 0 115 0 0 91 59 0 59 26 0 26 0 26 0 0 26 0 0 26 0 0 200 0 0 199 0 0 199 0 0 198 0 0 198 0 0 197 0 197 197 197 196 196 196 195 195 195 195 195 195 194 194 194 194 194 194 193 193 193 193 193 193 192 192 192 192 192 192 191 191 191 0 191 0 0 190 0 0 189 0 0 189 0 0 188 0 0 188 0 0 232 0 0 232 0 0 232 0 0 231 0 0 231 0 0 231 0 231 231 231 231 231 231 230 230 230 230 230 230 230 230 230 230 230 230 229 229 229 229 229 229 229 229 229 228 228 228 228 228 228 0 228 0 0 228 0 0 227 0 0 227 0 0 227 0 0 226 0 0 226 0 0 226 0 0 225 0 0 225 0 0 225 0 189 0 189 0 0 197 1 1 191 174 0 174 150 0 150 0 0 119 0 0 76 0 0 26 26 26 26 26 26 26 220 220 220 220 220 220 0 219 0 0 219 0 0 218 0 0 218 0 0 217 0 0 217 0 0 216 0 0 216 0 0 216 0 0 215 0 0 215 0 0 214 0 0 214 0 0 213 0 0 213 0 0 212 0 0 212 0 0 211 0 0 211 0 0 210 0 210 210 210 209 209 209 209 209 209 105 0 105 127 0 127 0 0 135 136 0 136 132 0 132 124 0 124 0 0 110 0 0 92 0 0 66 28 0 28 0 26 0 0 26 0 0 26 0 0 26 0 0 201 0 0 200 0 0 200 0 0 199 0 0 198 0 0 198 0 197 197 197 197 197 197 196 196 196 196 196 196 195 195 195 195 195 195 194 194 194 194 194 194 193 193 193 192 192 192 192 192 192 0 191 0 0 191 0 0 190 0 0 190 0 0 189 0 0 189 0 0 233 0 0 232 0 0 232 0 0 232 0 0 232 0 232 232 232 231 231 231 231 231 231 231 231 231 231 231 231 230 230 230 230 230 230 230 230 230 230 230 230 229 229 229 229 229 229 229 229 229 0 228 0 0 228 0 0 228 0 0 228 0 0 227 0 0 227 0 0 227 0 0 226 0 0 226 0 0 225 0 0 225 0 0 0 172 0 0 180 0 0 173 157 0 157 133 0 133 101 0 101 57 0 57 0 0 26 26 26 26 26 26 26 26 26 26 220 220 220 0 220 0 0 219 0 0 219 0 0 218 0 0 218 0 0 218 0 0 217 0 0 217 0 0 216 0 0 216 0 0 215 0 0 215 0 0 214 0 0 214 0 0 213 0 0 213 0 0 212 0 0 212 0 0 211 0 0 211 0 210 210 210 210 210 210 209 209 209 209 209 209 86 0 86 102 0 102 0 0 106 0 0 103 95 0 95 0 0 81 60 0 60 29 0 29 0 26 0 0 26 0 0 26 0 0 26 0 0 202 0 0 201 0 0 201 0 0 200 0 0 200 0 0 199 0 0 199 0 198 198 198 198 198 198 197 197 197 196 196 196 196 196 196 195 195 195 195 195 195 194 194 194 194 194 194 193 193 193 193 193 193 192 192 192 0 192 0 0 191 0 0 191 0 0 190 0 0 190 0 0 233 0 0 233 0 0 233 0 0 233 0 0 232 0 232 232 232 232 232 232 232 232 232 232 232 232 231 231 231 231 231 231 231 231 231 231 231 231 230 230 230 230 230 230 230 230 230 0 229 0 0 229 0 0 229 0 0 228 0 0 228 0 0 228 0 0 227 0 0 227 0 0 227 0 0 226 0 0 226 0 0 226 0 0 0 141 154 0 154 148 0 148 0 0 132 0 0 107 74 0 74 27 0 27 26 0 26 26 26 26 26 26 26 221 221 221 221 221 221 220 220 220 0 220 0 0 219 0 0 219 0 0 219 0 0 218 0 0 218 0 0 217 0 0 217 0 0 216 0 0 216 0 0 215 0 0 215 0 0 214 0 0 214 0 0 213 0 0 213 0 0 212 0 0 212 0 211 211 211 211 211 211 210 210 210 210 210 210 209 209 209 209 209 209 0 0 45 0 0 61 0 0 61 0 0 54 37 0 37 26 0 26 26 26 26 0 26 0 0 26 0 0 26 0 0 203 0 0 203 0 0 202 0 0 202 0 0 201 0 0 200 0 0 200 0 0 199 0 0 199 0 198 198 198 198 198 198 197 197 197 197 197 197 196 196 196 196 196 196 195 195 195 195 195 195 194 194 194 194 194 194 193 193 193 0 192 0 0 192 0 0 191 0 0 191 0 0 190 0 0 234 0 0 234 0 0 233 0 0 233 0 233 233 233 233 233 233 233 233 233 232 232 232 232 232 232 232 232 232 232 232 232 231 231 231 231 231 231 231 231 231 231 231 231 230 230 230 0 230 0 0 230 0 0 229 0 0 229 0 0 229 0 0 228 0 0 228 0 0 228 0 0 227 0 0 227 0 0 227 0 0 226 0 226 226 226 112 0 112 111 0 111 0 0 96 0 0 70 0 0 33 0 0 26 26 26 26 26 26 26 26 26 26 222 222 222 221 221 221 221 221 221 220 220 220 0 220 0 0 220 0 0 219 0 0 219 0 0 218 0 0 218 0 0 217 0 0 217 0 0 216 0 0 216 0 0 215 0 0 215 0 0 214 0 0 214 0 0 213 0 0 213 0 212 212 212 212 212 212 211 211 211 211 211 211 210 210 210 210 210 210 209 209 209 209 209 209 26 26 26 26 26 26 26 26 26 26 26 26 26 26 26 26 26 26 0 26 0 0 26 0 0 204 0 0 204 0 0 203 0 0 203 0 0 202 0 0 202 0 0 201 0 0 201 0 0 200 0 0 200 0 199 199 199 199 199 199 198 198 198 197 197 197 197 197 197 196 196 196 196 196 196 195 195 195 195 195 195 194 194 194 194 194 194 193 193 193 0 193 0 0 192 0 0 192 0 0 191 0 0 234 0 0 234 0 0 234 0 0 234 0 234 234 234 233 233 233 233 233 233 233 233 233 233 233 233 232 232 232 232 232 232 232 232 232 232 232 232 231 231 231 231 231 231 231 231 231 0 230 0 0 230 0 0 230 0 0 229 0 0 229 0 0 229 0 0 228 0 0 228 0 0 228 0 0 227 0 0 227 0 0 227 0 0 226 0 226 226 226 0 0 47 38 0 38 26 0 26 26 26 26 26 26 26 26 26 26 223 223 223 223 223 223 222 222 222 222 222 222 221 221 221 221 221 221 221 221 221 220 220 220 0 220 0 0 219 0 0 219 0 0 218 0 0 218 0 0 217 0 0 217 0 0 216 0 0 216 0 0 215 0 0 215 0 0 215 0 214 214 214 214 214 214 213 213 213 213 213 213 212 212 212 212 212 212 211 211 211 211 211 211 210 210 210 210 210 210 209 209 209 209 209 209 208 208 208 208 208 208 207 207 207 0 206 0 0 206 0 0 205 0 0 205 0 0 204 0 0 204 0 0 203 0 0 203 0 0 202 0 0 202 0 0 201 0 0 201 0 0 200 0 200 200 200 199 199 199 199 199 199 198 198 198 198 198 198 197 197 197 197 197 197 196 196 196 196 196 196 195 195 195 194 194 194 194 194 194 0 193 0 0 193 0 0 192 0 0 192 0 0 235 0 0 235 0 0 235 0 234 234 234 234 234 234 234 234 234 234 234 234 233 233 233 233 233 233 233 233 233 233 233 233 232 232 232 232 232 232 232 232 232 232 232 232 231 231 231 0 231 0 0 231 0 0 230 0 0 230 0 0 230 0 0 229 0 0 229 0 0 229 0 0 228 0 0 228 0 0 228 0 0 227 0 0 227 0 226 226 226 226 226 226 226 226 226 26 26 26 26 26 26 224 224 224 224 224 224 224 224 224 223 223 223 223 223 223 222 222 222 222 222 222 222 222 222 221 221 221 221 221 221 220 220 220 220 220 220 219 219 219 0 219 0 0 218 0 0 218 0 0 217 0 0 217 0 0 216 0 216 216 216 216 216 216 215 215 215 215 215 215 214 214 214 214 214 214 213 213 213 213 213 213 212 212 212 212 212 212 211 211 211 211 211 211 210 210 210 210 210 210 209 209 209 209 209 209 208 208 208 208 208 208 0 207 0 0 207 0 0 206 0 0 206 0 0 205 0 0 205 0 0 204 0 0 203 0 0 203 0 0 202 0 0 202 0 0 201 0 0 201 0 200 200 200 200 200 200 199 199 199 199 199 199 198 198 198 198 198 198 197 197 197 197 197 197 196 196 196 196 196 196 195 195 195 195 195 195 194 194 194 0 194 0 0 193 0 0 193 0 0 235 0 0 235 0 0 235 0 235 235 235 235 235 235 234 234 234 234 234 234 234 234 234 234 234 234 233 233 233 233 233 233 233 233 233 233 233 233 232 232 232 232 232 232 232 232 232 0 231 0 0 231 0 0 231 0 0 230 0 0 230 0 0 230 0 0 229 0 0 229 0 0 229 0 0 228 0 0 228 0 0 228 0 0 227 0 227 227 227 226 226 226 226 226 226 226 226 226 225 225 225 225 225 225 225 225 225 224 224 224 224 224 224 223 223 223 223 223 223 222 222 222 222 222 222 222 222 222 221 221 221 221 221 221 220 220 220 220 220 220 219 219 219 219 219 219 218 218 218 218 218 218 217 217 217 217 217 217 217 217 217 216 216 216 216 216 216 215 215 215 215 215 215 214 214 214 214 214 214 213 213 213 213 213 213 212 212 212 212 212 212 211 211 211 211 211 211 210 210 210 210 210 210 209 209 209 209 209 209 208 208 208 0 208 0 0 207 0 0 207 0 0 206 0 0 206 0 0 205 0 0 205 0 0 204 0 0 204 0 0 203 0 0 203 0 0 202 0 0 202 0 201 201 201 201 201 201 200 200 200 199 199 199 199 199 199 198 198 198 198 198 198 197 197 197 197 197 197 196 196 196 196 196 196 195 195 195 195 195 195 0 194 0 0 194 0 0 193 0 0 236 0 0 236 0 0 235 0 235 235 235 235 235 235 235 235 235 235 235 235 234 234 234 234 234 234 234 234 234 234 234 234 233 233 233 233 233 233 233 233 233 232 232 232 232 232 232 0 232 0 0 231 0 0 231 0 0 231 0 0 231 0 0 230 0 0 230 0 0 229 0 0 229 0 0 229 0 0 228 0 0 228 0 0 228 0 0 227 0 227 227 227 227 227 227 226 226 226 226 226 226 225 225 225 225 225 225 225 225 225 224 224 224 224 224 224 223 223 223 223 223 223 222 222 222 222 222 222 222 222 222 221 221 221 221 221 221 220 220 220 220 220 220 219 219 219 219 219 219 218 218 218 218 218 218 217 217 217 217 217 217 217 217 217 216 216 216 216 216 216 215 215 215 215 215 215 214 214 214 214 214 214 213 213 213 213 213 213 212 212 212 212 212 212 211 211 211 211 211 211 210 210 210 210 210 210 209 209 209 0 209 0 0 208 0 0 208 0 0 207 0 0 207 0 0 206 0 0 206 0 0 205 0 0 205 0 0 204 0 0 204 0 0 203 0 0 203 0 0 202 0 202 202 202 201 201 201 201 201 201 200 200 200 200 200 200 199 199 199 199 199 199 198 198 198 198 198 198 197 197 197 197 197 197 196 196 196 196 196 196 0 195 0 0 195 0 0 194 0 0 236 0 0 236 0 236 236 236 236 236 236 235 235 235 235 235 235 235 235 235 235 235 235 234 234 234 234 234 234 234 234 234 234 234 234 233 233 233 233 233 233 233 233 233 233 233 233 0 232 0 0 232 0 0 232 0 0 231 0 0 231 0 0 231 0 0 230 0 0 230 0 0 230 0 0 229 0 0 229 0 0 228 0 0 228 0 0 228 0 0 227 0 227 227 227 227 227 227 226 226 226 226 226 226 225 225 225 225 225 225 225 225 225 224 224 224 224 224 224 223 223 223 223 223 223 222 222 222 222 222 222 222 222 222 221 221 221 221 221 221 220 220 220 220 220 220 219 219 219 219 219 219 218 218 218 218 218 218 217 217 217 217 217 217 217 217 217 216 216 216 216 216 216 215 215 215 215 215 215 214 214 214 214 214 214 213 213 213 213 213 213 212 212 212 212 212 212 211 211 211 211 211 211 210 210 210 0 210 0 0 209 0 0 209 0 0 208 0 0 208 0 0 207 0 0 207 0 0 206 0 0 206 0 0 205 0 0 205 0 0 204 0 0 204 0 0 203 0 0 203 0 202 202 202 202 202 202 201 201 201 201 201 201 200 200 200 200 200 200 199 199 199 199 199 199 198 198 198 198 198 198 197 197 197 197 197 197 196 196 196 196 196 196 0 195 0 0 195 0 0 237 0 0 237 0 236 236 236 236 236 236 236 236 236 236 236 236 235 235 235 235 235 235 235 235 235 235 235 235 234 234 234 234 234 234 234 234 234 233 233 233 233 233 233 233 233 233 0 233 0 0 232 0 0 232 0 0 232 0 0 231 0 0 231 0 0 231 0 0 230 0 0 230 0 0 230 0 0 229 0 0 229 0 0 228 0 0 228 0 0 228 0 227 227 227 227 227 227 227 227 227 226 226 226 226 226 226 225 225 225 225 225 225 225 225 225 224 224 224 224 224 224 223 223 223 223 223 223 222 222 222 222 222 222 222 222 222 221 221 221 221 221 221 220 220 220 220 220 220 219 219 219 219 219 219 218 218 218 218 218 218 217 217 217 217 217 217 217 217 217 216 216 216 216 216 216 215 215 215 215 215 215 214 214 214 214 214 214 213 213 213 213 213 213 212 212 212 212 212 212 211 211 211 211 211 211 0 210 0 0 210 0 0 209 0 0 209 0 0 208 0 0 208 0 0 207 0 0 207 0 0 206 0 0 206 0 0 205 0 0 205 0 0 204 0 0 204 0 0 203 0 203 203 203 202 202 202 202 202 202 201 201 201 201 201 201 200 200 200 200 200 200 199 199 199 199 199 199 198 198 198 198 198 198 197 197 197 197 197 197 196 196 196 0 196 0 0 195 0 0 237 0 0 237 0 237 237 237 236 236 236 236 236 236 236 236 236 236 236 236 236 236 236 235 235 235 235 235 235 235 235 235 234 234 234 234 234 234 234 234 234 234 234 234 233 233 233 0 233 0 0 233 0 0 232 0 0 232 0 0 232 0 0 231 0 0 231 0 0 231 0 0 230 0 0 230 0 0 230 0 0 229 0 0 229 0 0 228 0 0 228 0 0 228 0 227 227 227 227 227 227 227 227 227 226 226 226 226 226 226 225 225 225 225 225 225 225 225 225 224 224 224 224 224 224 223 223 223 223 223 223 222 222 222 222 222 222 222 222 222 221 221 221 221 221 221 220 220 220 220 220 220 219 219 219 219 219 219 218 218 218 218 218 218 217 217 217 217 217 217 217 217 217 216 216 216 216 216 216 215 215 215 215 215 215 214 214 214 214 214 214 213 213 213 213 213 213 212 212 212 212 212 212 0 211 0 0 211 0 0 210 0 0 210 0 0 209 0 0 209 0 0 208 0 0 208 0 0 207 0 0 207 0 0 206 0 0 206 0 0 205 0 0 205 0 0 204 0 0 204 0 203 203 203 203 203 203 202 202 202 202 202 202 201 201 201 201 201 201 200 200 200 200 200 200 199 199 199 199 199 199 198 198 198 198 198 198 197 197 197 197 197 197 0 196 0 0 196 0 0 238 0 0 237 0 237 237 237 237 237 237 237 237 237 236 236 236 236 236 236 236 236 236 236 236 236 235 235 235 235 235 235 235 235 235 235 235 235 234 234 234 234 234 234 234 234 234 0 233 0 0 233 0 0 233 0 0 232 0 0 232 0 0 232 0 0 231 0 0 231 0 0 231 0 0 230 0 0 230 0 0 230 0 0 229 0 0 229 0 0 228 0 0 228 0 0 228 0 0 227 0 227 227 227 227 227 227 226 226 226 226 226 226 225 225 225 225 225 225 224 224 224 224 224 224 224 224 224 223 223 223 223 223 223 222 222 222 222 222 222 221 221 221 221 221 221 221 221 221 220 220 220 220 220 220 219 219 219 219 219 219 218 218 218 218 218 218 217 217 217 217 217 217 216 216 216 216 216 216 216 216 216 215 215 215 215 215 215 214 214 214 214 214 214 213 213 213 0 213 0 0 212 0 0 212 0 0 211 0 0 211 0 0 210 0 0 210 0 0 209 0 0 209 0 0 208 0 0 208 0 0 207 0 0 207 0 0 206 0 0 206 0 0 205 0 0 205 0 0 204 0 204 204 204 203 203 203 203 203 203 202 202 202 202 202 202 201 201 201 201 201 201 201 201 201 200 200 200 200 200 200 199 199 199 199 199 199 198 198 198 198 198 198 0 197 0 0 197 0 0 238 0 238 238 238 237 237 237 237 237 237 237 237 237 237 237 237 236 236 236 236 236 236 236 236 236 236 236 236 235 235 235 235 235 235 235 235 235 235 235 235 234 234 234 234 234 234 234 234 234 0 233 0 0 233 0 0 233 0 0 232 0 0 232 0 0 232 0 0 231 0 0 231 0 0 231 0 0 230 0 0 230 0 0 230 0 0 229 0 0 229 0 0 228 0 0 228 0 0 228 0 0 227 0 227 227 227 226 226 226 226 226 226 226 226 226 225 225 225 225 225 225 224 224 224 224 224 224 224 224 224 223 223 223 223 223 223 222 222 222 222 222 222 221 221 221 221 221 221 221 221 221 220 220 220 220 220 220 219 219 219 219 219 219 218 218 218 218 218 218 217 217 217 217 217 217 216 216 216 216 216 216 216 216 216 215 215 215 215 215 215 214 214 214 0 214 0 0 213 0 0 213 0 0 212 0 0 212 0 0 211 0 0 211 0 0 210 0 0 210 0 0 209 0 0 209 0 0 208 0 0 208 0 0 207 0 0 207 0 0 206 0 0 206 0 0 205 0 205 205 205 204 204 204 204 204 204 204 204 204 203 203 203 203 203 203 202 202 202 202 202 202 201 201 201 201 201 201 200 200 200 200 200 200 199 199 199 199 199 199 198 198 198 198 198 198 0 197 0 0 238 0 238 238 238 238 238 238 238 238 238 237 237 237 237 237 237 237 237 237 237 237 237 236 236 236 236 236 236 236 236 236 235 235 235 235 235 235 235 235 235 235 235 235 234 234 234 234 234 234 0 234 0 0 233 0 0 233 0 0 233 0 0 232 0 0 232 0 0 232 0 0 231 0 0 231 0 0 231 0 0 230 0 0 230 0 0 229 0 0 229 0 0 229 0 0 228 0 0 228 0 0 228 0 0 227 0 0 227 0 226 226 226 226 226 226 226 226 226 225 225 225 225 225 225 224 224 224 224 224 224 224 224 224 223 223 223 223 223 223 222 222 222 222 222 222 221 221 221 221 221 221 220 220 220 220 220 220 220 220 220 219 219 219 219 219 219 218 218 218 218 218 218 217 217 217 217 217 217 216 216 216 216 216 216 215 215 215 0 215 0 0 215 0 0 214 0 0 214 0 0 213 0 0 213 0 0 212 0 0 212 0 0 211 0 0 211 0 0 210 0 0 210 0 0 209 0 0 209 0 0 208 0 0 208 0 0 207 0 0 207 0 0 206 0 0 206 0 205 205 205 205 205 205 205 205 205 204 204 204 204 204 204 203 203 203 203 203 203 202 202 202 202 202 202 201 201 201 201 201 201 200 200 200 200 200 200 199 199 199 199 199 199 198 198 198 0 198 0 
