P3
100 50
255
0 95 0 0 95 0 0 94 0 0 94 0 0 94 0 0 94 0 0 93 93 0 93 93 0 93 93 0 92 92 0 92 92 0 92 92 0 91 91 0 91 91 0 91 91 0 90 90 0 90 90 0 90 90 0 89 0 0 89 0 0 88 0 0 88 0 0 88 0 0 87 0 0 87 0 0 87 0 0 86 0 0 86 0 0 85 85 0 85 85 0 85 85 0 84 84 0 84 84 0 83 83 0 83 83 0 82 82 0 82 82 0 82 0 0 81 0 0 81 0 0 80 0 0 80 0 0 79 0 0 79 0 0 78 0 0 78 78 0 77 77 0 77 77 0 76 76 0 76 76 0 196 196 0 196 196 0 197 197 0 197 197 0 198 198 0 199 0 0 199 0 0 200 0 0 200 0 0 200 0 0 201 0 0 201 0 0 202 0 0 202 202 0 202 202 0 203 203 0 203 203 0 203 203 0 203 203 0 204 204 0 204 204 0 204 204 0 204 0 0 204 0 0 205 0 0 205 0 0 205 0 0 205 0 0 205 0 0 205 0 0 205 0 0 205 0 0 206 206 0 206 206 0 206 206 0 206 206 0 206 206 0 206 206 0 206 206 0 206 206 0 206 206 0 206 206 0 206 206 0 206 206 0 206 0 0 206 0 0 206 0 0 206 0 0 206 0 0 206 0 0 95 0 0 94 0 0 94 0 0 94 0 0 94 0 0 93 0 0 93 93 0 93 93 0 92 92 0 92 92 0 92 92 0 91 91 0 91 91 0 91 91 0 90 90 0 90 90 0 90 90 0 89 89 0 89 0 0 89 0 0 88 0 0 88 0 0 87 0 0 87 0 0 87 0 0 86 0 0 86 0 0 86 0 0 85 85 0 85 85 0 84 84 0 84 84 0 83 83 0 83 83 0 83 83 0 82 82 0 82 0 0 81 0 0 81 0 0 80 0 0 80 0 0 79 0 0 79 0 0 78 0 0 78 78 0 77 77 0 77 77 0 76 76 0 76 76 0 75 75 0 195 195 0 195 195 0 196 196 0 197 197 0 197 197 0 198 198 0 198 0 0 199 0 0 199 0 0 200 0 0 200 0 0 200 0 0 201 0 0 201 0 0 202 202 0 202 202 0 202 202 0 202 202 0 203 203 0 203 203 0 203 203 0 203 203 0 204 0 0 204 0 0 204 0 0 204 0 0 204 0 0 204 0 0 204 0 0 205 0 0 205 0 0 205 0 0 205 205 0 205 205 0 205 205 0 205 205 0 205 205 0 205 205 0 205 205 0 205 205 0 205 205 0 205 205 0 205 205 0 205 205 0 205 0 0 205 0 0 205 0 0 205 0 0 205 0 0 205 0 0 94 0 0 94 0 0 94 0 0 94 0 0 93 0 0 93 0 0 93 93 0 92 92 0 92 92 0 92 92 0 91 91 0 91 91 0 91 91 0 90 90 0 90 90 0 90 90 0 89 89 0 89 89 0 89 0 0 88 0 0 88 0 0 88 0 0 87 0 0 87 0 0 86 0 0 86 0 0 86 0 0 85 0 0 85 85 0 84 84 0 84 84 0 84 84 0 83 83 0 83 83 0 82 82 0 82 82 0 81 0 0 81 0 0 81 0 0 80 0 0 80 0 0 79 0 0 79 0 0 78 0 0 78 78 0 77 77 0 77 77 0 76 76 0 76 76 0 75 75 0 194 194 0 194 194 0 195 195 0 196 196 0 196 196 0 197 197 0 197 0 0 198 0 0 198 0 0 199 0 0 199 0 0 200 0 0 200 0 0 200 0 0 201 201 0 201 201 0 201 201 0 202 202 0 202 202 0 202 202 0 202 202 0 203 203 0 203 0 0 203 0 0 203 0 0 203 0 0 203 0 0 204 0 0 204 0 0 204 0 0 204 0 0 204 0 0 204 204 0 204 204 0 204 204 0 204 204 0 204 204 0 204 204 0 205 205 0 205 205 0 205 205 0 205 205 0 205 205 0 205 205 0 205 0 0 205 0 0 205 0 0 205 0 0 205 0 0 205 0 0 94 0 0 94 0 0 94 0 0 93 0 0 93 0 0 93 0 0 92 92 0 92 92 0 92 92 0 91 91 0 91 91 0 91 91 0 90 90 0 90 90 0 90 90 0 89 89 0 89 89 0 89 89 0 88 0 0 88 0 0 88 0 0 87 0 0 87 0 0 87 0 0 86 0 0 86 0 0 85 0 0 85 85 0 85 85 0 84 84 0 84 84 0 83 83 0 83 83 0 82 82 0 82 82 0 82 82 0 81 0 0 81 0 0 80 0 0 80 0 0 79 0 0 79 0 0 78 0 0 78 78 0 77 77 0 77 77 0 76 76 0 76 76 0 75 75 0 75 75 0 193 193 0 194 194 0 194 194 0 195 195 0 195 195 0 196 196 0 197 197 0 197 0 0 198 0 0 198 0 0 198 0 0 199 0 0 199 0 0 200 0 0 200 200 0 200 200 0 201 201 0 201 201 0 201 201 0 201 201 0 202 202 0 202 202 0 202 202 0 202 0 0 202 0 0 203 0 0 203 0 0 203 0 0 203 0 0 203 0 0 203 0 0 203 0 0 203 203 0 204 204 0 204 204 0 204 204 0 204 204 0 204 204 0 204 204 0 204 204 0 204 204 0 204 204 0 204 204 0 204 204 0 204 0 0 204 0 0 204 0 0 204 0 0 204 0 0 204 0 0 94 0 0 94 0 0 93 0 0 93 0 0 93 0 0 92 0 0 92 92 0 92 92 0 92 92 0 91 91 0 91 91 0 91 91 0 90 90 0 90 90 0 90 90 0 89 89 0 89 89 0 88 0 0 88 0 0 88 0 0 87 0 0 87 0 0 87 0 0 86 0 0 86 0 0 86 0 0 85 0 0 85 85 0 84 84 0 84 84 0 83 83 0 83 83 0 83 83 0 82 82 0 82 82 0 81 0 0 81 0 0 80 0 0 80 0 0 80 0 0 79 0 0 79 0 0 78 78 0 78 78 0 77 77 0 77 77 0 76 76 0 76 76 0 75 75 0 75 75 0 192 192 0 193 193 0 193 193 0 194 194 0 195 195 0 195 195 0 196 196 0 196 196 0 197 0 0 197 0 0 198 0 0 198 0 0 198 0 0 199 0 0 199 0 0 199 199 0 200 200 0 200 200 0 200 200 0 201 201 0 201 201 0 201 201 0 201 201 0 202 0 0 202 0 0 202 0 0 202 0 0 202 0 0 202 0 0 202 0 0 203 0 0 203 0 0 203 0 0 203 203 0 203 203 0 203 203 0 203 203 0 203 203 0 203 203 0 203 203 0 203 203 0 203 203 0 203 203 0 203 203 0 203 0 0 203 0 0 203 0 0 204 0 0 204 0 0 204 0 0 94 0 0 93 0 0 93 0 0 93 0 0 92 0 0 92 0 0 92 92 0 92 92 0 91 91 0 91 91 0 91 91 0 90 90 0 90 90 0 90 90 0 89 89 0 89 89 0 89 89 0 88 0 0 88 0 0 87 0 0 87 0 0 87 0 0 86 0 0 86 0 0 86 0 0 85 0 0 85 0 0 84 84 0 84 84 0 84 84 0 83 83 0 83 83 0 82 82 0 82 82 0 81 81 0 81 0 0 81 0 0 80 0 0 80 0 0 79 0 0 79 0 0 78 0 0 78 78 0 77 77 0 77 77 0 76 76 0 76 76 0 75 75 0 75 75 0 74 0 0 191 0 0 192 192 0 192 192 0 193 193 0 194 194 0 194 194 0 195 195 0 195 195 0 196 0 0 196 0 0 197 0 0 197 0 0 198 0 0 198 0 0 198 0 0 199 199 0 199 199 0 199 199 0 200 200 0 200 200 0 200 200 0 200 200 0 201 201 0 201 0 0 201 0 0 201 0 0 201 0 0 201 0 0 202 0 0 202 0 0 202 0 0 202 0 0 202 0 0 202 202 0 202 202 0 202 202 0 202 202 0 203 203 0 203 203 0 203 203 0 203 203 0 203 203 0 203 203 0 203 203 0 203 0 0 203 0 0 203 0 0 203 0 0 203 0 0 203 0 0 93 0 0 93 0 0 93 0 0 92 0 0 92 0 0 92 92 0 92 92 0 91 91 0 91 91 0 91 91 0 90 90 0 90 90 0 90 90 0 89 89 0 89 89 0 89 89 0 88 88 0 88 0 0 88 0 0 87 0 0 87 0 0 86 0 0 86 0 0 86 0 0 85 0 0 85 0 0 85 85 0 84 84 0 84 84 0 83 83 0 83 83 0 83 83 0 82 82 0 82 82 0 81 0 0 81 0 0 80 0 0 80 0 0 79 0 0 79 0 0 78 0 0 78 78 0 78 78 0 77 77 0 77 77 0 76 76 0 76 76 0 75 75 0 75 0 0 74 0 0 190 0 0 191 0 0 191 191 0 192 192 0 193 193 0 193 193 0 194 194 0 194 194 0 195 195 0 195 0 0 196 0 0 196 0 0 197 0 0 197 0 0 197 0 0 198 0 0 198 198 0 198 198 0 199 199 0 199 199 0 199 199 0 200 200 0 200 200 0 200 200 0 200 0 0 200 0 0 201 0 0 201 0 0 201 0 0 201 0 0 201 0 0 201 0 0 201 0 0 202 202 0 202 202 0 202 202 0 202 202 0 202 202 0 202 202 0 202 202 0 202 202 0 202 202 0 202 202 0 202 202 0 202 202 0 202 0 0 202 0 0 202 0 0 202 0 0 202 0 0 93 0 0 93 0 0 92 0 0 92 0 0 92 0 0 92 92 0 91 91 0 91 91 0 91 91 0 90 90 0 90 90 0 90 90 0 89 89 0 89 89 0 89 89 0 88 88 0 88 88 0 88 0 0 87 0 0 87 0 0 87 0 0 86 0 0 86 0 0 85 0 0 85 0 0 85 0 0 84 84 0 84 84 0 83 83 0 83 83 0 83 83 0 82 82 0 82 82 0 81 81 0 81 0 0 80 0 0 80 0 0 80 0 0 79 0 0 79 0 0 78 0 0 78 78 0 77 77 0 77 77 0 76 76 0 76 76 0 75 75 0 75 0 0 74 0 0 74 0 0 189 0 0 190 0 0 190 0 0 191 191 0 192 192 0 192 192 0 193 193 0 193 193 0 194 194 0 195 0 0 195 0 0 195 0 0 196 0 0 196 0 0 197 0 0 197 0 0 197 197 0 198 198 0 198 198 0 198 198 0 199 199 0 199 199 0 199 199 0 199 199 0 199 0 0 200 0 0 200 0 0 200 0 0 200 0 0 200 0 0 200 0 0 201 0 0 201 0 0 201 201 0 201 201 0 201 201 0 201 201 0 201 201 0 201 201 0 201 201 0 201 201 0 201 201 0 201 201 0 202 202 0 202 202 0 202 0 0 202 0 0 202 0 0 202 0 0 202 0 0 93 0 0 92 0 0 92 0 0 92 0 0 92 0 0 91 91 0 91 91 0 91 91 0 90 90 0 90 90 0 90 90 0 89 89 0 89 89 0 89 89 0 88 88 0 88 88 0 88 88 0 87 0 0 87 0 0 87 0 0 86 0 0 86 0 0 86 0 0 85 0 0 85 0 0 84 0 0 84 84 0 84 84 0 83 83 0 83 83 0 82 82 0 82 82 0 82 82 0 81 81 0 81 0 0 80 0 0 80 0 0 79 0 0 79 0 0 78 0 0 78 78 0 77 77 0 77 77 0 76 76 0 76 76 0 75 75 0 75 0 0 74 0 0 74 0 0 73 0 0 188 0 0 189 0 0 189 0 0 190 0 0 191 191 0 191 191 0 192 192 0 193 193 0 193 193 0 194 194 0 194 0 0 195 0 0 195 0 0 195 0 0 196 0 0 196 0 0 197 197 0 197 197 0 197 197 0 197 197 0 198 198 0 198 198 0 198 198 0 198 198 0 199 0 0 199 0 0 199 0 0 199 0 0 199 0 0 200 0 0 200 0 0 200 0 0 200 0 0 200 200 0 200 200 0 200 200 0 200 200 0 201 201 0 201 201 0 201 201 0 201 201 0 201 201 0 201 201 0 201 201 0 201 201 0 201 0 0 201 0 0 201 0 0 201 0 0 201 0 0 92 0 0 92 0 0 92 0 0 92 0 0 91 0 0 91 91 0 91 91 0 90 90 0 90 90 0 90 90 0 89 89 0 89 89 0 89 89 0 88 88 0 88 88 0 88 88 0 87 87 0 87 0 0 87 0 0 86 0 0 86 0 0 86 0 0 85 0 0 85 0 0 84 0 0 84 0 0 84 84 0 83 83 0 83 83 0 82 82 0 82 82 0 82 82 0 81 81 0 81 81 0 80 0 0 80 0 0 79 0 0 79 0 0 79 0 0 78 0 0 78 78 0 77 77 0 77 77 0 76 76 0 76 76 0 75 75 0 75 0 0 74 0 0 74 0 0 73 0 0 187 0 0 188 0 0 188 0 0 189 0 0 190 190 0 190 190 0 191 191 0 192 192 0 192 192 0 193 193 0 193 0 0 194 0 0 194 0 0 195 0 0 195 0 0 195 0 0 196 196 0 196 196 0 196 196 0 197 197 0 197 197 0 197 197 0 197 197 0 198 198 0 198 0 0 198 0 0 198 0 0 199 0 0 199 0 0 199 0 0 199 0 0 199 0 0 199 0 0 199 199 0 200 200 0 200 200 0 200 200 0 200 200 0 200 200 0 200 200 0 200 200 0 200 200 0 200 200 0 200 200 0 200 200 0 200 0 0 200 0 0 200 0 0 200 0 0 200 0 0 92 0 0 92 0 0 92 0 0 91 0 0 91 0 0 91 91 0 90 90 0 90 90 0 90 90 0 89 89 0 89 89 0 89 89 0 89 89 0 88 88 0 88 88 0 87 87 0 87 87 0 87 0 0 86 0 0 86 0 0 86 0 0 85 0 0 85 0 0 85 0 0 84 0 0 84 0 0 83 83 0 83 83 0 83 83 0 82 82 0 82 82 0 81 81 0 81 81 0 80 0 0 80 0 0 80 0 0 79 0 0 79 0 0 78 0 0 78 0 0 77 77 0 77 77 0 76 76 0 76 76 0 75 75 0 75 0 0 74 0 0 74 0 0 73 0 0 73 0 0 186 0 0 187 0 0 187 0 0 188 0 0 189 0 0 190 190 0 190 190 0 191 191 0 191 191 0 192 192 0 192 0 0 193 0 0 193 0 0 194 0 0 194 0 0 194 0 0 195 0 0 195 195 0 196 196 0 196 196 0 196 196 0 196 196 0 197 197 0 197 197 0 197 0 0 197 0 0 198 0 0 198 0 0 198 0 0 198 0 0 198 0 0 198 0 0 199 0 0 199 199 0 199 199 0 199 199 0 199 199 0 199 199 0 199 199 0 199 199 0 199 199 0 199 199 0 200 200 0 200 200 0 200 200 0 200 0 0 200 0 0 200 0 0 200 0 0 200 0 0 92 0 0 92 0 0 91 0 0 91 0 0 91 0 0 90 90 0 90 90 0 90 90 0 90 90 0 89 89 0 89 89 0 89 89 0 88 88 0 88 88 0 88 88 0 87 87 0 87 87 0 86 0 0 86 0 0 86 0 0 85 0 0 85 0 0 85 0 0 84 0 0 84 0 0 84 0 0 83 83 0 83 83 0 82 82 0 82 82 0 81 81 0 81 81 0 81 81 0 80 0 0 80 0 0 79 0 0 79 0 0 78 0 0 78 0 0 77 0 0 0 146 0 0 161 0 0 162 0 0 159 0 0 152 0 0 143 0 0 130 0 0 112 0 73 0 0 73 0 0 185 0 0 186 0 0 186 0 0 187 0 0 188 0 0 189 189 0 189 189 0 190 190 0 190 190 0 191 191 0 191 0 0 192 0 0 192 0 0 193 0 0 193 0 0 194 0 0 194 0 0 194 194 0 195 195 0 195 195 0 195 195 0 196 196 0 196 196 0 196 196 0 196 0 0 197 0 0 197 0 0 197 0 0 197 0 0 197 0 0 198 0 0 198 0 0 198 0 0 198 198 0 198 198 0 198 198 0 198 198 0 198 198 0 199 199 0 199 199 0 199 199 0 199 199 0 199 199 0 199 199 0 199 199 0 199 0 0 199 0 0 199 0 0 199 0 0 199 0 0 92 0 0 91 0 0 91 0 0 91 0 0 90 0 0 90 90 0 90 90 0 90 90 0 89 89 0 89 89 0 89 89 0 88 88 0 88 88 0 88 88 0 87 87 0 87 87 0 87 87 0 86 0 0 86 0 0 85 0 0 85 0 0 85 0 0 84 0 0 84 0 0 84 0 0 83 0 0 83 83 0 82 82 0 82 82 0 82 82 0 81 81 0 81 81 0 80 80 0 80 0 0 79 0 0 79 0 0 79 0 0 78 0 0 0 155 0 0 177 0 0 182 0 0 182 0 0 179 0 0 174 0 0 168 0 0 159 0 0 149 0 0 136 0 0 120 0 0 98 0 186 0 0 186 0 0 185 0 0 186 0 0 187 0 0 188 188 0 188 188 0 189 189 0 189 189 0 190 190 0 190 0 0 191 0 0 191 0 0 192 0 0 192 0 0 193 0 0 193 0 0 193 193 0 194 194 0 194 194 0 194 194 0 195 195 0 195 195 0 195 195 0 196 0 0 196 0 0 196 0 0 196 0 0 196 0 0 197 0 0 197 0 0 197 0 0 197 0 0 197 197 0 197 197 0 197 197 0 198 198 0 198 198 0 198 198 0 198 198 0 198 198 0 198 198 0 198 198 0 198 198 0 198 198 0 198 0 0 198 0 0 198 0 0 199 0 0 199 0 0 91 0 0 91 0 0 91 0 0 90 0 0 90 0 0 90 90 0 90 90 0 89 89 0 89 89 0 89 89 0 88 88 0 88 88 0 88 88 0 87 87 0 87 87 0 87 87 0 86 86 0 86 0 0 86 0 0 85 0 0 85 0 0 84 0 0 84 0 0 84 0 0 83 0 0 83 0 0 83 83 0 82 82 0 82 82 0 81 81 0 81 81 0 80 80 0 80 80 0 80 0 0 79 0 0 79 0 0 78 0 0 0 173 0 0 187 0 0 192 0 0 193 0 0 191 0 0 188 0 0 182 0 0 176 0 0 167 0 0 158 0 0 146 0 0 132 0 0 116 0 0 95 0 0 59 0 187 0 0 186 0 0 186 0 0 187 187 0 187 187 0 188 188 0 188 188 0 189 189 0 190 0 0 190 0 0 191 0 0 191 0 0 191 0 0 192 0 0 192 0 0 193 193 0 193 193 0 193 193 0 194 194 0 194 194 0 194 194 0 194 194 0 195 0 0 195 0 0 195 0 0 195 0 0 196 0 0 196 0 0 196 0 0 196 0 0 196 0 0 196 196 0 197 197 0 197 197 0 197 197 0 197 197 0 197 197 0 197 197 0 197 197 0 197 197 0 197 197 0 198 198 0 198 198 0 198 0 0 198 0 0 198 0 0 198 0 0 198 0 0 91 0 0 91 0 0 90 0 0 90 0 0 90 0 0 90 90 0 89 89 0 89 89 0 89 89 0 88 88 0 88 88 0 88 88 0 87 87 0 87 87 0 87 87 0 86 86 0 86 86 0 86 0 0 85 0 0 85 0 0 85 0 0 84 0 0 84 0 0 83 0 0 83 0 0 83 0 0 82 82 0 82 82 0 81 81 0 81 81 0 81 81 0 80 80 0 80 80 0 79 0 0 79 0 0 78 0 0 0 176 0 0 192 0 0 197 0 0 199 0 0 199 0 0 196 0 0 192 0 0 186 0 0 180 0 0 172 0 0 162 0 0 151 0 0 139 0 0 124 0 0 107 0 0 84 0 0 47 0 188 0 0 188 0 0 187 0 0 187 0 0 187 187 0 187 187 0 188 188 0 189 189 0 189 0 0 190 0 0 190 0 0 191 0 0 191 0 0 191 0 0 192 192 0 192 192 0 192 192 0 193 193 0 193 193 0 193 193 0 194 194 0 194 0 0 194 0 0 194 0 0 195 0 0 195 0 0 195 0 0 195 0 0 195 0 0 196 0 0 196 196 0 196 196 0 196 196 0 196 196 0 196 196 0 196 196 0 197 197 0 197 197 0 197 197 0 197 197 0 197 197 0 197 197 0 197 0 0 197 0 0 197 0 0 197 0 0 197 0 0 91 0 0 90 0 0 90 0 0 90 0 0 90 0 0 89 0 0 89 89 0 89 89 0 88 88 0 88 88 0 88 88 0 87 87 0 87 87 0 87 87 0 86 86 0 86 86 0 86 86 0 85 0 0 85 0 0 85 0 0 84 0 0 84 0 0 83 0 0 83 0 0 83 0 0 82 0 0 82 82 0 81 81 0 81 81 0 81 81 0 80 80 0 80 80 0 79 79 0 79 0 0 79 0 0 0 168 0 0 191 0 0 199 0 0 202 0 0 203 0 0 201 0 0 198 0 0 194 0 0 188 0 0 181 0 0 173 0 0 164 0 0 154 0 0 142 0 0 129 0 0 113 0 0 94 0 0 68 0 190 190 0 190 190 0 189 189 0 189 189 0 188 188 0 187 187 0 187 187 0 188 0 0 188 0 0 189 0 0 189 0 0 190 0 0 190 0 0 190 0 0 191 191 0 191 191 0 192 192 0 192 192 0 192 192 0 193 193 0 193 193 0 193 0 0 193 0 0 194 0 0 194 0 0 194 0 0 194 0 0 194 0 0 195 0 0 195 0 0 195 195 0 195 195 0 195 195 0 195 195 0 196 196 0 196 196 0 196 196 0 196 196 0 196 196 0 196 196 0 196 196 0 196 0 0 196 0 0 196 0 0 197 0 0 197 0 0 197 0 0 90 0 0 90 0 0 90 0 0 90 0 0 89 0 0 89 0 0 89 89 0 88 88 0 88 88 0 88 88 0 87 87 0 87 87 0 87 87 0 86 86 0 86 86 0 86 86 0 85 85 0 85 0 0 85 0 0 84 0 0 84 0 0 84 0 0 83 0 0 83 0 0 82 0 0 82 0 0 82 82 0 81 81 0 81 81 0 80 80 0 80 80 0 80 80 0 79 79 0 79 0 0 78 0 0 0 184 0 0 196 0 0 202 0 0 204 0 0 204 0 0 202 0 0 198 0 0 194 0 0 188 0 0 181 0 0 174 0 0 165 0 0 155 0 0 143 0 0 130 0 0 115 0 0 98 0 0 76 0 0 46 0 191 191 0 191 191 0 190 190 0 190 190 0 189 189 0 189 189 0 188 188 0 187 187 0 188 0 0 188 0 0 189 0 0 189 0 0 190 0 0 190 190 0 190 190 0 191 191 0 191 191 0 191 191 0 192 192 0 192 192 0 192 0 0 193 0 0 193 0 0 193 0 0 193 0 0 193 0 0 194 0 0 194 0 0 194 0 0 194 194 0 194 194 0 195 195 0 195 195 0 195 195 0 195 195 0 195 195 0 195 195 0 195 195 0 195 195 0 196 196 0 196 0 0 196 0 0 196 0 0 196 0 0 196 0 0 196 0 0 90 0 0 90 0 0 90 0 0 89 0 0 89 0 0 89 0 0 88 88 0 88 88 0 88 88 0 87 87 0 87 87 0 87 87 0 86 86 0 86 86 0 86 86 0 85 85 0 85 85 0 85 0 0 84 0 0 84 0 0 84 0 0 83 0 0 83 0 0 82 0 0 82 0 0 82 0 0 81 81 0 81 81 0 80 80 0 80 80 0 80 80 0 79 79 0 79 79 0 78 0 0 0 168 0 0 190 0 0 198 0 0 202 0 0 203 0 0 203 0 0 200 0 0 197 0 0 192 0 0 187 0 0 180 0 0 172 0 0 163 0 0 154 0 0 143 0 0 130 0 0 116 0 0 99 0 0 80 0 0 54 0 0 26 0 192 192 0 192 192 0 191 191 0 191 191 0 190 190 0 190 190 0 189 189 0 188 188 0 188 188 0 188 0 0 188 0 0 189 0 0 189 189 0 189 189 0 190 190 0 190 190 0 191 191 0 191 191 0 191 191 0 191 0 0 192 0 0 192 0 0 192 0 0 192 0 0 193 0 0 193 0 0 193 0 0 193 0 0 193 193 0 194 194 0 194 194 0 194 194 0 194 194 0 194 194 0 194 194 0 195 195 0 195 195 0 195 195 0 195 195 0 195 0 0 195 0 0 195 0 0 195 0 0 195 0 0 195 0 0 90 0 0 89 0 0 89 0 0 89 0 0 89 0 0 88 0 0 88 88 0 88 88 0 87 87 0 87 87 0 87 87 0 86 86 0 86 86 0 86 86 0 85 85 0 85 85 0 85 85 0 84 0 0 84 0 0 84 0 0 83 0 0 83 0 0 83 0 0 82 0 0 82 0 0 81 0 0 81 81 0 81 81 0 80 80 0 80 80 0 79 79 0 79 79 0 78 78 0 204 204 0 0 176 0 0 190 0 0 197 0 0 201 0 0 201 0 0 200 0 0 198 0 17 212 0 2 192 0 0 184 0 0 177 0 0 170 0 0 161 0 0 151 0 0 140 0 0 128 0 0 114 0 0 99 0 0 80 0 0 57 0 0 26 0 194 0 0 193 0 0 193 193 0 192 192 0 192 192 0 191 191 0 191 191 0 190 190 0 189 189 0 189 189 0 188 188 0 188 188 0 188 188 0 189 189 0 189 189 0 189 189 0 190 190 0 190 190 0 190 190 0 191 0 0 191 0 0 191 0 0 191 0 0 192 0 0 192 0 0 192 0 0 192 0 0 193 0 0 193 193 0 193 193 0 193 193 0 193 193 0 193 193 0 194 194 0 194 194 0 194 194 0 194 194 0 194 194 0 194 194 0 194 0 0 194 0 0 194 0 0 194 0 0 195 0 0 195 0 0 89 0 0 89 0 0 89 0 0 89 0 0 88 0 0 88 0 0 88 88 0 87 87 0 87 87 0 87 87 0 86 86 0 86 86 0 86 86 0 85 85 0 85 85 0 85 85 0 84 84 0 84 0 0 84 0 0 83 0 0 83 0 0 83 0 0 82 0 0 82 0 0 81 0 0 81 0 0 81 81 0 80 80 0 80 80 0 79 79 0 79 79 0 206 206 0 206 206 0 206 206 0 0 176 0 0 189 0 0 195 0 0 198 0 0 198 0 0 197 0 2 196 0 55 246 0 3 189 0 0 180 0 0 174 0 0 166 0 0 157 0 0 148 0 0 137 0 0 125 0 0 112 0 0 96 0 0 78 0 0 56 0 0 26 0 195 0 0 195 0 0 194 0 0 194 0 0 193 0 0 193 0 0 192 0 0 191 191 0 191 191 0 190 190 0 190 190 0 189 189 0 189 189 0 188 188 0 188 188 0 188 188 0 189 189 0 189 189 0 189 189 0 190 0 0 190 0 0 190 0 0 191 0 0 191 0 0 191 0 0 191 0 0 192 0 0 192 0 0 192 192 0 192 192 0 192 192 0 192 192 0 193 193 0 193 193 0 193 193 0 193 193 0 193 193 0 193 193 0 193 193 0 194 0 0 194 0 0 194 0 0 194 0 0 194 0 0 194 0 0 89 0 0 89 0 0 89 0 0 88 0 0 88 0 0 88 0 0 87 87 0 87 87 0 87 87 0 86 86 0 86 86 0 86 86 0 85 85 0 85 85 0 85 85 0 84 84 0 84 84 0 84 0 0 83 0 0 83 0 0 83 0 0 82 0 0 82 0 0 81 0 0 81 0 0 81 0 0 80 80 0 80 80 0 209 209 0 208 208 0 208 208 0 208 208 0 207 207 0 0 141 0 0 174 0 0 185 0 0 191 0 0 193 0 0 193 0 0 192 0 0 190 0 0 186 0 0 181 0 0 175 0 0 169 0 0 161 0 0 153 0 0 143 0 0 133 0 0 121 0 0 108 0 0 92 0 0 75 0 0 53 0 0 26 0 197 0 0 196 0 0 196 0 0 195 0 0 195 0 0 194 0 0 193 0 0 193 0 0 192 0 0 192 0 0 191 191 0 191 191 0 190 190 0 189 189 0 189 189 0 188 188 0 188 188 0 188 188 0 189 189 0 189 0 0 189 0 0 189 0 0 190 0 0 190 0 0 190 0 0 191 0 0 191 0 0 191 0 0 191 191 0 191 191 0 192 192 0 192 192 0 192 192 0 192 192 0 192 192 0 192 192 0 192 192 0 193 193 0 193 193 0 193 0 0 193 0 0 193 0 0 193 0 0 193 0 0 193 0 0 89 0 0 89 0 0 88 0 0 88 0 0 88 0 0 87 0 0 87 87 0 87 87 0 86 86 0 86 86 0 86 86 0 85 85 0 85 85 0 85 85 0 84 84 0 84 84 0 84 84 0 83 0 0 83 0 0 83 0 0 82 0 0 82 0 0 82 0 0 81 0 0 81 0 0 80 0 0 211 211 0 211 211 0 210 210 0 210 210 0 209 209 0 209 209 0 209 0 0 0 140 0 0 169 0 0 180 0 0 185 0 0 187 0 0 188 0 0 186 0 0 184 0 0 180 0 0 175 0 0 170 0 0 163 0 0 156 0 0 147 0 0 138 0 0 127 0 0 115 0 0 102 0 0 87 0 0 70 0 0 49 0 0 26 0 26 0 0 26 0 0 26 0 0 196 0 0 196 0 0 195 0 0 195 0 0 194 0 0 194 0 0 193 0 0 192 0 0 192 0 0 191 0 0 191 191 0 190 190 0 190 190 0 189 189 0 188 188 0 188 188 0 188 0 0 188 0 0 189 0 0 189 0 0 189 0 0 189 0 0 190 0 0 190 0 0 190 0 0 190 190 0 191 191 0 191 191 0 191 191 0 191 191 0 191 191 0 191 191 0 192 192 0 192 192 0 192 192 0 192 192 0 192 0 0 192 0 0 192 0 0 192 0 0 193 0 0 193 0 0 89 0 0 88 0 0 88 0 0 88 0 0 87 0 0 87 0 0 87 0 0 86 86 0 86 86 0 86 86 0 85 85 0 85 85 0 85 85 0 84 84 0 84 84 0 84 84 0 83 83 0 83 83 0 83 0 0 82 0 0 82 0 0 82 0 0 81 0 0 81 0 0 213 213 0 213 213 0 212 212 0 212 212 0 212 212 0 211 211 0 211 0 0 210 0 0 210 0 0 0 132 0 0 161 0 0 172 0 0 178 0 0 180 0 0 181 0 0 180 0 0 177 0 0 174 0 0 169 0 0 163 0 0 157 0 0 149 0 0 141 0 0 131 0 0 121 0 0 109 0 0 96 0 0 81 0 0 63 0 0 42 0 0 26 0 26 0 0 26 0 0 26 0 0 26 0 0 26 0 0 197 0 0 196 0 0 195 0 0 195 0 0 194 0 0 194 0 0 193 0 0 193 0 0 192 0 0 191 0 0 191 191 0 190 190 0 190 190 0 189 189 0 189 189 0 188 188 0 188 0 0 188 0 0 188 0 0 189 0 0 189 0 0 189 0 0 189 189 0 190 190 0 190 190 0 190 190 0 190 190 0 190 190 0 191 191 0 191 191 0 191 191 0 191 191 0 191 191 0 191 0 0 191 0 0 192 0 0 192 0 0 192 0 0 192 0 0 192 0 0 88 0 0 88 0 0 88 0 0 87 0 0 87 0 0 87 0 0 86 0 0 86 86 0 86 86 0 85 85 0 85 85 0 85 85 0 84 84 0 84 84 0 84 84 0 83 83 0 83 83 0 83 83 0 82 0 0 82 0 0 82 0 0 215 215 0 215 215 0 214 214 0 214 214 0 214 214 0 213 213 0 213 213 0 213 0 0 212 0 0 212 0 0 212 0 0 211 0 0 211 0 0 0 152 0 0 164 0 0 170 0 0 172 0 0 173 0 0 172 0 0 169 0 0 166 0 0 161 0 0 156 0 0 149 0 0 142 0 0 133 0 0 124 0 0 113 0 0 101 0 0 88 0 0 73 0 0 55 0 0 34 0 0 26 0 26 26 0 26 26 0 26 26 0 26 26 0 26 0 0 26 0 0 197 0 0 197 0 0 196 0 0 196 0 0 195 0 0 194 0 0 194 0 0 193 0 0 193 0 0 192 0 0 192 0 0 191 191 0 190 190 0 190 190 0 189 189 0 189 189 0 188 188 0 187 187 0 188 0 0 188 0 0 188 0 0 189 189 0 189 189 0 189 189 0 189 189 0 189 189 0 190 190 0 190 190 0 190 190 0 190 190 0 190 190 0 190 190 0 191 0 0 191 0 0 191 0 0 191 0 0 191 0 0 191 0 0 191 0 0 88 0 0 88 0 0 87 0 0 87 0 0 87 0 0 86 0 0 86 0 0 86 86 0 85 85 0 85 85 0 85 85 0 84 84 0 84 84 0 84 84 0 83 83 0 83 83 0 83 83 0 82 82 0 82 0 0 217 217 0 216 216 0 216 216 0 216 216 0 216 216 0 215 215 0 215 215 0 215 215 0 214 0 0 214 0 0 214 0 0 213 0 0 213 0 0 212 0 0 212 0 0 0 139 0 0 153 0 0 160 0 0 163 0 0 164 0 0 163 0 0 161 0 0 157 0 0 153 0 0 147 0 0 141 0 0 133 0 0 125 0 0 115 0 0 105 0 0 93 0 0 79 0 0 64 0 0 46 0 0 26 0 0 26 0 26 26 0 26 26 0 26 26 0 26 26 0 26 26 0 26 26 0 198 198 0 198 0 0 197 0 0 197 0 0 196 0 0 196 0 0 195 0 0 194 0 0 194 0 0 193 0 0 193 0 0 192 0 0 192 192 0 191 191 0 190 190 0 190 190 0 189 189 0 189 189 0 188 188 0 187 187 0 187 0 0 188 188 0 188 188 0 188 188 0 188 188 0 189 189 0 189 189 0 189 189 0 189 189 0 189 189 0 190 190 0 190 190 0 190 0 0 190 0 0 190 0 0 190 0 0 190 0 0 190 0 0 191 0 0 88 0 0 87 0 0 87 0 0 87 0 0 86 0 0 86 0 0 86 0 0 85 0 0 85 85 0 85 85 0 84 84 0 84 84 0 84 84 0 83 83 0 83 83 0 83 83 0 82 82 0 218 218 0 218 218 0 218 218 0 218 218 0 217 217 0 217 217 0 217 217 0 216 216 0 216 0 0 216 0 0 215 0 0 215 0 0 215 0 0 214 0 0 214 0 0 214 0 0 213 0 0 0 122 0 0 140 0 0 148 0 0 152 0 0 153 0 0 153 0 0 151 0 0 147 0 0 143 0 0 138 0 0 131 0 0 124 0 0 115 0 0 106 0 0 95 0 0 83 0 0 69 0 0 53 0 0 34 0 0 26 0 0 26 0 26 26 0 26 26 0 26 26 0 26 26 0 26 26 0 26 26 0 26 26 0 199 199 0 198 198 0 198 0 0 197 0 0 197 0 0 196 0 0 196 0 0 195 0 0 194 0 0 194 0 0 193 0 0 193 0 0 192 0 0 192 192 0 191 191 0 190 190 0 190 190 0 189 189 0 189 189 0 188 188 0 187 187 0 187 187 0 187 187 0 188 188 0 188 188 0 188 188 0 188 188 0 188 188 0 189 189 0 189 189 0 189 0 0 189 0 0 189 0 0 189 0 0 189 0 0 190 0 0 190 0 0 190 0 0 87 0 0 87 0 0 87 0 0 86 0 0 86 0 0 86 0 0 85 0 0 85 0 0 85 85 0 84 84 0 84 84 0 84 84 0 83 83 0 83 83 0 220 220 0 220 220 0 220 220 0 220 220 0 219 219 0 219 219 0 219 219 0 218 218 0 218 218 0 218 218 0 218 0 0 217 0 0 217 0 0 216 0 0 216 0 0 216 0 0 215 0 0 215 0 0 215 0 0 214 0 0 0 92 0 0 123 0 0 134 0 0 139 0 0 141 0 0 141 0 0 140 0 0 137 0 0 132 0 0 127 0 0 120 0 0 113 0 0 104 0 0 95 0 0 84 0 0 71 0 0 57 0 0 40 0 0 26 0 0 26 0 26 26 0 26 26 0 26 26 0 26 26 0 26 26 0 26 26 0 26 26 0 26 26 0 200 200 0 199 199 0 199 199 0 198 0 0 198 0 0 197 0 0 197 0 0 196 0 0 196 0 0 195 0 0 194 0 0 194 0 0 193 0 0 193 0 0 192 192 0 192 192 0 191 191 0 190 190 0 190 190 0 189 189 0 189 189 0 188 188 0 187 187 0 187 187 0 187 187 0 187 187 0 187 187 0 188 188 0 188 188 0 188 188 0 188 0 0 188 0 0 188 0 0 189 0 0 189 0 0 189 0 0 189 0 0 189 0 0 87 0 0 87 0 0 86 0 0 86 0 0 86 0 0 85 0 0 85 0 0 85 0 0 84 84 0 84 84 0 84 84 0 83 83 0 222 0 0 222 222 0 221 221 0 221 221 0 221 221 0 221 221 0 220 220 0 220 220 0 220 220 0 219 219 0 219 219 0 219 0 0 219 0 0 218 0 0 218 0 0 217 0 0 217 0 0 217 0 0 216 0 0 216 0 0 216 0 0 215 215 0 215 215 0 0 101 0 0 117 0 0 124 0 0 127 0 0 128 0 0 127 0 0 124 0 0 120 0 0 115 0 0 108 0 0 101 0 0 92 0 0 82 0 0 71 0 0 58 0 0 43 0 0 26 0 0 26 0 0 26 0 26 26 0 26 26 0 26 26 0 26 26 0 26 26 0 26 26 0 26 26 0 202 202 0 201 201 0 201 201 0 200 200 0 199 199 0 0 121 0 0 129 0 0 115 0 197 0 0 197 0 0 196 0 0 195 0 0 195 0 0 194 0 0 194 0 0 193 0 0 193 193 0 192 192 0 191 191 0 191 191 0 190 190 0 190 190 0 189 189 0 189 189 0 188 188 0 187 187 0 187 0 0 187 187 0 187 187 0 187 187 0 187 187 0 187 0 0 188 0 0 188 0 0 188 0 0 188 0 0 188 0 0 188 0 0 188 0 0 87 0 0 86 0 0 86 0 0 86 0 0 85 0 0 85 0 0 85 0 0 84 0 0 84 0 0 223 0 0 223 0 0 223 0 0 223 223 0 223 223 0 222 222 0 222 222 0 222 222 0 222 222 0 221 221 0 221 221 0 221 221 0 220 220 0 220 0 0 220 0 0 219 0 0 219 0 0 219 0 0 218 0 0 218 0 0 218 0 0 217 0 0 217 0 0 217 217 0 216 216 0 216 216 0 215 215 0 0 94 0 0 106 0 0 111 0 0 113 0 0 112 0 0 110 0 0 106 0 0 101 0 0 95 0 0 87 0 0 78 0 0 68 0 0 56 0 0 43 0 0 26 0 0 26 0 0 26 0 26 0 0 26 0 0 26 0 0 26 26 0 26 26 0 26 26 0 26 26 0 26 26 0 203 203 0 202 202 0 201 201 0 0 151 0 0 173 0 0 178 0 0 174 0 0 163 0 0 145 0 0 116 0 197 0 0 196 0 0 196 0 0 195 0 0 195 0 0 194 0 0 194 0 0 193 193 0 192 192 0 192 192 0 191 191 0 191 191 0 190 190 0 190 190 0 189 189 0 188 188 0 188 188 0 187 0 0 187 0 0 186 0 0 186 0 0 187 0 0 187 0 0 187 0 0 187 0 0 187 0 0 187 0 0 188 0 0 188 0 0 86 0 0 86 0 0 86 0 0 85 0 0 85 0 0 85 0 0 84 0 0 225 0 0 225 0 0 224 0 0 224 0 0 224 224 0 224 224 0 224 224 0 223 223 0 223 223 0 223 223 0 223 223 0 222 222 0 222 222 0 222 222 0 221 0 0 221 0 0 221 0 0 220 0 0 220 0 0 220 0 0 219 0 0 219 0 0 219 0 0 218 0 0 218 218 0 217 217 0 217 217 0 217 217 0 216 216 0 216 216 0 0 81 0 0 90 0 0 94 0 0 95 0 0 93 0 0 90 0 0 85 0 0 79 0 0 71 0 0 62 0 0 51 0 0 39 0 0 26 0 0 26 0 0 26 0 26 0 0 26 0 0 26 0 0 26 0 0 26 0 0 26 0 0 26 26 0 26 26 0 204 204 0 204 204 0 203 203 0 0 159 0 0 185 0 0 194 0 0 195 0 0 190 0 0 180 0 0 164 0 0 142 0 0 111 0 0 43 0 197 0 0 196 0 0 196 0 0 195 0 0 195 0 0 194 0 0 193 193 0 193 193 0 192 192 0 192 192 0 191 191 0 191 191 0 190 190 0 189 189 0 189 189 0 188 188 0 188 0 0 187 0 0 187 0 0 186 0 0 186 0 0 186 0 0 186 0 0 187 0 0 187 0 0 187 0 0 187 0 0 86 0 0 86 0 0 85 0 0 85 0 0 85 0 0 226 0 0 226 0 0 226 0 0 226 0 0 225 0 0 225 225 0 225 225 0 225 225 0 225 225 0 224 224 0 224 224 0 224 224 0 223 223 0 223 223 0 223 223 0 223 0 0 222 0 0 222 0 0 222 0 0 221 0 0 221 0 0 221 0 0 220 0 0 220 0 0 219 0 0 219 219 0 219 219 0 218 218 0 218 218 0 217 217 0 217 217 0 217 217 0 216 216 0 0 61 0 0 70 0 0 73 0 0 73 0 0 71 0 0 66 0 0 60 0 0 52 0 0 43 0 0 31 0 0 26 0 0 26 0 0 26 0 26 0 0 26 0 0 26 0 0 26 0 0 26 0 0 26 0 0 26 0 0 26 0 0 205 205 0 205 205 0 204 204 0 0 132 0 0 181 0 0 197 0 0 202 0 0 202 0 0 196 0 0 186 0 0 172 0 0 153 0 0 126 0 0 87 0 198 0 0 197 0 0 197 0 0 196 0 0 196 0 0 195 0 0 194 0 0 194 194 0 193 193 0 193 193 0 192 192 0 192 192 0 191 191 0 190 190 0 190 190 0 189 189 0 189 189 0 188 0 0 188 0 0 187 0 0 186 0 0 186 0 0 186 0 0 186 0 0 186 0 0 186 0 0 186 0 0 86 0 0 85 0 0 228 0 0 227 0 0 227 0 0 227 0 0 227 0 0 227 0 0 227 0 0 226 226 0 226 226 0 226 226 0 226 226 0 225 225 0 225 225 0 225 225 0 225 225 0 224 224 0 224 224 0 224 224 0 223 0 0 223 0 0 223 0 0 222 0 0 222 0 0 222 0 0 221 0 0 221 0 0 221 0 0 220 0 0 220 220 0 220 220 0 219 219 0 219 219 0 218 218 0 218 218 0 217 217 0 217 217 0 217 217 0 0 30 0 0 43 0 0 46 0 0 45 0 0 42 0 0 36 0 0 28 0 0 26 0 0 26 0 0 26 0 0 26 0 26 0 0 26 0 0 26 0 0 26 0 0 26 0 0 26 0 0 26 0 0 26 0 0 207 0 0 206 0 0 206 206 0 205 205 0 0 157 0 0 187 0 0 199 0 0 203 0 0 202 0 0 197 0 0 187 0 0 173 0 0 155 0 0 131 0 0 98 0 0 40 0 198 0 0 198 0 0 197 0 0 196 0 0 196 0 0 195 0 0 195 195 0 194 194 0 194 194 0 193 193 0 193 193 0 192 192 0 191 191 0 191 191 0 190 190 0 190 190 0 189 189 0 189 0 0 188 0 0 187 0 0 187 0 0 186 0 0 186 0 0 185 0 0 185 0 0 186 0 0 229 0 0 229 0 0 228 0 0 228 0 0 228 0 0 228 0 0 228 0 0 228 0 0 227 227 0 227 227 0 227 227 0 227 227 0 226 226 0 226 226 0 226 226 0 226 226 0 225 225 0 225 225 0 225 225 0 225 0 0 224 0 0 224 0 0 224 0 0 223 0 0 223 0 0 223 0 0 222 0 0 222 0 0 221 0 0 221 221 0 221 221 0 220 220 0 220 220 0 219 219 0 219 219 0 219 219 0 218 218 0 218 218 0 217 217 0 217 217 0 26 0 0 26 0 0 0 26 0 0 26 0 0 26 0 0 26 0 0 26 0 26 0 0 26 0 0 26 0 0 26 0 0 26 0 0 26 0 0 26 0 0 26 0 0 26 0 0 209 0 0 208 0 0 208 0 0 207 0 0 207 207 0 206 206 0 0 159 0 0 184 0 0 195 0 0 199 0 12 210 0 0 192 0 0 183 0 0 169 0 0 152 0 0 129 0 0 98 0 0 50 0 26 0 0 198 0 0 198 0 0 197 0 0 197 0 0 196 0 0 196 0 0 195 195 0 195 195 0 194 194 0 193 193 0 193 193 0 192 192 0 192 192 0 191 191 0 191 191 0 190 190 0 190 190 0 189 0 0 188 0 0 188 0 0 187 0 0 187 0 0 186 0 0 186 0 0 185 0 0 230 0 0 229 0 0 229 0 0 229 0 0 229 0 0 229 0 0 229 0 0 228 0 0 228 228 0 228 228 0 228 228 0 227 227 0 227 227 0 227 227 0 227 227 0 226 226 0 226 226 0 226 226 0 226 0 0 225 0 0 225 0 0 225 0 0 224 0 0 224 0 0 224 0 0 223 0 0 223 0 0 223 0 0 222 0 0 222 222 0 0 173 0 0 165 0 0 141 0 0 101 0 220 220 0 219 219 0 219 219 0 219 219 0 218 218 0 218 0 0 217 0 0 217 0 0 26 0 0 26 0 0 26 0 0 26 0 0 26 0 0 26 0 0 26 0 0 26 0 0 26 0 0 26 0 0 26 0 0 26 0 0 210 0 0 210 0 0 209 0 0 209 0 0 208 0 0 208 0 0 207 0 0 207 207 0 0 151 0 0 176 0 0 187 0 0 190 0 0 189 0 0 184 0 0 174 0 0 161 0 0 144 0 0 121 0 0 91 0 0 46 0 26 0 0 26 0 0 199 0 0 198 0 0 198 0 0 197 0 0 197 0 0 196 0 0 195 195 0 195 195 0 194 194 0 194 194 0 193 193 0 193 193 0 192 192 0 192 192 0 191 191 0 190 190 0 190 0 0 189 0 0 189 0 0 188 0 0 188 0 0 187 0 0 187 0 0 186 0 0 230 0 0 230 0 0 230 0 0 230 0 0 230 0 0 230 0 0 229 0 0 229 229 0 229 229 0 229 229 0 228 228 0 228 228 0 228 228 0 228 228 0 227 227 0 227 227 0 227 227 0 227 227 0 226 0 0 226 0 0 226 0 0 225 0 0 225 0 0 225 0 0 224 0 0 224 0 0 224 0 0 223 0 0 223 223 0 0 197 0 0 196 0 0 183 0 0 159 0 0 125 0 0 76 0 220 220 0 220 220 0 219 219 0 219 219 0 218 0 0 218 0 0 217 0 0 217 0 0 217 0 0 216 0 0 216 0 0 26 0 0 26 0 0 26 0 0 214 0 0 213 0 0 213 0 0 212 0 0 212 0 0 211 0 0 211 0 0 210 0 0 210 0 0 209 0 0 209 0 0 208 0 0 208 208 0 0 132 0 0 161 0 0 173 0 0 177 0 0 176 0 0 171 0 0 162 0 0 149 0 0 132 0 0 109 0 0 79 0 0 31 0 26 0 0 26 0 0 26 0 0 199 0 0 198 0 0 198 0 0 197 0 0 197 0 0 196 196 0 196 196 0 195 195 0 195 195 0 194 194 0 194 194 0 193 193 0 192 192 0 192 192 0 191 191 0 191 191 0 190 0 0 190 0 0 189 0 0 189 0 0 188 0 0 187 0 0 187 0 0 231 0 0 231 0 0 231 0 0 231 0 0 230 0 0 230 0 0 230 230 0 230 230 0 230 230 0 229 229 0 229 229 0 229 229 0 229 229 0 228 228 0 228 228 0 228 228 0 228 228 0 227 0 0 227 0 0 227 0 0 226 0 0 226 0 0 226 0 0 225 0 0 225 0 0 225 0 0 224 0 0 224 0 0 0 190 0 0 204 0 0 199 0 0 183 0 0 160 0 0 127 0 0 83 0 0 26 0 26 26 0 220 220 0 219 219 0 219 0 0 219 0 0 218 0 0 218 0 0 217 0 0 217 0 0 216 0 0 216 0 0 215 0 0 215 0 0 214 0 0 214 0 0 213 0 0 213 0 0 212 0 0 212 0 0 211 0 0 211 0 0 210 0 0 210 0 0 209 0 0 209 0 0 208 208 0 0 99 0 0 138 0 0 153 0 0 159 0 0 159 0 0 154 0 0 145 0 0 132 0 0 115 0 0 91 0 0 59 0 0 26 0 26 0 0 26 0 0 26 0 0 200 0 0 199 0 0 199 0 0 198 0 0 198 0 0 197 0 0 197 197 0 196 196 0 195 195 0 195 195 0 194 194 0 194 194 0 193 193 0 193 193 0 192 192 0 192 192 0 191 191 0 191 0 0 190 0 0 189 0 0 189 0 0 188 0 0 188 0 0 232 0 0 232 0 0 232 0 0 231 0 0 231 0 0 231 0 0 231 231 0 231 231 0 230 230 0 230 230 0 230 230 0 230 230 0 229 229 0 229 229 0 229 229 0 228 228 0 228 228 0 228 0 0 228 0 0 227 0 0 227 0 0 227 0 0 226 0 0 226 0 0 226 0 0 225 0 0 225 0 0 225 0 0 0 189 0 0 197 0 1 191 0 0 174 0 0 150 0 0 119 0 0 76 0 0 26 0 26 26 0 26 26 0 220 220 0 220 220 0 219 0 0 219 0 0 218 0 0 218 0 0 217 0 0 217 0 0 216 0 0 216 0 0 216 0 0 215 0 0 215 0 0 214 0 0 214 0 0 213 0 0 213 0 0 212 0 0 212 0 0 211 0 0 211 0 0 210 0 0 210 210 0 209 209 0 209 209 0 0 105 0 0 127 0 0 135 0 0 136 0 0 132 0 0 124 0 0 110 0 0 92 0 0 66 0 0 28 0 26 0 0 26 0 0 26 0 0 26 0 0 201 0 0 200 0 0 200 0 0 199 0 0 198 0 0 198 0 0 197 197 0 197 197 0 196 196 0 196 196 0 195 195 0 195 195 0 194 194 0 194 194 0 193 193 0 192 192 0 192 192 0 191 0 0 191 0 0 190 0 0 190 0 0 189 0 0 189 0 0 233 0 0 232 0 0 232 0 0 232 0 0 232 0 0 232 232 0 231 231 0 231 231 0 231 231 0 231 231 0 230 230 0 230 230 0 230 230 0 230 230 0 229 229 0 229 229 0 229 229 0 228 0 0 228 0 0 228 0 0 228 0 0 227 0 0 227 0 0 227 0 0 226 0 0 226 0 0 225 0 0 225 0 0 0 172 0 0 180 0 0 173 0 0 157 0 0 133 0 0 101 0 0 57 0 0 26 0 26 26 0 26 26 0 26 26 0 220 220 0 220 0 0 219 0 0 219 0 0 218 0 0 218 0 0 218 0 0 217 0 0 217 0 0 216 0 0 216 0 0 215 0 0 215 0 0 214 0 0 214 0 0 213 0 0 213 0 0 212 0 0 212 0 0 211 0 0 211 0 0 210 210 0 210 210 0 209 209 0 209 209 0 0 86 0 0 102 0 0 106 0 0 103 0 0 95 0 0 81 0 0 60 0 0 29 0 26 0 0 26 0 0 26 0 0 26 0 0 202 0 0 201 0 0 201 0 0 200 0 0 200 0 0 199 0 0 199 0 0 198 198 0 198 198 0 197 197 0 196 196 0 196 196 0 195 195 0 195 195 0 194 194 0 194 194 0 193 193 0 193 193 0 192 192 0 192 0 0 191 0 0 191 0 0 190 0 0 190 0 0 233 0 0 233 0 0 233 0 0 233 0 0 232 0 0 232 232 0 232 232 0 232 232 0 232 232 0 231 231 0 231 231 0 231 231 0 231 231 0 230 230 0 230 230 0 230 230 0 229 0 0 229 0 0 229 0 0 228 0 0 228 0 0 228 0 0 227 0 0 227 0 0 227 0 0 226 0 0 226 0 0 226 0 0 0 141 0 0 154 0 0 148 0 0 132 0 0 107 0 0 74 0 0 27 0 0 26 0 26 26 0 26 26 0 221 221 0 221 221 0 220 220 0 220 0 0 219 0 0 219 0 0 219 0 0 218 0 0 218 0 0 217 0 0 217 0 0 216 0 0 216 0 0 215 0 0 215 0 0 214 0 0 214 0 0 213 0 0 213 0 0 212 0 0 212 0 0 211 211 0 211 211 0 210 210 0 210 210 0 209 209 0 209 209 0 0 45 0 0 61 0 0 61 0 0 54 0 0 37 0 0 26 0 26 26 0 26 0 0 26 0 0 26 0 0 203 0 0 203 0 0 202 0 0 202 0 0 201 0 0 200 0 0 200 0 0 199 0 0 199 0 0 198 198 0 198 198 0 197 197 0 197 197 0 196 196 0 196 196 0 195 195 0 195 195 0 194 194 0 194 194 0 193 193 0 192 0 0 192 0 0 191 0 0 191 0 0 190 0 0 234 0 0 234 0 0 233 0 0 233 0 0 233 233 0 233 233 0 233 233 0 232 232 0 232 232 0 232 232 0 232 232 0 231 231 0 231 231 0 231 231 0 231 231 0 230 230 0 230 0 0 230 0 0 229 0 0 229 0 0 229 0 0 228 0 0 228 0 0 228 0 0 227 0 0 227 0 0 227 0 0 226 0 0 226 226 0 0 112 0 0 111 0 0 96 0 0 70 0 0 33 0 0 26 0 26 26 0 26 26 0 26 26 0 222 222 0 221 221 0 221 221 0 220 220 0 220 0 0 220 0 0 219 0 0 219 0 0 218 0 0 218 0 0 217 0 0 217 0 0 216 0 0 216 0 0 215 0 0 215 0 0 214 0 0 214 0 0 213 0 0 213 0 0 212 212 0 212 212 0 211 211 0 211 211 0 210 210 0 210 210 0 209 209 0 209 209 0 26 26 0 26 26 0 26 26 0 26 26 0 26 26 0 26 26 0 26 0 0 26 0 0 204 0 0 204 0 0 203 0 0 203 0 0 202 0 0 202 0 0 201 0 0 201 0 0 200 0 0 200 0 0 199 199 0 199 199 0 198 198 0 197 197 0 197 197 0 196 196 0 196 196 0 195 195 0 195 195 0 194 194 0 194 194 0 193 193 0 193 0 0 192 0 0 192 0 0 191 0 0 234 0 0 234 0 0 234 0 0 234 0 0 234 234 0 233 233 0 233 233 0 233 233 0 233 233 0 232 232 0 232 232 0 232 232 0 232 232 0 231 231 0 231 231 0 231 231 0 230 0 0 230 0 0 230 0 0 229 0 0 229 0 0 229 0 0 228 0 0 228 0 0 228 0 0 227 0 0 227 0 0 227 0 0 226 0 0 226 226 0 0 47 0 0 38 0 0 26 0 26 26 0 26 26 0 26 26 0 223 223 0 223 223 0 222 222 0 222 222 0 221 221 0 221 221 0 221 221 0 220 220 0 220 0 0 219 0 0 219 0 0 218 0 0 218 0 0 217 0 0 217 0 0 216 0 0 216 0 0 215 0 0 215 0 0 215 0 0 214 214 0 214 214 0 213 213 0 213 213 0 212 212 0 212 212 0 211 211 0 211 211 0 210 210 0 210 210 0 209 209 0 209 209 0 208 208 0 208 208 0 207 207 0 206 0 0 206 0 0 205 0 0 205 0 0 204 0 0 204 0 0 203 0 0 203 0 0 202 0 0 202 0 0 201 0 0 201 0 0 200 0 0 200 200 0 199 199 0 199 199 0 198 198 0 198 198 0 197 197 0 197 197 0 196 196 0 196 196 0 195 195 0 194 194 0 194 194 0 193 0 0 193 0 0 192 0 0 192 0 0 235 0 0 235 0 0 235 0 0 234 234 0 234 234 0 234 234 0 234 234 0 233 233 0 233 233 0 233 233 0 233 233 0 232 232 0 232 232 0 232 232 0 232 232 0 231 231 0 231 0 0 231 0 0 230 0 0 230 0 0 230 0 0 229 0 0 229 0 0 229 0 0 228 0 0 228 0 0 228 0 0 227 0 0 227 0 0 226 226 0 226 226 0 226 226 0 26 26 0 26 26 0 224 224 0 224 224 0 224 224 0 223 223 0 223 223 0 222 222 0 222 222 0 222 222 0 221 221 0 221 221 0 220 220 0 220 220 0 219 219 0 219 0 0 218 0 0 218 0 0 217 0 0 217 0 0 216 0 0 216 216 0 216 216 0 215 215 0 215 215 0 214 214 0 214 214 0 213 213 0 213 213 0 212 212 0 212 212 0 211 211 0 211 211 0 210 210 0 210 210 0 209 209 0 209 209 0 208 208 0 208 208 0 207 0 0 207 0 0 206 0 0 206 0 0 205 0 0 205 0 0 204 0 0 203 0 0 203 0 0 202 0 0 202 0 0 201 0 0 201 0 0 200 200 0 200 200 0 199 199 0 199 199 0 198 198 0 198 198 0 197 197 0 197 197 0 196 196 0 196 196 0 195 195 0 195 195 0 194 194 0 194 0 0 193 0 0 193 0 0 235 0 0 235 0 0 235 0 0 235 235 0 235 235 0 234 234 0 234 234 0 234 234 0 234 234 0 233 233 0 233 233 0 233 233 0 233 233 0 232 232 0 232 232 0 232 232 0 231 0 0 231 0 0 231 0 0 230 0 0 230 0 0 230 0 0 229 0 0 229 0 0 229 0 0 228 0 0 228 0 0 228 0 0 227 0 0 227 227 0 226 226 0 226 226 0 226 226 0 225 225 0 225 225 0 225 225 0 224 224 0 224 224 0 223 223 0 223 223 0 222 222 0 222 222 0 222 222 0 221 221 0 221 221 0 220 220 0 220 220 0 219 219 0 219 219 0 218 218 0 218 218 0 217 217 0 217 217 0 217 217 0 216 216 0 216 216 0 215 215 0 215 215 0 214 214 0 214 214 0 213 213 0 213 213 0 212 212 0 212 212 0 211 211 0 211 211 0 210 210 0 210 210 0 209 209 0 209 209 0 208 208 0 208 0 0 207 0 0 207 0 0 206 0 0 206 0 0 205 0 0 205 0 0 204 0 0 204 0 0 203 0 0 203 0 0 202 0 0 202 0 0 201 201 0 201 201 0 200 200 0 199 199 0 199 199 0 198 198 0 198 198 0 197 197 0 197 197 0 196 196 0 196 196 0 195 195 0 195 195 0 194 0 0 194 0 0 193 0 0 236 0 0 236 0 0 235 0 0 235 235 0 235 235 0 235 235 0 235 235 0 234 234 0 234 234 0 234 234 0 234 234 0 233 233 0 233 233 0 233 233 0 232 232 0 232 232 0 232 0 0 231 0 0 231 0 0 231 0 0 231 0 0 230 0 0 230 0 0 229 0 0 229 0 0 229 0 0 228 0 0 228 0 0 228 0 0 227 0 0 227 227 0 227 227 0 226 226 0 226 226 0 225 225 0 225 225 0 225 225 0 224 224 0 224 224 0 223 223 0 223 223 0 222 222 0 222 222 0 222 222 0 221 221 0 221 221 0 220 220 0 220 220 0 219 219 0 219 219 0 218 218 0 218 218 0 217 217 0 217 217 0 217 217 0 216 216 0 216 216 0 215 215 0 215 215 0 214 214 0 214 214 0 213 213 0 213 213 0 212 212 0 212 212 0 211 211 0 211 211 0 210 210 0 210 210 0 209 209 0 209 0 0 208 0 0 208 0 0 207 0 0 207 0 0 206 0 0 206 0 0 205 0 0 205 0 0 204 0 0 204 0 0 203 0 0 203 0 0 202 0 0 202 202 0 201 201 0 201 201 0 200 200 0 200 200 0 199 199 0 199 199 0 198 198 0 198 198 0 197 197 0 197 197 0 196 196 0 196 196 0 195 0 0 195 0 0 194 0 0 236 0 0 236 0 0 236 236 0 236 236 0 235 235 0 235 235 0 235 235 0 235 235 0 234 234 0 234 234 0 234 234 0 234 234 0 233 233 0 233 233 0 233 233 0 233 233 0 232 0 0 232 0 0 232 0 0 231 0 0 231 0 0 231 0 0 230 0 0 230 0 0 230 0 0 229 0 0 229 0 0 228 0 0 228 0 0 228 0 0 227 0 0 227 227 0 227 227 0 226 226 0 226 226 0 225 225 0 225 225 0 225 225 0 224 224 0 224 224 0 223 223 0 223 223 0 222 222 0 222 222 0 222 222 0 221 221 0 221 221 0 220 220 0 220 220 0 219 219 0 219 219 0 218 218 0 218 218 0 217 217 0 217 217 0 217 217 0 216 216 0 216 216 0 215 215 0 215 215 0 214 214 0 214 214 0 213 213 0 213 213 0 212 212 0 212 212 0 211 211 0 211 211 0 210 210 0 210 0 0 209 0 0 209 0 0 208 0 0 208 0 0 207 0 0 207 0 0 206 0 0 206 0 0 205 0 0 205 0 0 204 0 0 204 0 0 203 0 0 203 0 0 202 202 0 202 202 0 201 201 0 201 201 0 200 200 0 200 200 0 199 199 0 199 199 0 198 198 0 198 198 0 197 197 0 197 197 0 196 196 0 196 196 0 195 0 0 195 0 0 237 0 0 237 0 0 236 236 0 236 236 0 236 236 0 236 236 0 235 235 0 235 235 0 235 235 0 235 235 0 234 234 0 234 234 0 234 234 0 233 233 0 233 233 0 233 233 0 233 0 0 232 0 0 232 0 0 232 0 0 231 0 0 231 0 0 231 0 0 230 0 0 230 0 0 230 0 0 229 0 0 229 0 0 228 0 0 228 0 0 228 0 0 227 227 0 227 227 0 227 227 0 226 226 0 226 226 0 225 225 0 225 225 0 225 225 0 224 224 0 224 224 0 223 223 0 223 223 0 222 222 0 222 222 0 222 222 0 221 221 0 221 221 0 220 220 0 220 220 0 219 219 0 219 219 0 218 218 0 218 218 0 217 217 0 217 217 0 217 217 0 216 216 0 216 216 0 215 215 0 215 215 0 214 214 0 214 214 0 213 213 0 213 213 0 212 212 0 212 212 0 211 211 0 211 211 0 210 0 0 210 0 0 209 0 0 209 0 0 208 0 0 208 0 0 207 0 0 207 0 0 206 0 0 206 0 0 205 0 0 205 0 0 204 0 0 204 0 0 203 0 0 203 203 0 202 202 0 202 202 0 201 201 0 201 201 0 200 200 0 200 200 0 199 199 0 199 199 0 198 198 0 198 198 0 197 197 0 197 197 0 196 196 0 196 0 0 195 0 0 237 0 0 237 0 0 237 237 0 236 236 0 236 236 0 236 236 0 236 236 0 236 236 0 235 235 0 235 235 0 235 235 0 234 234 0 234 234 0 234 234 0 234 234 0 233 233 0 233 0 0 233 0 0 232 0 0 232 0 0 232 0 0 231 0 0 231 0 0 231 0 0 230 0 0 230 0 0 230 0 0 229 0 0 229 0 0 228 0 0 228 0 0 228 0 0 227 227 0 227 227 0 227 227 0 226 226 0 226 226 0 225 225 0 225 225 0 225 225 0 224 224 0 224 224 0 223 223 0 223 223 0 222 222 0 222 222 0 222 222 0 221 221 0 221 221 0 220 220 0 220 220 0 219 219 0 219 219 0 218 218 0 218 218 0 217 217 0 217 217 0 217 217 0 216 216 0 216 216 0 215 215 0 215 215 0 214 214 0 214 214 0 213 213 0 213 213 0 212 212 0 212 212 0 211 0 0 211 0 0 210 0 0 210 0 0 209 0 0 209 0 0 208 0 0 208 0 0 207 0 0 207 0 0 206 0 0 206 0 0 205 0 0 205 0 0 204 0 0 204 0 0 203 203 0 203 203 0 202 202 0 202 202 0 201 201 0 201 201 0 200 200 0 200 200 0 199 199 0 199 199 0 198 198 0 198 198 0 197 197 0 197 197 0 196 0 0 196 0 0 238 0 0 237 0 0 237 237 0 237 237 0 237 237 0 236 236 0 236 236 0 236 236 0 236 236 0 235 235 0 235 235 0 235 235 0 235 235 0 234 234 0 234 234 0 234 234 0 233 0 0 233 0 0 233 0 0 232 0 0 232 0 0 232 0 0 231 0 0 231 0 0 231 0 0 230 0 0 230 0 0 230 0 0 229 0 0 229 0 0 228 0 0 228 0 0 228 0 0 227 0 0 227 227 0 227 227 0 226 226 0 226 226 0 225 225 0 225 225 0 224 224 0 224 224 0 224 224 0 223 223 0 223 223 0 222 222 0 222 222 0 221 221 0 221 221 0 221 221 0 220 220 0 220 220 0 219 219 0 219 219 0 218 218 0 218 218 0 217 217 0 217 217 0 216 216 0 216 216 0 216 216 0 215 215 0 215 215 0 214 214 0 214 214 0 213 213 0 213 0 0 212 0 0 212 0 0 211 0 0 211 0 0 210 0 0 210 0 0 209 0 0 209 0 0 208 0 0 208 0 0 207 0 0 207 0 0 206 0 0 206 0 0 205 0 0 205 0 0 204 0 0 204 204 0 203 203 0 203 203 0 202 202 0 202 202 0 201 201 0 201 201 0 201 201 0 200 200 0 200 200 0 199 199 0 199 199 0 198 198 0 198 198 0 197 0 0 197 0 0 238 0 0 238 238 0 237 237 0 237 237 0 237 237 0 237 237 0 236 236 0 236 236 0 236 236 0 236 236 0 235 235 0 235 235 0 235 235 0 235 235 0 234 234 0 234 234 0 234 234 0 233 0 0 233 0 0 233 0 0 232 0 0 232 0 0 232 0 0 231 0 0 231 0 0 231 0 0 230 0 0 230 0 0 230 0 0 229 0 0 229 0 0 228 0 0 228 0 0 228 0 0 227 0 0 227 227 0 226 226 0 226 226 0 226 226 0 225 225 0 225 225 0 224 224 0 224 224 0 224 224 0 223 223 0 223 223 0 222 222 0 222 222 0 221 221 0 221 221 0 221 221 0 220 220 0 220 220 0 219 219 0 219 219 0 218 218 0 218 218 0 217 217 0 217 217 0 216 216 0 216 216 0 216 216 0 215 215 0 215 215 0 214 214 0 214 0 0 213 0 0 213 0 0 212 0 0 212 0 0 211 0 0 211 0 0 210 0 0 210 0 0 209 0 0 209 0 0 208 0 0 208 0 0 207 0 0 207 0 0 206 0 0 206 0 0 205 0 0 205 205 0 204 204 0 204 204 0 204 204 0 203 203 0 203 203 0 202 202 0 202 202 0 201 201 0 201 201 0 200 200 0 200 200 0 199 199 0 199 199 0 198 198 0 198 198 0 197 0 0 238 0 0 238 238 0 238 238 0 238 238 0 237 237 0 237 237 0 237 237 0 237 237 0 236 236 0 236 236 0 236 236 0 235 235 0 235 235 0 235 235 0 235 235 0 234 234 0 234 234 0 234 0 0 233 0 0 233 0 0 233 0 0 232 0 0 232 0 0 232 0 0 231 0 0 231 0 0 231 0 0 230 0 0 230 0 0 229 0 0 229 0 0 229 0 0 228 0 0 228 0 0 228 0 0 227 0 0 227 0 0 226 226 0 226 226 0 226 226 0 225 225 0 225 225 0 224 224 0 224 224 0 224 224 0 223 223 0 223 223 0 222 222 0 222 222 0 221 221 0 221 221 0 220 220 0 220 220 0 220 220 0 219 219 0 219 219 0 218 218 0 218 218 0 217 217 0 217 217 0 216 216 0 216 216 0 215 215 0 215 0 0 215 0 0 214 0 0 214 0 0 213 0 0 213 0 0 212 0 0 212 0 0 211 0 0 211 0 0 210 0 0 210 0 0 209 0 0 209 0 0 208 0 0 208 0 0 207 0 0 207 0 0 206 0 0 206 0 0 205 205 0 205 205 0 205 205 0 204 204 0 204 204 0 203 203 0 203 203 0 202 202 0 202 202 0 201 201 0 201 201 0 200 200 0 200 200 0 199 199 0 199 199 0 198 198 0 198 0 
